<svg xmlns="http://www.w3.org/2000/svg" xmlns:xlink="http://www.w3.org/1999/xlink" viewBox="0 0 1018 280"><defs><style>.cls-1,.cls-26,.cls-28,.cls-31,.cls-32,.cls-9{fill:none;}.cls-2{fill:#d6eefc;}.cls-3{fill:#70bef2;}.cls-4{fill:#0a84f2;}.cls-5{clip-path:url(#clip-path);}.cls-6{fill:#1a9ba1;}.cls-7{clip-path:url(#clip-path-2);}.cls-8{fill:#005eb8;}.cls-26,.cls-32,.cls-9{stroke:#fbb040;}.cls-28,.cls-31,.cls-32,.cls-9{stroke-miterlimit:10;}.cls-26,.cls-9{stroke-width:3px;}.cls-9{stroke-dasharray:7;}.cls-10{fill:#efefef;}.cls-11{fill:#ddd;}.cls-12{fill:#fbb040;}.cls-13{fill:#ed8b00;}.cls-14{fill:#f2f0f0;}.cls-15{fill:#036c70;}.cls-16{fill:#37c6d0;}.cls-17{opacity:0.1;}.cls-17,.cls-18{isolation:isolate;}.cls-18{opacity:0.2;}.cls-19{fill:#03787c;}.cls-20{fill:#fff;}.cls-21{clip-path:url(#clip-path-3);}.cls-22{fill:#0c84c6;}.cls-23{clip-path:url(#clip-path-4);}.cls-24{clip-path:url(#clip-path-5);}.cls-25{clip-path:url(#clip-path-6);}.cls-26{stroke-linecap:round;stroke-linejoin:round;}.cls-27{fill:#d9dcdd;}.cls-28{stroke:#70bef2;stroke-width:1.5px;}.cls-29{fill:#f7f7f7;}.cls-30{fill:#eaeaea;}.cls-31{stroke:#fff;stroke-width:5px;}.cls-32{stroke-width:2px;}</style><clipPath id="clip-path"><path class="cls-1" d="M710,103.67v61.5c0,8.75,22.49,15.86,50.45,15.86s50.45-7.11,50.45-15.86v-61.5Z"/></clipPath><clipPath id="clip-path-2"><path class="cls-1" d="M710,51.78v61c0,8.75,22.49,15.86,50.45,15.86s50.45-7.11,50.45-15.86v-61Z"/></clipPath><clipPath id="clip-path-3"><path class="cls-1" d="M130.32,183.57v37.38c0,5.31,13.67,9.64,30.66,9.64s30.66-4.32,30.66-9.64V183.57Z"/></clipPath><clipPath id="clip-path-4"><path class="cls-1" d="M130.32,152v37.09c0,5.31,13.67,9.64,30.66,9.64s30.66-4.32,30.66-9.64V152Z"/></clipPath><clipPath id="clip-path-5"><path class="cls-1" d="M4.09,35.74V73.12c0,5.31,13.67,9.64,30.66,9.64s30.66-4.32,30.66-9.64V35.74Z"/></clipPath><clipPath id="clip-path-6"><path class="cls-1" d="M4.09,4.21V41.29c0,5.31,13.67,9.64,30.66,9.64s30.66-4.32,30.66-9.64V4.21Z"/></clipPath></defs><title>sharepoint-migration-services</title><g id="design"><circle class="cls-2" cx="59.35" cy="179.21" r="3.3"/><circle class="cls-2" cx="314.61" cy="71.37" r="3.3"/><circle class="cls-2" cx="79.74" cy="259.83" r="3.3"/><circle class="cls-2" cx="566.16" cy="11.8" r="3.3"/><circle class="cls-2" cx="878.76" cy="240.21" r="3.3"/><path class="cls-3" d="M703.28,162.29v40.84c0,11.15,25,20.18,56.7,20.18s56.7-9,56.7-20.18V162.29Z"/><ellipse class="cls-4" cx="760.55" cy="165.18" rx="56.51" ry="19.8"/><g class="cls-5"><rect class="cls-6" x="709.91" y="130.29" width="101.19" height="109.55"/></g><path class="cls-3" d="M703.28,109.44v41.32c0,11.15,25,20.18,56.7,20.18s56.7-9,56.7-20.18V109.44Z"/><ellipse class="cls-4" cx="760.55" cy="112.8" rx="56.51" ry="19.8"/><g class="cls-7"><rect class="cls-6" x="709.91" y="77.92" width="101.19" height="109.55"/></g><path class="cls-3" d="M703.28,64.27v34c0,11.15,25,20.18,56.7,20.18s56.7-9,56.7-20.18v-34Z"/><ellipse class="cls-4" cx="760.55" cy="64.66" rx="56.51" ry="19.8"/><ellipse class="cls-8" cx="760.46" cy="64.66" rx="50.64" ry="15.86"/><line class="cls-9" x1="941.31" y1="141.11" x2="820.18" y2="141.11"/><path class="cls-9" d="M964.78,226.87V212.75a8.07,8.07,0,0,0-8.11-8.11H824.75"/><rect class="cls-10" x="939.48" y="240.21" width="21.57" height="39.18"/><rect class="cls-11" x="941.06" y="243.43" width="8.16" height="2.55"/><rect class="cls-11" x="951.47" y="243.43" width="8.16" height="2.55"/><rect class="cls-11" x="940.98" y="247.55" width="8.16" height="2.55"/><rect class="cls-11" x="951.39" y="247.55" width="8.16" height="2.55"/><rect class="cls-11" x="940.98" y="251.59" width="8.16" height="2.55"/><rect class="cls-11" x="951.39" y="251.59" width="8.16" height="2.55"/><rect class="cls-11" x="940.98" y="255.71" width="8.16" height="2.55"/><rect class="cls-11" x="951.47" y="255.71" width="8.16" height="2.55"/><rect class="cls-11" x="940.98" y="259.83" width="8.16" height="2.55"/><rect class="cls-11" x="951.39" y="259.83" width="8.16" height="2.55"/><rect class="cls-11" x="940.98" y="263.95" width="8.16" height="2.55"/><rect class="cls-11" x="951.39" y="263.95" width="8.16" height="2.55"/><rect class="cls-11" x="940.98" y="268" width="8.16" height="2.55"/><rect class="cls-11" x="951.47" y="268" width="8.16" height="2.55"/><rect class="cls-11" x="947.27" y="273.46" width="6.07" height="5.92"/><rect class="cls-10" x="957.31" y="229.2" width="27.56" height="50.19"/><rect class="cls-11" x="959.26" y="233.31" width="10.49" height="3.22"/><rect class="cls-11" x="972.59" y="233.31" width="10.49" height="3.22"/><rect class="cls-11" x="959.18" y="238.56" width="10.49" height="3.22"/><rect class="cls-11" x="972.52" y="238.56" width="10.49" height="3.22"/><rect class="cls-11" x="959.18" y="243.8" width="10.49" height="3.22"/><rect class="cls-11" x="972.52" y="243.8" width="10.49" height="3.22"/><rect class="cls-11" x="959.18" y="249.04" width="10.49" height="3.22"/><rect class="cls-11" x="972.59" y="249.04" width="10.49" height="3.22"/><rect class="cls-11" x="959.18" y="254.36" width="10.49" height="3.22"/><rect class="cls-11" x="972.52" y="254.36" width="10.49" height="3.22"/><rect class="cls-11" x="959.18" y="259.61" width="10.49" height="3.22"/><rect class="cls-11" x="972.52" y="259.61" width="10.49" height="3.22"/><rect class="cls-11" x="959.18" y="264.77" width="10.49" height="3.22"/><rect class="cls-11" x="972.59" y="264.77" width="10.49" height="3.22"/><rect class="cls-11" x="967.2" y="271.82" width="7.79" height="7.57"/><rect class="cls-4" x="978.33" y="211.71" width="22.5" height="36.67"/><rect class="cls-8" x="979.03" y="211.79" width="21.09" height="36.5"/><rect class="cls-4" x="985.89" y="214.67" width="12.87" height="2.63"/><circle class="cls-12" cx="981.15" cy="215.94" r="0.93"/><circle class="cls-13" cx="983.94" cy="215.94" r="0.93"/><rect class="cls-4" x="979.8" y="219.24" width="19.56" height="0.51"/><rect class="cls-4" x="985.89" y="221.87" width="12.87" height="2.63"/><circle class="cls-12" cx="981.15" cy="223.14" r="0.93"/><circle class="cls-13" cx="983.94" cy="223.14" r="0.93"/><rect class="cls-4" x="979.8" y="226.44" width="19.56" height="0.51"/><rect class="cls-4" x="985.89" y="229.07" width="12.87" height="2.63"/><circle class="cls-12" cx="981.15" cy="230.34" r="0.93"/><circle class="cls-13" cx="983.94" cy="230.34" r="0.93"/><rect class="cls-4" x="979.8" y="233.64" width="19.56" height="0.51"/><rect class="cls-4" x="985.89" y="236.27" width="12.87" height="2.63"/><circle class="cls-12" cx="981.15" cy="237.45" r="0.93"/><circle class="cls-13" cx="983.94" cy="237.45" r="0.93"/><rect class="cls-4" x="979.8" y="240.75" width="19.56" height="0.51"/><path class="cls-9" d="M824.75,78H956.66a8.07,8.07,0,0,0,8.11-8.11V45.73"/><polygon class="cls-12" points="511.28 213.2 532.64 224.79 511.28 236.38 511.28 213.2"/><line class="cls-9" x1="310.91" y1="224.87" x2="511.24" y2="224.87"/><path class="cls-14" d="M1002.2,119.47a17.33,17.33,0,0,0-3.2.3,13.21,13.21,0,0,0-15.5-10.4,11.76,11.76,0,0,0-3,1,17.51,17.51,0,1,0-32.9,12,14.66,14.66,0,0,0,.4,29.3h54.19a16.1,16.1,0,0,0,0-32.2Z"/><circle class="cls-15" cx="974.46" cy="116.75" r="12.5"/><circle class="cls-6" cx="986.13" cy="127.73" r="10.66"/><circle class="cls-16" cx="975.79" cy="137.74" r="8.5"/><path class="cls-17" d="M976.66,113.43H962.47a12.48,12.48,0,0,0,12.06,15.74,5.82,5.82,0,0,0,1.12-.07v.07a8.49,8.49,0,0,0-8.28,8.5v.65h9.4a1.77,1.77,0,0,0,1.76-1.76V115.2A2,2,0,0,0,976.66,113.43Z"/><path class="cls-18" d="M975.33,114.73H962.15A12.39,12.39,0,0,0,972.48,129a12.21,12.21,0,0,0,1.94.18,5.82,5.82,0,0,0,1.12-.07v.07a8.49,8.49,0,0,0-8.28,8.79,9.08,9.08,0,0,0,.22,1.73h7.85a1.77,1.77,0,0,0,1.76-1.76V116.53A1.73,1.73,0,0,0,975.33,114.73Z"/><path class="cls-18" d="M975.33,114.73H962.15A12.39,12.39,0,0,0,972.48,129a12.21,12.21,0,0,0,1.94.18,5.82,5.82,0,0,0,1.12-.07v.07a8.54,8.54,0,0,0-8.28,7.85h8.07a1.77,1.77,0,0,0,1.76-1.76v-18.8A1.71,1.71,0,0,0,975.33,114.73Z"/><path class="cls-18" d="M974,114.73H962.15A12.39,12.39,0,0,0,972.48,129a12.21,12.21,0,0,0,1.94.18,5.82,5.82,0,0,0,1.12-.07v.07a8.54,8.54,0,0,0-8.28,7.85H974a1.77,1.77,0,0,0,1.76-1.76v-18.8A1.71,1.71,0,0,0,974,114.73Z"/><path id="Back_Plate" data-name="Back Plate" class="cls-19" d="M956.57,114.73h17.5a1.77,1.77,0,0,1,1.76,1.76V134a1.77,1.77,0,0,1-1.76,1.76h-17.5A1.77,1.77,0,0,1,954.8,134V116.53a1.75,1.75,0,0,1,1.76-1.8Z"/><path class="cls-20" d="M962.26,125a3.43,3.43,0,0,1-1.12-1.15,3,3,0,0,1-.4-1.55,3.18,3.18,0,0,1,.72-2.05,4.36,4.36,0,0,1,1.87-1.22,7.6,7.6,0,0,1,2.56-.4,9.84,9.84,0,0,1,3.38.43v2.41a4.76,4.76,0,0,0-1.48-.61,5.65,5.65,0,0,0-1.76-.22,4.12,4.12,0,0,0-1.84.4,1.19,1.19,0,0,0-.72,1.12,1,1,0,0,0,.32.76,3.8,3.8,0,0,0,.83.61,15.67,15.67,0,0,0,1.55.65.41.41,0,0,1,.22.11c.65.29,1.33.61,1.94.94a2.74,2.74,0,0,1,1.15,1.15,3.76,3.76,0,0,1,.43,1.76,3.14,3.14,0,0,1-.65,2.09,3.53,3.53,0,0,1-1.76,1.15,7.47,7.47,0,0,1-2.48.4,16.48,16.48,0,0,1-2.27-.18,8.26,8.26,0,0,1-1.84-.54v-2.48a6,6,0,0,0,1.87.9,6.45,6.45,0,0,0,2.05.32,3.46,3.46,0,0,0,1.87-.4,1.17,1.17,0,0,0,.61-1.12,1.14,1.14,0,0,0-.32-.83,3.13,3.13,0,0,0-.94-.65,16.65,16.65,0,0,0-1.84-.83A8.45,8.45,0,0,1,962.26,125Z"/><polyline class="cls-9" points="186.85 38.23 654.85 38.23 654.85 95.9"/><polygon class="cls-12" points="667.17 88.54 655.59 109.9 644 88.54 667.17 88.54"/><g id="_Group_6" data-name=" Group 6"><path id="_Path_4" data-name=" Path 4" class="cls-8" d="M543,116.41a5.68,5.68,0,0,0-5.74,5.74h0V267.44a5.8,5.8,0,0,0,5.74,5.87H768.16a5.68,5.68,0,0,0,5.74-5.74h0V122.28a5.68,5.68,0,0,0-5.74-5.74h0L543,116.41Z"/><path id="_Path_5" data-name=" Path 5" class="cls-4" d="M524.14,280H786.59a12.71,12.71,0,0,0,12.56-12.56H511.58A12.62,12.62,0,0,0,524.14,280Z"/><path id="_Path_6" data-name=" Path 6" class="cls-8" d="M513.63,274.13a12.61,12.61,0,0,0,10.51,5.74H786.59a12.13,12.13,0,0,0,10.51-5.74Z"/><circle id="_Path_7" data-name=" Path 7" class="cls-20" cx="534.38" cy="270.58" r="1.37"/><circle id="_Path_8" data-name=" Path 8" class="cls-20" cx="530.56" cy="270.58" r="1.37"/><circle id="_Path_9" data-name=" Path 9" class="cls-20" cx="526.46" cy="270.58" r="1.37"/></g><g id="_Group_2-2" data-name=" Group 2-2"><rect class="cls-20" x="546.81" y="125.7" width="217.25" height="135.46"/></g><circle class="cls-15" cx="652.14" cy="174.63" r="30.26"/><circle class="cls-6" cx="680.39" cy="201.22" r="25.81"/><circle class="cls-16" cx="655.37" cy="225.46" r="20.58"/><path class="cls-17" d="M657.46,166.61H623.11a30.21,30.21,0,0,0,29.21,38.1,14.08,14.08,0,0,0,2.7-.17v.17A20.56,20.56,0,0,0,635,225.29v1.57h22.76a4.28,4.28,0,0,0,4.27-4.27v-51.7A4.76,4.76,0,0,0,657.46,166.61Z"/><path class="cls-18" d="M654.23,169.75H622.32a30,30,0,0,0,25,34.53,29.56,29.56,0,0,0,4.71.44,14.08,14.08,0,0,0,2.7-.17v.17A20.55,20.55,0,0,0,634.7,226a22,22,0,0,0,.52,4.19h19a4.28,4.28,0,0,0,4.27-4.27V174.11A4.19,4.19,0,0,0,654.23,169.75Z"/><path class="cls-18" d="M654.23,169.75H622.32a30,30,0,0,0,25,34.53,29.56,29.56,0,0,0,4.71.44,14.08,14.08,0,0,0,2.7-.17v.17a20.67,20.67,0,0,0-20.05,19h19.53a4.28,4.28,0,0,0,4.27-4.27V173.93A4.15,4.15,0,0,0,654.23,169.75Z"/><path class="cls-18" d="M651.1,169.75H622.32a30,30,0,0,0,25,34.53,29.56,29.56,0,0,0,4.71.44,14.08,14.08,0,0,0,2.7-.17v.17a20.67,20.67,0,0,0-20.05,19H651a4.28,4.28,0,0,0,4.27-4.27V173.93A4.13,4.13,0,0,0,651.1,169.75Z"/><path id="Back_Plate-2" data-name="Back Plate" class="cls-19" d="M608.81,169.75h42.37a4.28,4.28,0,0,1,4.27,4.27v42.37a4.28,4.28,0,0,1-4.27,4.27H608.81a4.28,4.28,0,0,1-4.27-4.27V174.11a4.24,4.24,0,0,1,4.27-4.36Z"/><path class="cls-20" d="M622.58,194.68a8.3,8.3,0,0,1-2.7-2.79,7.29,7.29,0,0,1-1-3.75,7.7,7.7,0,0,1,1.74-5,10.55,10.55,0,0,1,4.53-3,18.4,18.4,0,0,1,6.19-1,23.82,23.82,0,0,1,8.2,1v5.84a11.53,11.53,0,0,0-3.57-1.48,13.68,13.68,0,0,0-4.27-.52,10,10,0,0,0-4.45,1,2.89,2.89,0,0,0-1.74,2.7,2.51,2.51,0,0,0,.78,1.83,9.21,9.21,0,0,0,2,1.48,37.94,37.94,0,0,0,3.75,1.57,1,1,0,0,1,.52.26c1.57.7,3.23,1.48,4.71,2.27a6.62,6.62,0,0,1,2.79,2.79,9.1,9.1,0,0,1,1,4.27,7.6,7.6,0,0,1-1.57,5.06,8.55,8.55,0,0,1-4.27,2.79,18.09,18.09,0,0,1-6,1,39.91,39.91,0,0,1-5.49-.44,20,20,0,0,1-4.45-1.31v-6a14.53,14.53,0,0,0,4.53,2.18,15.61,15.61,0,0,0,5,.78,8.38,8.38,0,0,0,4.53-1,2.84,2.84,0,0,0,1.48-2.7,2.76,2.76,0,0,0-.78-2,7.59,7.59,0,0,0-2.27-1.57,40.31,40.31,0,0,0-4.45-2A20.47,20.47,0,0,1,622.58,194.68Z"/><path class="cls-3" d="M126.23,219.19V244c0,6.78,15.19,12.27,34.46,12.27s34.46-5.49,34.46-12.27V219.19Z"/><ellipse class="cls-4" cx="161.04" cy="220.95" rx="34.34" ry="12.03"/><g class="cls-21"><rect class="cls-22" x="130.26" y="199.75" width="61.5" height="66.58"/></g><path class="cls-3" d="M126.23,187.07v25.11c0,6.78,15.19,12.27,34.46,12.27s34.46-5.49,34.46-12.27V187.07Z"/><ellipse class="cls-4" cx="161.04" cy="189.12" rx="34.34" ry="12.03"/><g class="cls-23"><rect class="cls-22" x="130.26" y="167.91" width="61.5" height="66.58"/></g><path class="cls-3" d="M126.23,159.62V180.3c0,6.78,15.19,12.27,34.46,12.27s34.46-5.49,34.46-12.27V159.62Z"/><ellipse class="cls-4" cx="161.04" cy="159.85" rx="34.34" ry="12.03"/><ellipse class="cls-8" cx="160.98" cy="159.85" rx="30.78" ry="9.64"/><g id="_Group_6-2" data-name=" Group 6"><path id="_Path_4-2" data-name=" Path 4" class="cls-8" d="M164.06,180.78a3.45,3.45,0,0,0-3.48,3.48h0v88.12a3.52,3.52,0,0,0,3.48,3.56H300.63a3.45,3.45,0,0,0,3.48-3.48h0V184.34a3.45,3.45,0,0,0-3.48-3.48h0l-136.58-.08Z"/><path id="_Path_5-2" data-name=" Path 5" class="cls-4" d="M152.63,280H311.82a7.71,7.71,0,0,0,7.62-7.62H145A7.65,7.65,0,0,0,152.63,280Z"/><path id="_Path_6-2" data-name=" Path 6" class="cls-8" d="M146.25,276.44a7.65,7.65,0,0,0,6.38,3.48H311.82a7.36,7.36,0,0,0,6.38-3.48Z"/><circle id="_Path_7-2" data-name=" Path 7" class="cls-20" cx="158.84" cy="274.29" r="0.83"/><circle id="_Path_8-2" data-name=" Path 8" class="cls-20" cx="156.52" cy="274.29" r="0.83"/><circle id="_Path_9-2" data-name=" Path 9" class="cls-20" cx="154.04" cy="274.29" r="0.83"/></g><g id="_Group_2-2-2" data-name=" Group 2-2"><rect class="cls-20" x="166.38" y="186.41" width="131.77" height="82.16"/></g><path class="cls-22" d="M235.2,227.71V254.4c0,1.13-.08,1.58-1.51,1.28-10.1-1.88-20.21-3.62-30.31-5.43-1.06-.15-1.36-.68-1.36-1.73V206.37c0-1.13.38-1.51,1.43-1.66q15.15-2.6,30.31-5.43c1.28-.23,1.43.08,1.43,1.21C235.2,209.61,235.2,218.66,235.2,227.71Zm-12.82-6.63v-4.15c0-.53-.23-.68-.68-.9a7.33,7.33,0,0,0-10.1,5.05,7.25,7.25,0,0,0,3.17,7.84,20.38,20.38,0,0,1,3,2.19,2.71,2.71,0,0,1,.68,3.24c-.53,1.21-1.73,1.21-2.94,1.06-1.51-.23-2.64-1.21-4-2.19v2.56c0,2.56.3,2.87,2.79,3.47,4.83,1.21,8.22-.9,8.82-5.5a7,7,0,0,0-2.87-6.79c-1.13-.9-2.41-1.58-3.54-2.49a2.59,2.59,0,0,1-.9-3.32c.53-1.36,1.73-1.51,2.94-1.51A8.45,8.45,0,0,1,222.38,221.07Z"/><path class="cls-22" d="M238.52,212.55a12.1,12.1,0,0,0,0-2.34c-.3-1.73.75-2.41,2.11-2.94a5.38,5.38,0,0,1,7.24,5.05,1.79,1.79,0,0,0,1.13,1.88,13.56,13.56,0,0,1,6.33,6.48,1.76,1.76,0,0,0,1.81,1.21,5.59,5.59,0,0,1,0,11.16,1.68,1.68,0,0,0-1.81,1.21,14,14,0,0,1-6.33,6.56,1.73,1.73,0,0,0-1.13,1.88,5.08,5.08,0,0,1-2.87,4.75,5.21,5.21,0,0,1-5.43-.23,1.67,1.67,0,0,1-1-1.73c.08-2,.08-4,0-6a2,2,0,0,1,.83-1.58,5.21,5.21,0,0,1,6.33.15,1.61,1.61,0,0,0,2,.15,11.79,11.79,0,0,0,5.05-5.28,1.6,1.6,0,0,0-.15-2,5.44,5.44,0,0,1,0-6.79,1.59,1.59,0,0,0,.08-2,12.18,12.18,0,0,0-5.05-5.28,1.52,1.52,0,0,0-2,.15,4.77,4.77,0,0,1-3.62,1.13c-2.56-.15-3.54-1.21-3.54-3.69C238.52,213.83,238.52,213.23,238.52,212.55Z"/><path class="cls-3" d="M0,71.37V96.19c0,6.78,15.19,12.27,34.46,12.27S68.92,103,68.92,96.19V71.37Z"/><ellipse class="cls-4" cx="34.81" cy="73.12" rx="34.34" ry="12.03"/><g class="cls-24"><rect class="cls-12" x="4.03" y="51.92" width="61.5" height="66.58"/></g><path class="cls-3" d="M0,39.25V64.36c0,6.78,15.19,12.27,34.46,12.27s34.46-5.49,34.46-12.27V39.25Z"/><ellipse class="cls-4" cx="34.81" cy="41.29" rx="34.34" ry="12.03"/><g class="cls-25"><rect class="cls-12" x="4.03" y="20.09" width="61.5" height="66.58"/></g><path class="cls-3" d="M0,11.8V32.47c0,6.78,15.19,12.27,34.46,12.27s34.46-5.49,34.46-12.27V11.8Z"/><ellipse class="cls-4" cx="34.81" cy="12.03" rx="34.34" ry="12.03"/><ellipse class="cls-8" cx="34.75" cy="12.03" rx="30.78" ry="9.64"/><g id="_Group_6-3" data-name=" Group 6"><path id="_Path_4-3" data-name=" Path 4" class="cls-8" d="M37.83,34.43a3.45,3.45,0,0,0-3.48,3.48h0V126a3.52,3.52,0,0,0,3.48,3.56H174.41a3.45,3.45,0,0,0,3.48-3.48h0V38a3.45,3.45,0,0,0-3.48-3.48h0L37.83,34.43Z"/><path id="_Path_5-3" data-name=" Path 5" class="cls-4" d="M26.4,133.65H185.59a7.71,7.71,0,0,0,7.62-7.62H18.78A7.65,7.65,0,0,0,26.4,133.65Z"/><path id="_Path_6-3" data-name=" Path 6" class="cls-8" d="M20,130.09a7.65,7.65,0,0,0,6.38,3.48H185.59a7.36,7.36,0,0,0,6.38-3.48Z"/><circle id="_Path_7-3" data-name=" Path 7" class="cls-20" cx="32.61" cy="127.93" r="0.83"/><circle id="_Path_8-3" data-name=" Path 8" class="cls-20" cx="30.29" cy="127.93" r="0.83"/><circle id="_Path_9-3" data-name=" Path 9" class="cls-20" cx="27.81" cy="127.93" r="0.83"/></g><g id="_Group_2-2-3" data-name=" Group 2-2"><rect class="cls-20" x="40.15" y="40.06" width="131.77" height="82.16"/></g><path class="cls-26" d="M90.42,64.81h0A17.15,17.15,0,0,1,107.57,82v.16A17.15,17.15,0,0,1,90.42,99.27h0"/><path class="cls-12" d="M81.62,80.29l-.17-3.36a12.66,12.66,0,0,1-2.1-.82l-2.77,2.28-3.44-3.93,2.07-2.6a10.42,10.42,0,0,1-.87-2.23l-3.44-.34,0-5.3,3.36-.17a12.67,12.67,0,0,1,.82-2.1L72.85,59l3.93-3.44,2.6,2.07a10.39,10.39,0,0,1,2.23-.87l.34-3.44,5.3,0,.17,3.36a12.61,12.61,0,0,1,2.1.82l2.77-2.28,3.44,3.93-2.07,2.6A10.39,10.39,0,0,1,94.52,64l3.44.34,0,5.3-3.36.17a12.65,12.65,0,0,1-.82,2.1L96,74.65l-3.93,3.44L89.48,76a10.43,10.43,0,0,1-2.23.87l-.34,3.44ZM84.48,65a2.51,2.51,0,0,0-1.56.51,1.65,1.65,0,0,0-.69,1.26,1.51,1.51,0,0,0,.59,1.18,2.63,2.63,0,0,0,3.24.09,1.7,1.7,0,0,0,.57-1.22,1.72,1.72,0,0,0-.53-1.28A2.47,2.47,0,0,0,84.48,65Z"/><path class="cls-20" d="M82.85,54.29l3.44,0,.16,3.15a11.33,11.33,0,0,1,3.16,1.25l2.55-2.1,2.25,2.57-2,2.47A9.73,9.73,0,0,1,93.7,64.9l3.25.32,0,3.44-3.15.16A11.33,11.33,0,0,1,92.53,72l2.1,2.55-2.57,2.25-2.47-2a9.73,9.73,0,0,1-3.25,1.24L86,79.32l-3.44,0-.16-3.15a11.33,11.33,0,0,1-3.16-1.25L76.7,77l-2.25-2.57,2-2.47a9.73,9.73,0,0,1-1.24-3.25l-3.25-.32,0-3.44,3.15-.16a11.33,11.33,0,0,1,1.25-3.16l-2.1-2.55,2.57-2.25,2.47,2a9.73,9.73,0,0,1,3.25-1.24l.32-3.25m1.64,15.23a3.52,3.52,0,0,0,2.19-.73,2.7,2.7,0,0,0,.12-4A3.47,3.47,0,0,0,84.48,64a3.52,3.52,0,0,0-2.19.73,2.48,2.48,0,0,0-.12,4,3.47,3.47,0,0,0,2.32.84M81,52.28l-.18,1.82L80.68,56a11.49,11.49,0,0,0-1.17.46l-1.45-1.16-1.31-1-1.26,1.1-2.57,2.25-1.46,1.28,1.23,1.5L74,61.88c-.15.34-.27.67-.38,1L71.84,63,70,63v1.89l0,3.44V70.2l1.82.18,1.86.18A11.5,11.5,0,0,0,74,71.73l-1.16,1.45-1,1.31,1.1,1.26,2.25,2.57,1.28,1.46L78,78.54l1.54-1.26c.34.15.67.27,1,.38l.09,1.73.1,1.88h1.89l3.44,0h1.83L88,79.52l.18-1.86a11.49,11.49,0,0,0,1.17-.46l1.45,1.16,1.31,1,1.26-1.1L95.94,76l1.46-1.28-1.23-1.5-1.26-1.54c.15-.34.27-.67.38-1L97,70.66l1.88-.1V68.68l0-3.44V63.41l-1.82-.18-1.86-.18a11.49,11.49,0,0,0-.46-1.17L96,60.43l1-1.31-1.1-1.26L93.67,55.3l-1.28-1.46-1.5,1.23-1.54,1.26c-.34-.15-.67-.27-1-.38l-.09-1.73-.1-1.88H86.31l-3.44,0Zm3.45,15.24a1.49,1.49,0,0,1-1-.32l0,0,0,0a.56.56,0,0,1-.23-.4.69.69,0,0,1,.31-.48,1.65,1.65,0,0,1,1.89,0,.7.7,0,0,1,.2.5.72.72,0,0,1-.23.5,1.56,1.56,0,0,1-.9.27Z"/><path class="cls-12" d="M81.62,110.75l-.17-3.36a12.61,12.61,0,0,1-2.1-.82l-2.77,2.28-3.44-3.93,2.07-2.6a10.43,10.43,0,0,1-.87-2.23l-3.44-.34,0-5.3,3.36-.17a12.66,12.66,0,0,1,.82-2.1l-2.28-2.77L76.78,86l2.6,2.07a10.43,10.43,0,0,1,2.23-.87l.34-3.44,5.3,0,.17,3.36a12.65,12.65,0,0,1,2.1.82l2.77-2.28,3.44,3.93-2.07,2.6a10.39,10.39,0,0,1,.87,2.23l3.44.34,0,5.3-3.36.17a12.63,12.63,0,0,1-.82,2.1L96,105.11l-3.93,3.44-2.6-2.07a10.43,10.43,0,0,1-2.23.87l-.34,3.44Zm2.86-15.33a2.51,2.51,0,0,0-1.56.51,1.65,1.65,0,0,0-.69,1.26,1.51,1.51,0,0,0,.59,1.18,2.63,2.63,0,0,0,3.24.09,1.69,1.69,0,0,0,.57-1.22A1.72,1.72,0,0,0,86.1,96,2.47,2.47,0,0,0,84.48,95.42Z"/><path class="cls-20" d="M82.85,84.75l3.44,0,.16,3.15a11.33,11.33,0,0,1,3.16,1.25l2.55-2.1,2.25,2.57-2,2.47a9.73,9.73,0,0,1,1.24,3.25l3.25.32,0,3.44-3.15.16a11.33,11.33,0,0,1-1.25,3.16l2.1,2.55-2.57,2.25-2.47-2a9.73,9.73,0,0,1-3.25,1.24L86,109.78l-3.44,0-.16-3.15a11.33,11.33,0,0,1-3.16-1.25l-2.55,2.1-2.25-2.57,2-2.47a9.73,9.73,0,0,1-1.24-3.25l-3.25-.32,0-3.44,3.15-.16a11.33,11.33,0,0,1,1.25-3.16l-2.1-2.55,2.57-2.25,2.47,2A9.73,9.73,0,0,1,82.53,88l.32-3.25M84.49,100a3.52,3.52,0,0,0,2.19-.73,2.7,2.7,0,0,0,.12-4,3.47,3.47,0,0,0-2.32-.84,3.52,3.52,0,0,0-2.19.73,2.48,2.48,0,0,0-.12,4,3.47,3.47,0,0,0,2.32.84M81,82.74l-.18,1.82-.18,1.86a11.49,11.49,0,0,0-1.17.46l-1.45-1.16-1.31-1-1.26,1.1L72.92,88,71.47,89.3l1.23,1.5L74,92.34c-.15.34-.27.67-.38,1l-1.73.09-1.88.1v1.89l0,3.44v1.83l1.82.18,1.86.18a11.5,11.5,0,0,0,.46,1.17l-1.16,1.45-1,1.31,1.1,1.26,2.25,2.57,1.28,1.46L78,109l1.54-1.26c.34.15.67.27,1,.38l.09,1.73.1,1.88h1.89l3.44,0h1.83L88,110l.18-1.86a11.49,11.49,0,0,0,1.17-.46l1.45,1.16,1.31,1,1.26-1.1,2.57-2.25,1.46-1.28-1.23-1.5-1.26-1.54c.15-.34.27-.67.38-1l1.73-.09,1.88-.1V99.14l0-3.44V93.87l-1.82-.18-1.86-.18a11.49,11.49,0,0,0-.46-1.17L96,90.89l1-1.31-1.1-1.26-2.25-2.57L92.39,84.3l-1.5,1.23-1.54,1.26c-.34-.15-.67-.27-1-.38l-.09-1.73-.1-1.88H86.31l-3.44,0ZM84.49,98a1.49,1.49,0,0,1-1-.32l0,0,0,0a.56.56,0,0,1-.23-.4.69.69,0,0,1,.31-.48,1.65,1.65,0,0,1,1.89,0,.7.7,0,0,1,.2.5.72.72,0,0,1-.23.5,1.56,1.56,0,0,1-.9.27Z"/><rect class="cls-20" x="102.46" y="76.63" width="11.75" height="10.12"/><path class="cls-12" d="M111.73,74.41a16.68,16.68,0,0,0-1.84,4.66l-4.63.23,0,5.07,4.79.47a14.33,14.33,0,0,0,1.83,4.79L109,93.26,112.27,97,116,94a16.68,16.68,0,0,0,4.66,1.84l.23,4.63,5.07,0,.47-4.79a14.33,14.33,0,0,0,4.79-1.83l3.63,2.89,3.78-3.31-3.09-3.76A16.68,16.68,0,0,0,137.42,85l4.63-.23,0-5.07-4.79-.47a14.33,14.33,0,0,0-1.83-4.79l2.89-3.63L135,67l-3.76,3.09a16.68,16.68,0,0,0-4.66-1.84l-.23-4.63-5.07,0-.47,4.79a14.33,14.33,0,0,0-4.79,1.83l-3.63-2.89-3.78,3.31Zm9.32,4.65a4,4,0,0,1,5.48.15,4.17,4.17,0,0,1-.15,5.59,4,4,0,0,1-5.48-.15A3.8,3.8,0,0,1,121.06,79.06Z"/><circle class="cls-10" cx="453.57" cy="130.09" r="39.27"/><path class="cls-20" d="M461.28,106.08H436.37c-.7,0-1.26.56-1.26,1.68v45.51c0,.28.56.84,1.26.84h34.34c.7,0,1.26-.56,1.26-.84V117.18c0-.63-.07-.77-.21-.91l-10-10A.63.63,0,0,0,461.28,106.08Z"/><polygon class="cls-27" points="461.7 106.22 461.7 116.34 471.89 116.34 461.7 106.22"/><path class="cls-8" d="M470.78,154.1H436.44a1.25,1.25,0,0,1-1.26-1.26V139.51H472v13.33A1.35,1.35,0,0,1,470.78,154.1Z"/><path class="cls-20" d="M449.7,147a6.83,6.83,0,0,1-.21,1.81,5.24,5.24,0,0,1-.56,1.26,3,3,0,0,1-.77.84,2.36,2.36,0,0,1-.84.42c-.28.07-.56.14-.77.21a3.94,3.94,0,0,0-.49.07h-3.28v-8.73h2.58a5,5,0,0,1,1.88.35,4.82,4.82,0,0,1,1.4.91,4.29,4.29,0,0,1,.84,1.33A5.44,5.44,0,0,1,449.7,147Zm-4.19,3.49a2.31,2.31,0,0,0,2.09-.91,4.65,4.65,0,0,0,.63-2.65,5.39,5.39,0,0,0-.14-1,2.58,2.58,0,0,0-.49-1,3.5,3.5,0,0,0-1-.7,3.81,3.81,0,0,0-1.68-.28h-.84v6.56Z"/><path class="cls-20" d="M458.28,147.19a5.76,5.76,0,0,1-.28,2,3.82,3.82,0,0,1-.77,1.4,4.26,4.26,0,0,1-1.12.84,3.63,3.63,0,0,1-2.79,0,3.36,3.36,0,0,1-1.12-.84,5.23,5.23,0,0,1-.77-1.4,5.5,5.5,0,0,1-.28-2,4.88,4.88,0,0,1,.28-1.88,4.5,4.5,0,0,1,.77-1.4,4.26,4.26,0,0,1,1.12-.84,3.63,3.63,0,0,1,2.79,0,3.36,3.36,0,0,1,1.12.84,3.82,3.82,0,0,1,.77,1.4A6.73,6.73,0,0,1,458.28,147.19Zm-3.63,3.21a3.5,3.5,0,0,0,.84-.14,1.77,1.77,0,0,0,.7-.56,3.65,3.65,0,0,0,.49-1,4.8,4.8,0,0,0,.21-1.54,4.35,4.35,0,0,0-.21-1.47,3.65,3.65,0,0,0-.49-1,1.32,1.32,0,0,0-.7-.56,3,3,0,0,0-.84-.21,3.5,3.5,0,0,0-.84.14,1.77,1.77,0,0,0-.7.56,3.65,3.65,0,0,0-.49,1,4.8,4.8,0,0,0-.21,1.54,5.11,5.11,0,0,0,.21,1.54,3.65,3.65,0,0,0,.49,1,1.77,1.77,0,0,0,.7.56A1.64,1.64,0,0,0,454.65,150.4Z"/><path class="cls-20" d="M466.1,150.61a3.75,3.75,0,0,1-1.12.7,4.06,4.06,0,0,1-1.33.21,3.12,3.12,0,0,1-1.4-.28,3.36,3.36,0,0,1-1.12-.84,5.23,5.23,0,0,1-.77-1.4,5.5,5.5,0,0,1-.28-2,5.11,5.11,0,0,1,.28-1.88,4.5,4.5,0,0,1,.77-1.4,4.26,4.26,0,0,1,1.12-.84,3.13,3.13,0,0,1,1.4-.28,4.06,4.06,0,0,1,1.33.21,3.75,3.75,0,0,1,1.12.7l-1,.84a1.92,1.92,0,0,0-.63-.49,2.51,2.51,0,0,0-.77-.14,3.5,3.5,0,0,0-.84.14,1.77,1.77,0,0,0-.7.56,3.65,3.65,0,0,0-.49,1,4.8,4.8,0,0,0-.21,1.54,5.11,5.11,0,0,0,.21,1.54,3.65,3.65,0,0,0,.49,1,1.77,1.77,0,0,0,.7.56,1.66,1.66,0,0,0,.84.21,2.51,2.51,0,0,0,.77-.14,1.6,1.6,0,0,0,.7-.49Z"/><circle class="cls-10" cx="259.62" cy="130.09" r="39.27"/><path class="cls-28" d="M278.37,113.73H243.29a2.94,2.94,0,0,0-2.91,2.91v14.54"/><path class="cls-28" d="M281.28,132.19H240.45v15.23a2.94,2.94,0,0,0,2.91,2.91h15.11"/><circle class="cls-16" cx="240.45" cy="132.19" r="6.83"/><rect class="cls-12" x="253.21" y="108.42" width="10.68" height="10.68"/><rect class="cls-4" x="253.21" y="126.82" width="10.68" height="10.68"/><rect class="cls-8" x="253.13" y="145.05" width="10.68" height="10.68" transform="translate(-30.64 226.82) rotate(-45)"/><rect class="cls-4" x="270.72" y="108.45" width="10.68" height="10.68" transform="translate(0.4 228.54) rotate(-45)"/><circle class="cls-8" cx="276.1" cy="132.19" r="6.89"/><circle class="cls-10" cx="356.44" cy="130.09" r="39.27"/><path class="cls-12" d="M583.31,183.85H511.49a2.57,2.57,0,0,1-2.45-3.17L525.33,136a2.47,2.47,0,0,1,2.45-1.87h71.83c1.59,0,2.45,1.59,2.45,3.17L585.76,182A2.47,2.47,0,0,1,583.31,183.85Z"/><path class="cls-13" d="M589.66,119.67h-3.61v14.42h6.35V122.41A2.84,2.84,0,0,0,589.66,119.67Z"/><path class="cls-13" d="M515.38,108.56h-3.61A2.74,2.74,0,0,0,509,111.3v68.51h.29l6.06-16.59V108.56Z"/><path class="cls-29" d="M525.48,136a2.47,2.47,0,0,1,2.45-1.87h58.12V90.82H525V137Z"/><path class="cls-30" d="M536.29,116.49H574.8a1.59,1.59,0,0,0,0-3.17H536.29a1.59,1.59,0,0,0,0,3.17Z"/><path class="cls-30" d="M536.29,105.24h16a1.59,1.59,0,0,0,0-3.17h-16a1.59,1.59,0,0,0,0,3.17Z"/><path class="cls-30" d="M574.8,124.57H536.29a1.59,1.59,0,0,0,0,3.17H574.8a1.59,1.59,0,0,0,0-3.17Z"/><polygon class="cls-30" points="525.04 136.97 525.04 93.99 520.28 93.99 520.28 150.1 525.04 136.97"/><polygon class="cls-11" points="520.28 150.1 520.28 97.31 515.38 97.31 515.38 163.37 520.28 150.1"/><rect class="cls-8" x="336.05" y="114.33" width="36.04" height="36.04"/><rect class="cls-16" x="340.78" y="109.81" width="36.04" height="36.04"/><line class="cls-31" x1="358.76" y1="119.85" x2="358.76" y2="137.09"/><line class="cls-31" x1="350.15" y1="128.47" x2="367.38" y2="128.47"/><line class="cls-32" x1="439.65" y1="112.8" x2="449.7" y2="112.8"/><line class="cls-28" x1="439.65" y1="121.49" x2="455.5" y2="121.49"/><line class="cls-28" x1="439.65" y1="131.74" x2="455.5" y2="131.74"/><line class="cls-28" x1="439.65" y1="126.46" x2="466.49" y2="126.46"/><path class="cls-3" d="M366.23,243.91a1.25,1.25,0,0,1,.37-1,1.55,1.55,0,0,1,1.08-.34,1.46,1.46,0,0,1,1,.34,1.27,1.27,0,0,1,.36,1,1.25,1.25,0,0,1-.37,1,1.46,1.46,0,0,1-1,.34,1.56,1.56,0,0,1-1.07-.34A1.21,1.21,0,0,1,366.23,243.91Z"/><path class="cls-3" d="M370.07,243.91a1.25,1.25,0,0,1,.37-1,1.55,1.55,0,0,1,1.08-.34,1.46,1.46,0,0,1,1,.34,1.27,1.27,0,0,1,.36,1,1.25,1.25,0,0,1-.37,1,1.46,1.46,0,0,1-1,.34,1.56,1.56,0,0,1-1.07-.34A1.21,1.21,0,0,1,370.07,243.91Z"/><path class="cls-3" d="M373.9,243.91a1.25,1.25,0,0,1,.37-1,1.55,1.55,0,0,1,1.08-.34,1.46,1.46,0,0,1,1,.34,1.27,1.27,0,0,1,.36,1,1.25,1.25,0,0,1-.37,1,1.46,1.46,0,0,1-1,.34,1.56,1.56,0,0,1-1.07-.34A1.21,1.21,0,0,1,373.9,243.91Z"/><path class="cls-3" d="M382.64,245h-2.7v-7.79H377.5v-2.21h7.57v2.21h-2.43Z"/><path class="cls-3" d="M395.64,240a5.39,5.39,0,0,1-1.24,3.83,5.62,5.62,0,0,1-7.23,0,6.48,6.48,0,0,1,0-7.65,5.66,5.66,0,0,1,7.24,0A5.39,5.39,0,0,1,395.64,240Zm-6.88,0q0,2.9,2,2.9a1.73,1.73,0,0,0,1.52-.7,5.11,5.11,0,0,0,0-4.41,1.72,1.72,0,0,0-1.5-.71Q388.77,237.11,388.77,240Z"/><path class="cls-3" d="M407.2,242a3,3,0,0,1-.47,1.65,3.08,3.08,0,0,1-1.36,1.12,5,5,0,0,1-2.08.4,8.41,8.41,0,0,1-1.67-.14,6.19,6.19,0,0,1-1.41-.49v-2.41a8,8,0,0,0,1.61.62,6,6,0,0,0,1.53.22,1.49,1.49,0,0,0,.88-.21.64.64,0,0,0,.28-.54.59.59,0,0,0-.11-.36,1.32,1.32,0,0,0-.36-.31q-.25-.16-1.33-.64a6.35,6.35,0,0,1-1.47-.86,2.65,2.65,0,0,1-.72-1,3.18,3.18,0,0,1-.24-1.28,2.56,2.56,0,0,1,1-2.15,4.43,4.43,0,0,1,2.76-.77,7.75,7.75,0,0,1,3.17.72l-.83,2.08a6,6,0,0,0-2.42-.64,1.26,1.26,0,0,0-.77.18.56.56,0,0,0-.24.46.66.66,0,0,0,.3.53,11.54,11.54,0,0,0,1.65.85,4.56,4.56,0,0,1,1.79,1.25A2.71,2.71,0,0,1,407.2,242Z"/><path class="cls-3" d="M417.1,245h-2.71V241h-3.14V245h-2.71v-10h2.71v3.71h3.14v-3.71h2.71Z"/><path class="cls-3" d="M425.18,245l-.49-1.87h-3.25l-.51,1.87h-3l3.26-10h3.6l3.3,10ZM424.13,241l-.43-1.64q-.15-.55-.37-1.42t-.28-1.24q-.06.35-.24,1.15T422,241Z"/><path class="cls-3" d="M431.71,241.41V245H429v-10h3.27q4.07,0,4.07,3a3,3,0,0,1-1.7,2.69l2.91,4.35h-3.06l-2.12-3.64Zm0-2h.51q1.42,0,1.42-1.25,0-1-1.39-1h-.53Z"/><path class="cls-3" d="M444.2,245h-5.93v-10h5.93v2.17H441v1.57h3V241h-3v1.89h3.23Z"/><path class="cls-3" d="M453,238.23a3.34,3.34,0,0,1-1,2.59,4,4,0,0,1-2.81.91h-.76V245h-2.7v-10h3.46a4.23,4.23,0,0,1,2.84.83A3,3,0,0,1,453,238.23Zm-4.55,1.3h.49a1.35,1.35,0,0,0,1-.34,1.24,1.24,0,0,0,.36-.94q0-1-1.12-1h-.7Z"/><path class="cls-3" d="M463.73,240a5.39,5.39,0,0,1-1.24,3.83,5.62,5.62,0,0,1-7.23,0,6.48,6.48,0,0,1,0-7.65,5.66,5.66,0,0,1,7.24,0A5.39,5.39,0,0,1,463.73,240Zm-6.88,0q0,2.9,2,2.9a1.73,1.73,0,0,0,1.52-.7,5.11,5.11,0,0,0,0-4.41,1.72,1.72,0,0,0-1.5-.71Q456.85,237.11,456.85,240Z"/><path class="cls-3" d="M465.33,245v-10H468v10Z"/><path class="cls-3" d="M479.51,245H476l-3.65-7h-.06q.13,1.66.13,2.54V245H470v-10h3.53l3.64,6.95h0q-.1-1.51-.1-2.43v-4.52h2.41Z"/><path class="cls-3" d="M485.87,245h-2.7v-7.79h-2.44v-2.21h7.57v2.21h-2.43Z"/><path class="cls-3" d="M491,235.45a16.16,16.16,0,0,1-1.32,3.32l-.78.1a19.86,19.86,0,0,0,.83-3.29Z"/><path class="cls-3" d="M498.74,242a3,3,0,0,1-.47,1.65,3.08,3.08,0,0,1-1.36,1.12,5,5,0,0,1-2.08.4,8.41,8.41,0,0,1-1.67-.14,6.19,6.19,0,0,1-1.41-.49v-2.41a8,8,0,0,0,1.61.62,6,6,0,0,0,1.53.22,1.49,1.49,0,0,0,.88-.21.64.64,0,0,0,.28-.54.59.59,0,0,0-.11-.36,1.32,1.32,0,0,0-.36-.31q-.25-.16-1.33-.64a6.35,6.35,0,0,1-1.47-.86,2.65,2.65,0,0,1-.72-1,3.18,3.18,0,0,1-.24-1.28,2.56,2.56,0,0,1,1-2.15,4.43,4.43,0,0,1,2.76-.77,7.75,7.75,0,0,1,3.17.72l-.83,2.08a6,6,0,0,0-2.42-.64,1.26,1.26,0,0,0-.77.18.56.56,0,0,0-.24.46.66.66,0,0,0,.3.53,11.54,11.54,0,0,0,1.65.85,4.56,4.56,0,0,1,1.79,1.25A2.71,2.71,0,0,1,498.74,242Z"/><path class="cls-3" d="M378.23,261.85v-10h2.7v7.81h3.85v2.18Z"/><path class="cls-3" d="M392.3,261.85l-.49-1.87h-3.25l-.51,1.87h-3l3.26-10H392l3.3,10Zm-1.05-4.09-.43-1.64q-.15-.55-.37-1.42t-.28-1.24q-.06.35-.24,1.15t-.8,3.15Z"/><path class="cls-3" d="M400.53,261.85h-2.7v-7.79h-2.44v-2.21H403v2.21h-2.43Z"/><path class="cls-3" d="M410.12,261.85h-5.93v-10h5.93V254h-3.23v1.57h3v2.17h-3v1.89h3.23Z"/><path class="cls-3" d="M418.19,258.81a3,3,0,0,1-.47,1.65,3.08,3.08,0,0,1-1.36,1.12,5,5,0,0,1-2.08.4,8.41,8.41,0,0,1-1.67-.14,6.19,6.19,0,0,1-1.41-.49v-2.41a8,8,0,0,0,1.61.62,6,6,0,0,0,1.53.22,1.49,1.49,0,0,0,.88-.21.64.64,0,0,0,.28-.54.59.59,0,0,0-.11-.36,1.32,1.32,0,0,0-.36-.31q-.25-.16-1.33-.64a6.35,6.35,0,0,1-1.47-.86,2.65,2.65,0,0,1-.72-1,3.18,3.18,0,0,1-.24-1.28,2.56,2.56,0,0,1,1-2.15,4.43,4.43,0,0,1,2.76-.77,7.75,7.75,0,0,1,3.17.72l-.83,2.08a6,6,0,0,0-2.42-.64,1.26,1.26,0,0,0-.77.18.56.56,0,0,0-.24.46.66.66,0,0,0,.3.53,11.54,11.54,0,0,0,1.65.85,4.56,4.56,0,0,1,1.79,1.25A2.71,2.71,0,0,1,418.19,258.81Z"/><path class="cls-3" d="M423.94,261.85h-2.7v-7.79H418.8v-2.21h7.57v2.21h-2.43Z"/><path class="cls-3" d="M436.63,251.85h3l-3.27,10H433.2l-3.26-10h3l1.36,5.07a15.44,15.44,0,0,1,.46,2.35q0-.48.19-1.2t.25-1.13Z"/><path class="cls-3" d="M446.45,261.85h-5.93v-10h5.93V254h-3.23v1.57h3v2.17h-3v1.89h3.23Z"/><path class="cls-3" d="M450.69,258.21v3.64H448v-10h3.27q4.07,0,4.07,3a3,3,0,0,1-1.7,2.69l2.91,4.35H453.5l-2.12-3.64Zm0-2h.51q1.42,0,1.42-1.25,0-1-1.39-1h-.53Z"/><path class="cls-3" d="M463.79,258.81a3,3,0,0,1-.47,1.65,3.08,3.08,0,0,1-1.36,1.12,5,5,0,0,1-2.08.4,8.41,8.41,0,0,1-1.67-.14,6.19,6.19,0,0,1-1.41-.49v-2.41a8,8,0,0,0,1.61.62,6,6,0,0,0,1.53.22,1.49,1.49,0,0,0,.88-.21.64.64,0,0,0,.28-.54.59.59,0,0,0-.11-.36,1.32,1.32,0,0,0-.36-.31q-.25-.16-1.33-.64a6.35,6.35,0,0,1-1.47-.86,2.65,2.65,0,0,1-.72-1,3.18,3.18,0,0,1-.24-1.28,2.56,2.56,0,0,1,1-2.15,4.43,4.43,0,0,1,2.76-.77,7.75,7.75,0,0,1,3.17.72l-.83,2.08a6,6,0,0,0-2.42-.64,1.26,1.26,0,0,0-.77.18.56.56,0,0,0-.24.46.66.66,0,0,0,.3.53,11.54,11.54,0,0,0,1.65.85,4.56,4.56,0,0,1,1.79,1.25A2.71,2.71,0,0,1,463.79,258.81Z"/><path class="cls-3" d="M465.13,261.85v-10h2.71v10Z"/><path class="cls-3" d="M479.14,256.84a5.39,5.39,0,0,1-1.24,3.83,5.62,5.62,0,0,1-7.23,0,6.48,6.48,0,0,1,0-7.65,5.66,5.66,0,0,1,7.24,0A5.39,5.39,0,0,1,479.14,256.84Zm-6.88,0q0,2.9,2,2.9a1.73,1.73,0,0,0,1.52-.7,5.11,5.11,0,0,0,0-4.41,1.72,1.72,0,0,0-1.5-.71Q472.27,253.91,472.27,256.84Z"/><path class="cls-3" d="M490.25,261.85h-3.54l-3.65-7H483q.13,1.66.13,2.54v4.5h-2.39v-10h3.53l3.64,6.95h0q-.1-1.51-.1-2.43v-4.52h2.41Z"/><path class="cls-3" d="M498.74,258.81a3,3,0,0,1-.47,1.65,3.08,3.08,0,0,1-1.36,1.12,5,5,0,0,1-2.08.4,8.41,8.41,0,0,1-1.67-.14,6.19,6.19,0,0,1-1.41-.49v-2.41a8,8,0,0,0,1.61.62,6,6,0,0,0,1.53.22,1.49,1.49,0,0,0,.88-.21A.64.64,0,0,0,496,259a.59.59,0,0,0-.11-.36,1.32,1.32,0,0,0-.36-.31q-.25-.16-1.33-.64a6.35,6.35,0,0,1-1.47-.86,2.65,2.65,0,0,1-.72-1,3.18,3.18,0,0,1-.24-1.28,2.56,2.56,0,0,1,1-2.15,4.43,4.43,0,0,1,2.76-.77,7.75,7.75,0,0,1,3.17.72l-.83,2.08a6,6,0,0,0-2.42-.64,1.26,1.26,0,0,0-.77.18.56.56,0,0,0-.24.46.66.66,0,0,0,.3.53,11.54,11.54,0,0,0,1.65.85,4.56,4.56,0,0,1,1.79,1.25A2.71,2.71,0,0,1,498.74,258.81Z"/><path class="cls-3" d="M826,174.49a1.25,1.25,0,0,1,.37-1,1.55,1.55,0,0,1,1.08-.34,1.46,1.46,0,0,1,1,.34,1.27,1.27,0,0,1,.36,1,1.25,1.25,0,0,1-.37,1,1.46,1.46,0,0,1-1,.34,1.56,1.56,0,0,1-1.07-.34A1.21,1.21,0,0,1,826,174.49Z"/><path class="cls-3" d="M829.79,174.49a1.25,1.25,0,0,1,.37-1,1.55,1.55,0,0,1,1.08-.34,1.46,1.46,0,0,1,1,.34,1.27,1.27,0,0,1,.36,1,1.25,1.25,0,0,1-.37,1,1.46,1.46,0,0,1-1,.34,1.56,1.56,0,0,1-1.07-.34A1.21,1.21,0,0,1,829.79,174.49Z"/><path class="cls-3" d="M833.63,174.49a1.25,1.25,0,0,1,.37-1,1.55,1.55,0,0,1,1.08-.34,1.46,1.46,0,0,1,1,.34,1.27,1.27,0,0,1,.36,1,1.25,1.25,0,0,1-.37,1,1.46,1.46,0,0,1-1,.34,1.56,1.56,0,0,1-1.07-.34A1.21,1.21,0,0,1,833.63,174.49Z"/><path class="cls-3" d="M842.36,175.63h-2.7v-7.79h-2.44v-2.21h7.57v2.21h-2.43Z"/><path class="cls-3" d="M855.37,170.62a5.39,5.39,0,0,1-1.24,3.83,5.62,5.62,0,0,1-7.23,0,6.48,6.48,0,0,1,0-7.65,5.66,5.66,0,0,1,7.24,0A5.39,5.39,0,0,1,855.37,170.62Zm-6.88,0q0,2.9,2,2.9a1.73,1.73,0,0,0,1.52-.7,5.12,5.12,0,0,0,0-4.41,1.72,1.72,0,0,0-1.5-.71Q848.49,167.69,848.49,170.62Z"/><path class="cls-3" d="M866.52,175.63l-.49-1.87h-3.25l-.51,1.87h-3l3.26-10h3.6l3.3,10Zm-1.05-4.09L865,169.9q-.15-.55-.37-1.42t-.28-1.24q-.06.35-.24,1.15t-.8,3.15Z"/><path class="cls-3" d="M882.34,175.63h-2.71v-4.07h-3.14v4.07h-2.71v-10h2.71v3.71h3.14v-3.71h2.71Z"/><path class="cls-3" d="M887.86,169.34l1.72-3.71h2.93l-3.29,6.09v3.9H886.5v-3.82l-3.29-6.17h2.94Z"/><path class="cls-3" d="M893.37,165.63h3.49a5.92,5.92,0,0,1,3,.61,2,2,0,0,1,1,1.88,2.38,2.38,0,0,1-.43,1.44,1.92,1.92,0,0,1-1.13.77v.07a2.33,2.33,0,0,1,1.35.82,2.48,2.48,0,0,1,.42,1.49,2.55,2.55,0,0,1-1,2.14,4.47,4.47,0,0,1-2.79.78h-3.89Zm2.7,3.83h.81a1.47,1.47,0,0,0,.9-.24.83.83,0,0,0,.32-.71q0-.84-1.27-.84h-.76Zm0,2v2.1h1q1.26,0,1.26-1.07a.92.92,0,0,0-.34-.77,1.56,1.56,0,0,0-1-.27Z"/><path class="cls-3" d="M905.3,172v3.64h-2.7v-10h3.27q4.07,0,4.07,3a3,3,0,0,1-1.7,2.69l2.91,4.35H908.1L906,172Zm0-2h.51q1.42,0,1.42-1.25,0-1-1.39-1h-.53Z"/><path class="cls-3" d="M911.86,175.63v-10h2.71v10Z"/><path class="cls-3" d="M925,170.42a5.16,5.16,0,0,1-1.38,3.86,5.29,5.29,0,0,1-3.87,1.35h-3.23v-10H920a5.22,5.22,0,0,1,3.71,1.23A4.64,4.64,0,0,1,925,170.42Zm-2.8.1a3.18,3.18,0,0,0-.54-2,2,2,0,0,0-1.65-.66h-.79v5.6h.6a2.18,2.18,0,0,0,1.8-.71A3.45,3.45,0,0,0,922.21,170.52Z"/><path class="cls-3" d="M936.55,172.59a3,3,0,0,1-.47,1.65,3.08,3.08,0,0,1-1.36,1.12,5,5,0,0,1-2.08.4,8.4,8.4,0,0,1-1.67-.14,6.18,6.18,0,0,1-1.41-.49v-2.41a8,8,0,0,0,1.61.62,6,6,0,0,0,1.53.22,1.49,1.49,0,0,0,.88-.21.64.64,0,0,0,.28-.54.59.59,0,0,0-.11-.36,1.31,1.31,0,0,0-.36-.31q-.25-.16-1.33-.64a6.35,6.35,0,0,1-1.47-.86,2.65,2.65,0,0,1-.72-1,3.18,3.18,0,0,1-.24-1.28,2.56,2.56,0,0,1,1-2.15,4.43,4.43,0,0,1,2.76-.77,7.75,7.75,0,0,1,3.17.72l-.83,2.08a6,6,0,0,0-2.42-.64,1.26,1.26,0,0,0-.77.18.56.56,0,0,0-.24.46.66.66,0,0,0,.3.53,11.56,11.56,0,0,0,1.65.85,4.56,4.56,0,0,1,1.79,1.25A2.71,2.71,0,0,1,936.55,172.59Z"/><path class="cls-3" d="M946.45,175.63h-2.71v-4.07H940.6v4.07h-2.71v-10h2.71v3.71h3.14v-3.71h2.71Z"/><path class="cls-3" d="M954.54,175.63l-.49-1.87H950.8l-.51,1.87h-3l3.26-10h3.6l3.3,10Zm-1.05-4.09-.43-1.64q-.15-.55-.37-1.42t-.28-1.24q-.06.35-.24,1.15t-.8,3.15Z"/><path class="cls-3" d="M961.06,172v3.64h-2.7v-10h3.27q4.07,0,4.07,3a3,3,0,0,1-1.7,2.69l2.91,4.35h-3.06L961.74,172Zm0-2h.51q1.42,0,1.42-1.25,0-1-1.39-1h-.53Z"/><path class="cls-3" d="M973.56,175.63h-5.93v-10h5.93v2.17h-3.23v1.57h3v2.17h-3v1.89h3.23Z"/><path class="cls-3" d="M982.35,168.81a3.35,3.35,0,0,1-1,2.59,4,4,0,0,1-2.81.91h-.76v3.32h-2.7v-10h3.46a4.22,4.22,0,0,1,2.84.83A3,3,0,0,1,982.35,168.81Zm-4.55,1.3h.49a1.35,1.35,0,0,0,1-.34,1.24,1.24,0,0,0,.36-.94q0-1-1.12-1h-.7Z"/><path class="cls-3" d="M993.08,170.62a5.39,5.39,0,0,1-1.24,3.83,5.62,5.62,0,0,1-7.23,0,6.48,6.48,0,0,1,0-7.65,5.66,5.66,0,0,1,7.24,0A5.39,5.39,0,0,1,993.08,170.62Zm-6.88,0q0,2.9,2,2.9a1.73,1.73,0,0,0,1.52-.7,5.12,5.12,0,0,0,0-4.41,1.72,1.72,0,0,0-1.5-.71Q986.21,167.69,986.21,170.62Z"/><path class="cls-3" d="M994.68,175.63v-10h2.71v10Z"/><path class="cls-3" d="M1008.86,175.63h-3.54l-3.65-7h-.06q.13,1.66.13,2.54v4.5h-2.39v-10h3.53l3.64,6.95h0q-.1-1.51-.1-2.43v-4.52h2.41Z"/><path class="cls-3" d="M1015.22,175.63h-2.7v-7.79h-2.44v-2.21h7.57v2.21h-2.43Z"/><path class="cls-3" d="M919.69,192.43h-5.93v-10h5.93v2.17h-3.23v1.57h3v2.17h-3v1.89h3.23Z"/><path class="cls-3" d="M930.75,192.43h-3.54l-3.65-7h-.06q.13,1.66.13,2.54v4.5h-2.39v-10h3.53l3.64,6.95h0q-.1-1.51-.1-2.43v-4.52h2.41Z"/><path class="cls-3" d="M938.31,182.43h3l-3.27,10h-3.18l-3.26-10h3L936,187.5a15.5,15.5,0,0,1,.46,2.35q0-.48.19-1.2t.25-1.13Z"/><path class="cls-3" d="M942.2,192.43v-10h2.71v10Z"/><path class="cls-3" d="M949.57,188.79v3.64h-2.7v-10h3.27q4.07,0,4.07,3a3,3,0,0,1-1.7,2.69l2.91,4.35h-3.06l-2.12-3.64Zm0-2h.51q1.42,0,1.42-1.25,0-1-1.39-1h-.53Z"/><path class="cls-3" d="M965.48,187.42a5.39,5.39,0,0,1-1.24,3.83,5.62,5.62,0,0,1-7.23,0,6.48,6.48,0,0,1,0-7.65,5.66,5.66,0,0,1,7.24,0A5.39,5.39,0,0,1,965.48,187.42Zm-6.88,0q0,2.9,2,2.9a1.73,1.73,0,0,0,1.52-.7,5.11,5.11,0,0,0,0-4.41,1.71,1.71,0,0,0-1.5-.71Q958.61,184.49,958.61,187.42Z"/><path class="cls-3" d="M976.59,192.43h-3.54l-3.65-7h-.06q.13,1.66.13,2.54v4.5h-2.39v-10h3.53l3.64,6.95h0q-.1-1.51-.1-2.43v-4.52h2.41Z"/><path class="cls-3" d="M982.9,192.43l-2-7.2h-.06q.14,1.84.14,2.86v4.34h-2.39v-10h3.6l2.08,7.1h.05l2-7.1h3.6v10h-2.48V188q0-.34,0-.76t.09-2h-.06l-2,7.18Z"/><path class="cls-3" d="M997.8,192.43h-5.93v-10h5.93v2.17h-3.23v1.57h3v2.17h-3v1.89h3.23Z"/><path class="cls-3" d="M1008.86,192.43h-3.54l-3.65-7h-.06q.13,1.66.13,2.54v4.5h-2.39v-10h3.53l3.64,6.95h0q-.1-1.51-.1-2.43v-4.52h2.41Z"/><path class="cls-3" d="M1015.22,192.43h-2.7v-7.79h-2.44v-2.21h7.57v2.21h-2.43Z"/><path class="cls-3" d="M231.25,10.86a1.25,1.25,0,0,1,.37-1,1.55,1.55,0,0,1,1.08-.34,1.46,1.46,0,0,1,1,.34,1.27,1.27,0,0,1,.36,1,1.25,1.25,0,0,1-.37,1,1.46,1.46,0,0,1-1,.34,1.56,1.56,0,0,1-1.07-.34A1.21,1.21,0,0,1,231.25,10.86Z"/><path class="cls-3" d="M235.09,10.86a1.25,1.25,0,0,1,.37-1,1.55,1.55,0,0,1,1.08-.34,1.46,1.46,0,0,1,1,.34,1.27,1.27,0,0,1,.36,1,1.25,1.25,0,0,1-.37,1,1.46,1.46,0,0,1-1,.34,1.56,1.56,0,0,1-1.07-.34A1.21,1.21,0,0,1,235.09,10.86Z"/><path class="cls-3" d="M238.92,10.86a1.25,1.25,0,0,1,.37-1,1.55,1.55,0,0,1,1.08-.34,1.46,1.46,0,0,1,1,.34,1.27,1.27,0,0,1,.36,1,1.25,1.25,0,0,1-.37,1,1.46,1.46,0,0,1-1,.34,1.56,1.56,0,0,1-1.07-.34A1.21,1.21,0,0,1,238.92,10.86Z"/><path class="cls-3" d="M249.34,12h-2.66V2h5.91V4.17h-3.25V6.08h3V8.24h-3Z"/><path class="cls-3" d="M256.72,8.36V12H254V2h3.27q4.07,0,4.07,3a3,3,0,0,1-1.7,2.69L262.58,12h-3.06L257.4,8.36Zm0-2h.51q1.42,0,1.42-1.25,0-1-1.39-1h-.53Z"/><path class="cls-3" d="M272.63,7a5.39,5.39,0,0,1-1.24,3.83,5.62,5.62,0,0,1-7.23,0A5.37,5.37,0,0,1,262.91,7a5.34,5.34,0,0,1,1.25-3.81,5.66,5.66,0,0,1,7.24,0A5.39,5.39,0,0,1,272.63,7Zm-6.88,0q0,2.9,2,2.9a1.73,1.73,0,0,0,1.52-.7,3.86,3.86,0,0,0,.5-2.19,3.89,3.89,0,0,0-.5-2.21,1.72,1.72,0,0,0-1.5-.71Q265.75,4.06,265.75,7Z"/><path class="cls-3" d="M278.58,12l-2-7.2h-.06q.14,1.84.14,2.86V12h-2.39V2h3.6l2.08,7.1H280L282,2h3.6V12h-2.48V7.62q0-.34,0-.76t.09-2h-.06l-2,7.18Z"/><path class="cls-3" d="M295.39,12h-2.7V4.21h-2.44V2h7.57V4.21h-2.43Z"/><path class="cls-3" d="M307.6,12h-2.71V7.92h-3.14V12H299V2h2.71V5.71h3.14V2h2.71Z"/><path class="cls-3" d="M309.55,12V2h2.71V12Z"/><path class="cls-3" d="M316.92,8.36V12h-2.7V2h3.27q4.07,0,4.07,3a3,3,0,0,1-1.7,2.69L322.78,12h-3.06L317.6,8.36Zm0-2h.51q1.42,0,1.42-1.25,0-1-1.39-1h-.53Z"/><path class="cls-3" d="M332,6.79a5.16,5.16,0,0,1-1.38,3.86A5.29,5.29,0,0,1,326.72,12h-3.23V2h3.46a5.22,5.22,0,0,1,3.72,1.23A4.64,4.64,0,0,1,332,6.79Zm-2.8.1a3.18,3.18,0,0,0-.54-2A2,2,0,0,0,327,4.18h-.79v5.6h.6a2.18,2.18,0,0,0,1.8-.71A3.45,3.45,0,0,0,329.16,6.88Z"/><path class="cls-3" d="M332.76,9.31V7.18h3.86V9.31Z"/><path class="cls-3" d="M345,5.18a3.34,3.34,0,0,1-1,2.59,4,4,0,0,1-2.81.91h-.76V12h-2.7V2h3.46a4.23,4.23,0,0,1,2.84.83A3,3,0,0,1,345,5.18Zm-4.55,1.3H341a1.35,1.35,0,0,0,1-.34,1.24,1.24,0,0,0,.36-.94q0-1-1.12-1h-.7Z"/><path class="cls-3" d="M352.56,12l-.49-1.87h-3.25L348.31,12h-3L348.6,2h3.6l3.3,10ZM351.5,7.91l-.43-1.64q-.15-.55-.37-1.42t-.28-1.24q-.06.35-.24,1.15t-.8,3.15Z"/><path class="cls-3" d="M359.08,8.36V12h-2.7V2h3.27q4.07,0,4.07,3A3,3,0,0,1,362,7.64L364.94,12h-3.06l-2.12-3.64Zm0-2h.51q1.42,0,1.42-1.25,0-1-1.39-1h-.53Z"/><path class="cls-3" d="M370.05,12h-2.7V4.21h-2.44V2h7.57V4.21h-2.43Z"/><path class="cls-3" d="M377.27,5.71,379,2h2.93l-3.29,6.09V12h-2.72V8.18L372.62,2h2.94Z"/><path class="cls-3" d="M194.47,25.76a3,3,0,0,1-.47,1.65,3.08,3.08,0,0,1-1.36,1.12,5,5,0,0,1-2.08.4,8.41,8.41,0,0,1-1.67-.14,6.19,6.19,0,0,1-1.41-.49V25.9a8,8,0,0,0,1.61.62,6,6,0,0,0,1.53.22,1.49,1.49,0,0,0,.88-.21.64.64,0,0,0,.28-.54.59.59,0,0,0-.11-.36,1.32,1.32,0,0,0-.36-.31q-.25-.16-1.33-.64a6.35,6.35,0,0,1-1.47-.86,2.65,2.65,0,0,1-.72-1,3.18,3.18,0,0,1-.24-1.28,2.56,2.56,0,0,1,1-2.15,4.43,4.43,0,0,1,2.76-.77,7.75,7.75,0,0,1,3.17.72l-.83,2.08a6,6,0,0,0-2.42-.64,1.26,1.26,0,0,0-.77.18.56.56,0,0,0-.24.46.66.66,0,0,0,.3.53,11.54,11.54,0,0,0,1.65.85A4.56,4.56,0,0,1,194,24.08,2.71,2.71,0,0,1,194.47,25.76Z"/><path class="cls-3" d="M205.15,23.79a5.39,5.39,0,0,1-1.24,3.83,5.62,5.62,0,0,1-7.23,0,5.37,5.37,0,0,1-1.25-3.84A5.34,5.34,0,0,1,196.68,20a5.66,5.66,0,0,1,7.24,0A5.39,5.39,0,0,1,205.15,23.79Zm-6.88,0q0,2.9,2,2.9a1.73,1.73,0,0,0,1.52-.7,3.86,3.86,0,0,0,.5-2.19,3.89,3.89,0,0,0-.5-2.21,1.72,1.72,0,0,0-1.5-.71Q198.28,20.86,198.28,23.79Z"/><path class="cls-3" d="M206.75,28.8v-10h2.7v7.81h3.85V28.8Z"/><path class="cls-3" d="M223.18,18.8v6a4,4,0,0,1-1.11,3,4.42,4.42,0,0,1-3.2,1.08,4.38,4.38,0,0,1-3.14-1,4,4,0,0,1-1.1-3V18.8h2.71v5.87a2.41,2.41,0,0,0,.4,1.54,1.71,1.71,0,0,0,2.37,0,2.54,2.54,0,0,0,.37-1.55V18.8Z"/><path class="cls-3" d="M229.48,28.8h-2.7V21h-2.44V18.8h7.57V21h-2.43Z"/><path class="cls-3" d="M233.13,28.8v-10h2.71v10Z"/><path class="cls-3" d="M247.15,23.79a5.39,5.39,0,0,1-1.24,3.83,5.62,5.62,0,0,1-7.23,0,5.37,5.37,0,0,1-1.25-3.84A5.34,5.34,0,0,1,238.67,20a5.66,5.66,0,0,1,7.24,0A5.39,5.39,0,0,1,247.15,23.79Zm-6.88,0q0,2.9,2,2.9a1.73,1.73,0,0,0,1.52-.7,3.86,3.86,0,0,0,.5-2.19,3.89,3.89,0,0,0-.5-2.21,1.72,1.72,0,0,0-1.5-.71Q240.27,20.86,240.27,23.79Z"/><path class="cls-3" d="M258.26,28.8h-3.54l-3.65-7H251q.13,1.66.13,2.54v4.5h-2.39v-10h3.53l3.64,6.95h0q-.1-1.51-.1-2.43V18.8h2.41Z"/><path class="cls-3" d="M266.74,25.76a3,3,0,0,1-.47,1.65,3.08,3.08,0,0,1-1.36,1.12,5,5,0,0,1-2.08.4,8.41,8.41,0,0,1-1.67-.14,6.19,6.19,0,0,1-1.41-.49V25.9a8,8,0,0,0,1.61.62,6,6,0,0,0,1.53.22,1.49,1.49,0,0,0,.88-.21A.64.64,0,0,0,264,26a.59.59,0,0,0-.11-.36,1.32,1.32,0,0,0-.36-.31q-.25-.16-1.33-.64a6.35,6.35,0,0,1-1.47-.86,2.65,2.65,0,0,1-.72-1,3.18,3.18,0,0,1-.24-1.28,2.56,2.56,0,0,1,1-2.15,4.43,4.43,0,0,1,2.76-.77,7.75,7.75,0,0,1,3.17.72l-.83,2.08a6,6,0,0,0-2.42-.64,1.26,1.26,0,0,0-.77.18.56.56,0,0,0-.24.46.66.66,0,0,0,.3.53,11.54,11.54,0,0,0,1.65.85,4.56,4.56,0,0,1,1.79,1.25A2.71,2.71,0,0,1,266.74,25.76Z"/><path class="cls-3" d="M275.91,28.8h-2.7V21h-2.44V18.8h7.57V21h-2.43Z"/><path class="cls-3" d="M288.92,23.79a5.39,5.39,0,0,1-1.24,3.83,5.62,5.62,0,0,1-7.23,0,5.37,5.37,0,0,1-1.25-3.84A5.34,5.34,0,0,1,280.44,20a5.66,5.66,0,0,1,7.24,0A5.39,5.39,0,0,1,288.92,23.79Zm-6.88,0q0,2.9,2,2.9a1.73,1.73,0,0,0,1.52-.7,3.86,3.86,0,0,0,.5-2.19,3.89,3.89,0,0,0-.5-2.21,1.72,1.72,0,0,0-1.5-.71Q282,20.86,282,23.79Z"/><path class="cls-3" d="M300.47,25.76a3,3,0,0,1-.47,1.65,3.08,3.08,0,0,1-1.36,1.12,5,5,0,0,1-2.08.4,8.41,8.41,0,0,1-1.67-.14,6.19,6.19,0,0,1-1.41-.49V25.9a8,8,0,0,0,1.61.62,6,6,0,0,0,1.53.22,1.49,1.49,0,0,0,.88-.21.64.64,0,0,0,.28-.54.59.59,0,0,0-.11-.36,1.32,1.32,0,0,0-.36-.31q-.25-.16-1.33-.64a6.35,6.35,0,0,1-1.47-.86,2.65,2.65,0,0,1-.72-1,3.18,3.18,0,0,1-.24-1.28,2.56,2.56,0,0,1,1-2.15,4.43,4.43,0,0,1,2.76-.77,7.75,7.75,0,0,1,3.17.72l-.83,2.08a6,6,0,0,0-2.42-.64,1.26,1.26,0,0,0-.77.18.56.56,0,0,0-.24.46.66.66,0,0,0,.3.53,11.54,11.54,0,0,0,1.65.85A4.56,4.56,0,0,1,300,24.08,2.71,2.71,0,0,1,300.47,25.76Z"/><path class="cls-3" d="M310.38,28.8h-2.71V24.72h-3.14V28.8h-2.71v-10h2.71v3.71h3.14V18.8h2.71Z"/><path class="cls-3" d="M318.46,28.8,318,26.92h-3.25l-.51,1.87h-3l3.26-10h3.6l3.3,10Zm-1.05-4.09L317,23.07q-.15-.55-.37-1.42t-.28-1.24q-.06.35-.24,1.15t-.8,3.15Z"/><path class="cls-3" d="M325,25.16V28.8h-2.7v-10h3.27q4.07,0,4.07,3a3,3,0,0,1-1.7,2.69l2.91,4.35h-3.06l-2.12-3.64Zm0-2h.51q1.42,0,1.42-1.25,0-1-1.39-1H325Z"/><path class="cls-3" d="M337.48,28.8h-5.93v-10h5.93V21h-3.23v1.57h3v2.17h-3V26.6h3.23Z"/><path class="cls-3" d="M346.27,22a3.34,3.34,0,0,1-1,2.59,4,4,0,0,1-2.81.91h-.76V28.8H339v-10h3.46a4.23,4.23,0,0,1,2.84.83A3,3,0,0,1,346.27,22Zm-4.55,1.3h.49a1.35,1.35,0,0,0,1-.34,1.24,1.24,0,0,0,.36-.94q0-1-1.12-1h-.7Z"/><path class="cls-3" d="M357,23.79a5.39,5.39,0,0,1-1.24,3.83,5.62,5.62,0,0,1-7.23,0,5.37,5.37,0,0,1-1.25-3.84A5.34,5.34,0,0,1,348.53,20a5.66,5.66,0,0,1,7.24,0A5.39,5.39,0,0,1,357,23.79Zm-6.88,0q0,2.9,2,2.9a1.73,1.73,0,0,0,1.52-.7,3.86,3.86,0,0,0,.5-2.19,3.89,3.89,0,0,0-.5-2.21,1.72,1.72,0,0,0-1.5-.71Q350.13,20.86,350.13,23.79Z"/><path class="cls-3" d="M358.6,28.8v-10h2.71v10Z"/><path class="cls-3" d="M372.78,28.8h-3.54l-3.65-7h-.06q.13,1.66.13,2.54v4.5h-2.39v-10h3.53l3.64,6.95h0q-.1-1.51-.1-2.43V18.8h2.41Z"/><path class="cls-3" d="M379.14,28.8h-2.7V21H374V18.8h7.57V21h-2.43Z"/><path class="cls-3" d="M796.51,11.72a1.25,1.25,0,0,1,.37-1,1.55,1.55,0,0,1,1.08-.34,1.46,1.46,0,0,1,1,.34,1.27,1.27,0,0,1,.36,1,1.25,1.25,0,0,1-.37,1,1.46,1.46,0,0,1-1,.34,1.56,1.56,0,0,1-1.07-.34A1.21,1.21,0,0,1,796.51,11.72Z"/><path class="cls-3" d="M800.34,11.72a1.25,1.25,0,0,1,.37-1,1.55,1.55,0,0,1,1.08-.34,1.46,1.46,0,0,1,1,.34,1.27,1.27,0,0,1,.36,1,1.24,1.24,0,0,1-.37,1,1.46,1.46,0,0,1-1,.34,1.56,1.56,0,0,1-1.07-.34A1.21,1.21,0,0,1,800.34,11.72Z"/><path class="cls-3" d="M804.18,11.72a1.25,1.25,0,0,1,.37-1,1.55,1.55,0,0,1,1.08-.34,1.46,1.46,0,0,1,1,.34,1.27,1.27,0,0,1,.36,1,1.25,1.25,0,0,1-.37,1,1.46,1.46,0,0,1-1,.34,1.56,1.56,0,0,1-1.07-.34A1.21,1.21,0,0,1,804.18,11.72Z"/><path class="cls-3" d="M812.92,12.85h-2.7V5.07h-2.44V2.86h7.57V5.07h-2.43Z"/><path class="cls-3" d="M825.92,7.84a5.39,5.39,0,0,1-1.24,3.83,5.62,5.62,0,0,1-7.23,0,5.37,5.37,0,0,1-1.25-3.84A5.34,5.34,0,0,1,817.45,4a5.66,5.66,0,0,1,7.24,0A5.39,5.39,0,0,1,825.92,7.84Zm-6.88,0q0,2.9,2,2.9a1.73,1.73,0,0,0,1.52-.7,3.86,3.86,0,0,0,.5-2.19,3.88,3.88,0,0,0-.5-2.21,1.71,1.71,0,0,0-1.5-.71Q819,4.92,819,7.84Z"/><path class="cls-3" d="M837.48,9.82a3,3,0,0,1-.47,1.65,3.08,3.08,0,0,1-1.36,1.12,5,5,0,0,1-2.08.4,8.4,8.4,0,0,1-1.67-.14,6.18,6.18,0,0,1-1.41-.49V10a8,8,0,0,0,1.61.62,6,6,0,0,0,1.53.22,1.49,1.49,0,0,0,.88-.21.64.64,0,0,0,.28-.54.59.59,0,0,0-.11-.36,1.31,1.31,0,0,0-.36-.31q-.25-.16-1.33-.64a6.35,6.35,0,0,1-1.47-.86,2.66,2.66,0,0,1-.72-1,3.19,3.19,0,0,1-.24-1.28,2.56,2.56,0,0,1,1-2.15,4.43,4.43,0,0,1,2.76-.77,7.75,7.75,0,0,1,3.17.72l-.83,2.08a6,6,0,0,0-2.42-.64,1.26,1.26,0,0,0-.77.18.56.56,0,0,0-.24.46.66.66,0,0,0,.3.53,11.62,11.62,0,0,0,1.65.85A4.55,4.55,0,0,1,837,8.14,2.7,2.7,0,0,1,837.48,9.82Z"/><path class="cls-3" d="M847.38,12.85h-2.71V8.78h-3.14v4.07h-2.71v-10h2.71V6.56h3.14V2.86h2.71Z"/><path class="cls-3" d="M855.46,12.85,855,11h-3.25l-.51,1.87h-3l3.26-10h3.6l3.3,10Zm-1.05-4.09L854,7.13q-.15-.55-.37-1.42t-.28-1.24q-.06.35-.24,1.15t-.8,3.15Z"/><path class="cls-3" d="M862,9.22v3.64h-2.7v-10h3.27q4.08,0,4.07,3a3,3,0,0,1-1.7,2.69l2.91,4.35h-3.06l-2.12-3.64Zm0-2h.51q1.42,0,1.42-1.25,0-1-1.39-1H862Z"/><path class="cls-3" d="M874.48,12.85h-5.93v-10h5.93V5h-3.23V6.6h3V8.77h-3v1.89h3.23Z"/><path class="cls-3" d="M883.28,6a3.34,3.34,0,0,1-1,2.59,4,4,0,0,1-2.81.91h-.76v3.32H876v-10h3.46a4.23,4.23,0,0,1,2.84.83A3,3,0,0,1,883.28,6Zm-4.55,1.3h.49a1.35,1.35,0,0,0,1-.34,1.24,1.24,0,0,0,.36-.94q0-1-1.12-1h-.7Z"/><path class="cls-3" d="M894,7.84a5.39,5.39,0,0,1-1.24,3.83,5.62,5.62,0,0,1-7.23,0,5.37,5.37,0,0,1-1.25-3.84A5.33,5.33,0,0,1,885.54,4a5.66,5.66,0,0,1,7.24,0A5.39,5.39,0,0,1,894,7.84Zm-6.88,0q0,2.9,2,2.9a1.73,1.73,0,0,0,1.52-.7,3.85,3.85,0,0,0,.5-2.19,3.89,3.89,0,0,0-.5-2.21,1.71,1.71,0,0,0-1.5-.71Q887.13,4.92,887.13,7.84Z"/><path class="cls-3" d="M895.61,12.85v-10h2.71v10Z"/><path class="cls-3" d="M909.79,12.85h-3.54l-3.65-7h-.06q.13,1.66.13,2.54v4.5h-2.39v-10h3.53l3.64,6.95h0q-.1-1.51-.1-2.43V2.86h2.41Z"/><path class="cls-3" d="M916.15,12.85h-2.7V5.07H911V2.86h7.57V5.07h-2.43Z"/><path class="cls-3" d="M788.33,24.64a5.39,5.39,0,0,1-1.24,3.83,5.62,5.62,0,0,1-7.23,0,5.37,5.37,0,0,1-1.25-3.84,5.34,5.34,0,0,1,1.25-3.81,5.66,5.66,0,0,1,7.24,0A5.39,5.39,0,0,1,788.33,24.64Zm-6.88,0q0,2.9,2,2.9a1.73,1.73,0,0,0,1.52-.7,3.86,3.86,0,0,0,.5-2.19,3.88,3.88,0,0,0-.5-2.21,1.71,1.71,0,0,0-1.5-.71Q781.45,21.72,781.45,24.64Z"/><path class="cls-3" d="M799.44,29.65H795.9l-3.65-7h-.06q.13,1.66.13,2.54v4.5h-2.39v-10h3.53l3.64,6.95h0q-.1-1.51-.1-2.43V19.66h2.41Z"/><path class="cls-3" d="M801.39,29.65v-10h2.7v7.81h3.85v2.18Z"/><path class="cls-3" d="M809.32,29.65v-10H812v10Z"/><path class="cls-3" d="M823.5,29.65H820l-3.65-7h-.06q.13,1.66.13,2.54v4.5H814v-10h3.53l3.64,6.95h0q-.1-1.51-.1-2.43V19.66h2.41Z"/><path class="cls-3" d="M831.39,29.65h-5.93v-10h5.93v2.17h-3.23V23.4h3v2.17h-3v1.89h3.23Z"/><path class="cls-3" d="M841.43,19.52l-3.73,10.27h-2.37l3.73-10.27Z"/><path class="cls-3" d="M855.11,24.64a5.39,5.39,0,0,1-1.24,3.83,5.62,5.62,0,0,1-7.23,0,5.37,5.37,0,0,1-1.25-3.84,5.34,5.34,0,0,1,1.25-3.81,5.66,5.66,0,0,1,7.24,0A5.39,5.39,0,0,1,855.11,24.64Zm-6.88,0q0,2.9,2,2.9a1.73,1.73,0,0,0,1.52-.7,3.86,3.86,0,0,0,.5-2.19,3.88,3.88,0,0,0-.5-2.21,1.72,1.72,0,0,0-1.5-.71Q848.23,21.72,848.23,24.64Z"/><path class="cls-3" d="M859.36,29.65H856.7v-10h5.91v2.17h-3.25v1.91h3V25.9h-3Z"/><path class="cls-3" d="M866.7,29.65H864v-10h5.91v2.17H866.7v1.91h3V25.9h-3Z"/><path class="cls-3" d="M871.38,29.65v-10h2.71v10Z"/><path class="cls-3" d="M880.49,21.73a1.72,1.72,0,0,0-1.5.79,3.81,3.81,0,0,0-.54,2.18q0,2.88,2.2,2.88a4.5,4.5,0,0,0,1.29-.18,13,13,0,0,0,1.25-.44v2.28a6.92,6.92,0,0,1-2.83.55,4.48,4.48,0,0,1-3.47-1.31,5.41,5.41,0,0,1-1.21-3.79,6.05,6.05,0,0,1,.58-2.73,4.18,4.18,0,0,1,1.68-1.81,5.09,5.09,0,0,1,2.58-.63,7.1,7.1,0,0,1,3.1.7l-.83,2.13a9.3,9.3,0,0,0-1.11-.44A3.88,3.88,0,0,0,880.49,21.73Z"/><path class="cls-3" d="M890.85,29.65h-5.93v-10h5.93v2.17h-3.23V23.4h3v2.17h-3v1.89h3.23Z"/><path class="cls-3" d="M902.07,21.83a2.38,2.38,0,0,1-.57,1.6,3.23,3.23,0,0,1-1.64,1v0q2.5.31,2.5,2.37a2.56,2.56,0,0,1-1.1,2.19,5.15,5.15,0,0,1-3.07.8,9,9,0,0,1-1.49-.12,7.78,7.78,0,0,1-1.49-.42V27a5.88,5.88,0,0,0,1.34.5,5.48,5.48,0,0,0,1.25.16,2.57,2.57,0,0,0,1.29-.25.85.85,0,0,0,.41-.78.88.88,0,0,0-.21-.63,1.37,1.37,0,0,0-.68-.33,5.4,5.4,0,0,0-1.23-.11h-.62v-2h.63q2.06,0,2.06-1.05a.65.65,0,0,0-.3-.59,1.52,1.52,0,0,0-.82-.19,3.74,3.74,0,0,0-2,.64l-1.12-1.8a5.47,5.47,0,0,1,1.62-.78,7.07,7.07,0,0,1,1.9-.23,4.2,4.2,0,0,1,2.43.62A2,2,0,0,1,902.07,21.83Z"/><path class="cls-3" d="M903.21,25.43a8.15,8.15,0,0,1,.6-3.39,4,4,0,0,1,1.76-1.91,6.1,6.1,0,0,1,2.88-.62,10.28,10.28,0,0,1,1.42.12v2.11a7.94,7.94,0,0,0-1.48-.13,2.94,2.94,0,0,0-2,.59,2.67,2.67,0,0,0-.72,1.94h.08a2.08,2.08,0,0,1,2-1.16,2.58,2.58,0,0,1,2.07.86,3.55,3.55,0,0,1,.73,2.39,3.57,3.57,0,0,1-.93,2.6,4,4,0,0,1-5.37-.2A4.74,4.74,0,0,1,903.21,25.43Zm3.71,2.22a.87.87,0,0,0,.7-.33,1.6,1.6,0,0,0,.27-1q0-1.22-.94-1.22a1,1,0,0,0-.76.31,1.09,1.09,0,0,0-.29.77,1.9,1.9,0,0,0,.28,1.08A.85.85,0,0,0,906.91,27.65Z"/><path class="cls-3" d="M915.26,23.1a3,3,0,0,1,1.56.4,2.76,2.76,0,0,1,1.08,1.13,3.57,3.57,0,0,1,.39,1.69,3.26,3.26,0,0,1-1,2.57,4.49,4.49,0,0,1-3.05.9,6.53,6.53,0,0,1-2.86-.54V27a7.15,7.15,0,0,0,1.34.45,5.73,5.73,0,0,0,1.29.18,1.83,1.83,0,0,0,1.15-.32,1.12,1.12,0,0,0,.4-.94,1.07,1.07,0,0,0-.41-.9,2,2,0,0,0-1.24-.32,4.49,4.49,0,0,0-1.37.24l-1-.49.38-5.28h5.7v2.25h-3.4l-.12,1.32a6.36,6.36,0,0,1,.76-.11Z"/><path class="cls-8" d="M439.11,72.12l-3.65-12.85h-.11q.26,3.28.26,5.1v7.75h-4.27V54.28h6.42l3.72,12.67h.1l3.65-12.67h6.43V72.12h-4.43V64.3q0-.61,0-1.36t.16-3.65h-.11l-3.6,12.83Z"/><path class="cls-8" d="M455.5,72.12V54.28h4.85V72.12Z"/><path class="cls-8" d="M471.37,61.67h7.7v9.62a21.19,21.19,0,0,1-6.9,1.07A8.34,8.34,0,0,1,465.8,70q-2.25-2.39-2.25-6.82A9,9,0,0,1,466,56.43,9.48,9.48,0,0,1,472.92,54a15.27,15.27,0,0,1,3.18.32,13.41,13.41,0,0,1,2.61.8l-1.53,3.79a9.44,9.44,0,0,0-4.24-1,4,4,0,0,0-3.27,1.37,5.94,5.94,0,0,0-1.15,3.92,6,6,0,0,0,1,3.81,3.62,3.62,0,0,0,3,1.31,8.82,8.82,0,0,0,2-.21V65.4h-3.19Z"/><path class="cls-8" d="M487.53,65.63v6.49h-4.82V54.28h5.85q7.28,0,7.28,5.27a5.27,5.27,0,0,1-3,4.8l5.2,7.78h-5.47l-3.78-6.49Zm0-3.62h.9Q491,62,491,59.77q0-1.84-2.48-1.84h-1Z"/><path class="cls-8" d="M510.58,72.12l-.88-3.34h-5.8l-.9,3.34h-5.3l5.82-17.92H510l5.9,17.92Zm-1.88-7.3-.77-2.93q-.27-1-.65-2.53t-.51-2.22q-.11.62-.43,2.05t-1.43,5.63Z"/><path class="cls-8" d="M525.65,72.12h-4.82V58.22h-4.36V54.28H530v3.94h-4.35Z"/><path class="cls-8" d="M532.55,72.12V54.28h4.85V72.12Z"/><path class="cls-8" d="M558,63.18q0,4.5-2.21,6.85t-6.47,2.34A8.46,8.46,0,0,1,542.84,70q-2.24-2.36-2.24-6.86t2.23-6.8Q545.05,54,549.3,54t6.46,2.33Q558,58.66,558,63.18Zm-12.28,0q0,5.18,3.6,5.18A3.1,3.1,0,0,0,552,67.09a6.89,6.89,0,0,0,.88-3.92,6.93,6.93,0,0,0-.9-3.95A3.06,3.06,0,0,0,549.3,58Q545.67,58,545.67,63.18Z"/><path class="cls-8" d="M578.17,72.12h-6.32l-6.52-12.57h-.11q.23,3,.23,4.53v8h-4.27V54.28h6.3L574,66.68H574q-.17-2.7-.17-4.33V54.28h4.3Z"/><path class="cls-8" d="M581.15,60.45a2.21,2.21,0,0,1,.67-1.72,2.77,2.77,0,0,1,1.93-.61,2.6,2.6,0,0,1,1.86.61,2.59,2.59,0,0,1,0,3.44,2.58,2.58,0,0,1-1.84.62,2.73,2.73,0,0,1-1.92-.62A2.22,2.22,0,0,1,581.15,60.45Zm0,9.64a2.23,2.23,0,0,1,.67-1.73,2.77,2.77,0,0,1,1.94-.61,2.6,2.6,0,0,1,1.86.61,2.27,2.27,0,0,1,.65,1.73,2.22,2.22,0,0,1-.67,1.71,2.6,2.6,0,0,1-1.84.62,2.79,2.79,0,0,1-1.9-.61A2.17,2.17,0,0,1,581.15,70.1Z"/><path id="_Compound_Path_" data-name=" Compound Path " class="cls-10" d="M938.62,25.38l3,1.28a27.94,27.94,0,0,0,0,6.77l-2.93,1.28a3.6,3.6,0,0,0-2,4.76c0,.09.09.18.09.27l1.74,3.93a3.6,3.6,0,0,0,4.76,2c.09,0,.18-.09.27-.09l2.93-1.28a40.46,40.46,0,0,0,4.85,4.85l-1.28,3A3.8,3.8,0,0,0,952,57.13l3.84,1.46a3.92,3.92,0,0,0,4.94-1.92l1.28-3a27.93,27.93,0,0,0,6.77,0l1.28,2.93a3.6,3.6,0,0,0,4.76,2c.09,0,.18-.09.27-.09l3.93-1.74a3.6,3.6,0,0,0,2-4.76c0-.09-.09-.18-.09-.27L979.7,48.8A40.45,40.45,0,0,0,984.55,44l2.84,1.28a3.92,3.92,0,0,0,4.94-1.92l1.46-3.84a3.63,3.63,0,0,0-.09-2.93,3.22,3.22,0,0,0-2-1.92l-3-1.28a27.94,27.94,0,0,0,0-6.77l2.93-1.46a3.6,3.6,0,0,0,2-4.76c0-.09-.09-.18-.09-.27l-1.74-3.84a3.6,3.6,0,0,0-4.76-2c-.09,0-.18.09-.27.09l-2.93,1.28A40.46,40.46,0,0,0,979,10.74l1.28-3a3.3,3.3,0,0,0-.09-2.93,3.22,3.22,0,0,0-2-1.92L974.4,1.23a3.3,3.3,0,0,0-2.93.09,3.22,3.22,0,0,0-1.92,2l-1.28,3.11a27.93,27.93,0,0,0-6.77,0l-1.19-2.93a3.6,3.6,0,0,0-4.76-2c-.09,0-.18.09-.27.09l-3.93,1.74a3.6,3.6,0,0,0-2,4.76c0,.09.09.18.09.27l1.83,2.74A40.45,40.45,0,0,0,946.4,16l-3-1.19a3.3,3.3,0,0,0-2.93.09,3.22,3.22,0,0,0-1.92,2l-1.46,3.84a3.1,3.1,0,0,0,1.56,4.67Zm20.86-9.15a14.81,14.81,0,0,1,19.4,7.69,14.88,14.88,0,0,1-7.78,19.49h0a14.81,14.81,0,0,1-19.4-7.69,14.56,14.56,0,0,1,7.5-19.31C959.39,16.23,959.48,16.23,959.48,16.23Z"/><rect class="cls-8" x="958.84" y="39.84" width="12.81" height="4.57"/><rect class="cls-8" x="958.84" y="45.33" width="12.81" height="2.74"/><polygon class="cls-8" points="958.84 28.86 958.84 37.09 971.65 37.09 971.65 28.86 981.53 28.86 965.52 10.56 949.42 28.86 958.84 28.86"/><path class="cls-2" d="M16.56,194a11.33,11.33,0,0,0-1.25,3.16l-3.15.16,0,3.44,3.25.32a9.73,9.73,0,0,0,1.24,3.25l-2,2.47,2.25,2.57,2.55-2.1a11.33,11.33,0,0,0,3.16,1.25l.16,3.15,3.44,0,.32-3.25a9.73,9.73,0,0,0,3.25-1.24l2.47,2,2.57-2.25-2.1-2.55A11.33,11.33,0,0,0,34,201.23l3.15-.16,0-3.44-3.25-.32a9.73,9.73,0,0,0-1.24-3.25l2-2.47L32.39,189l-2.55,2.1a11.33,11.33,0,0,0-3.16-1.25l-.16-3.15-3.44,0-.32,3.25a9.73,9.73,0,0,0-3.25,1.24l-2.47-2-2.57,2.25Zm6,3.06a3.63,3.63,0,0,1,4.5.11,2.7,2.7,0,0,1-.12,4,3.63,3.63,0,0,1-4.5-.11A2.48,2.48,0,0,1,22.52,197.09Z"/><path class="cls-2" d="M370.14,187.63a11.33,11.33,0,0,0-1.25,3.16l-3.15.16,0,3.44,3.25.32a9.73,9.73,0,0,0,1.24,3.25l-2,2.47L370.5,203l2.55-2.1a11.33,11.33,0,0,0,3.16,1.25l.16,3.15,3.44,0,.32-3.25a9.73,9.73,0,0,0,3.25-1.24l2.47,2,2.57-2.25-2.1-2.55a11.33,11.33,0,0,0,1.25-3.16l3.15-.16,0-3.44-3.25-.32a9.73,9.73,0,0,0-1.24-3.25l2-2.47L386,182.62l-2.55,2.1a11.33,11.33,0,0,0-3.16-1.25l-.16-3.15-3.44,0-.32,3.25a9.73,9.73,0,0,0-3.25,1.24l-2.47-2L368,185.07Zm6,3.06a3.63,3.63,0,0,1,4.5.11,2.7,2.7,0,0,1-.12,4,3.63,3.63,0,0,1-4.5-.11A2.48,2.48,0,0,1,376.1,190.69Z"/><path class="cls-2" d="M846.67,245.48a11.33,11.33,0,0,0-1.25,3.16l-3.15.16,0,3.44,3.25.32a9.73,9.73,0,0,0,1.24,3.25l-2,2.47,2.25,2.57,2.55-2.1a11.33,11.33,0,0,0,3.16,1.25l.16,3.15,3.44,0,.32-3.25a9.73,9.73,0,0,0,3.25-1.24l2.47,2,2.57-2.25-2.1-2.55a11.33,11.33,0,0,0,1.25-3.16l3.15-.16,0-3.44-3.25-.32a9.73,9.73,0,0,0-1.24-3.25l2-2.47-2.25-2.57-2.55,2.1a11.33,11.33,0,0,0-3.16-1.25l-.16-3.15-3.44,0-.32,3.25a9.73,9.73,0,0,0-3.25,1.24l-2.47-2-2.57,2.25Zm6,3.06a3.63,3.63,0,0,1,4.5.11,2.7,2.7,0,0,1-.12,4,3.63,3.63,0,0,1-4.5-.11A2.48,2.48,0,0,1,852.63,248.54Z"/><path class="cls-2" d="M679,31.91a11.33,11.33,0,0,0-1.25,3.16l-3.15.16,0,3.44,3.25.32a9.73,9.73,0,0,0,1.24,3.25l-2,2.47,2.25,2.57,2.55-2.1a11.33,11.33,0,0,0,3.16,1.25l.16,3.15,3.44,0,.32-3.25a9.73,9.73,0,0,0,3.25-1.24l2.47,2,2.57-2.25-2.1-2.55a11.33,11.33,0,0,0,1.25-3.16l3.15-.16,0-3.44-3.25-.32a9.73,9.73,0,0,0-1.24-3.25l2-2.47-2.25-2.57L692.28,29a11.33,11.33,0,0,0-3.16-1.25L689,24.6l-3.44,0-.32,3.25a9.73,9.73,0,0,0-3.25,1.24l-2.47-2-2.57,2.25ZM685,35a3.63,3.63,0,0,1,4.5.11,2.7,2.7,0,0,1-.12,4,3.63,3.63,0,0,1-4.5-.11A2.48,2.48,0,0,1,685,35Z"/></g></svg>