<?xml version="1.0" encoding="utf-8"?>
<!-- Generator: Adobe Illustrator 21.1.0, SVG Export Plug-In . SVG Version: 6.00 Build 0)  -->
<svg version="1.1" id="Layer_1" xmlns="http://www.w3.org/2000/svg" xmlns:xlink="http://www.w3.org/1999/xlink" x="0px" y="0px"
	 viewBox="0 0 960 280" style="enable-background:new 0 0 960 280;" xml:space="preserve">
<style type="text/css">
	.st0{fill:none;stroke:#EAEAEA;stroke-width:4;stroke-miterlimit:10;}
	.st1{fill:none;stroke:#EAEAEA;stroke-width:4;stroke-miterlimit:10;stroke-dasharray:11.1801,8.9441;}
	.st2{fill:none;stroke:#EAEAEA;stroke-width:4;stroke-miterlimit:10;stroke-dasharray:11.5736,9.2589;}
	.st3{fill:#D6EEFC;}
	.st4{fill:#005EB8;}
	.st5{fill:#0A84F2;}
	.st6{fill:#70BEF2;}
	.st7{fill:#37C6D0;}
	.st8{fill:#FBB040;}
	.st9{fill:#02355E;}
	.st10{fill:#146BB2;}
	.st11{fill:#FFFFFF;}
	.st12{fill:#EAEAEA;}
	.st13{fill:#ED8B00;}
	.st14{fill:#1A9BA1;}
	.st15{fill:#036C70;}
	.st16{opacity:0.1;enable-background:new    ;}
	.st17{opacity:0.2;enable-background:new    ;}
	.st18{fill:#03787C;}
	.st19{fill:none;stroke:#FFFFFF;stroke-width:5;stroke-miterlimit:10;}
	.st20{fill:none;stroke:#70BEF2;stroke-width:3;stroke-miterlimit:10;}
	.st21{fill:#F4F4F4;}
	.st22{fill:none;stroke:#EAEAEA;stroke-width:4;stroke-miterlimit:10;stroke-dasharray:10,8;}
	.st23{fill:#EAEAEA;stroke:#EAEAEA;stroke-miterlimit:10;}
	.st24{fill:none;stroke:#005EB8;stroke-width:3;stroke-miterlimit:10;}
	.st25{fill:none;stroke:#ED8B00;stroke-width:3;stroke-miterlimit:10;}
	.st26{fill:#9AD9FC;}
</style>
<g id="color_palette">
</g>
<g id="design">
	<g>
		<g>
			<line class="st0" x1="47.3" y1="118.8" x2="47.3" y2="123.8"/>
			<line class="st1" x1="47.3" y1="132.7" x2="47.3" y2="168.5"/>
			<polyline class="st0" points="47.3,173 47.3,178 52.3,178 			"/>
			<line class="st2" x1="61.6" y1="178" x2="98.6" y2="178"/>
			<line class="st0" x1="103.2" y1="178" x2="108.2" y2="178"/>
		</g>
	</g>
	<g>
		<rect x="232.3" class="st3" width="166.6" height="203.5"/>
		<rect x="232.3" class="st4" width="166.6" height="13.2"/>
		<rect x="246.5" y="41.7" class="st4" width="19.7" height="3.4"/>
		<rect x="246.5" y="189.2" class="st4" width="19.7" height="3.4"/>
		<rect x="301.7" y="51.6" class="st5" width="41.8" height="3.4"/>
		<rect x="252.9" y="51.6" class="st6" width="40.9" height="3.4"/>
		<rect x="280.6" y="58.4" class="st4" width="28" height="3.4"/>
		<rect x="259.9" y="58.4" class="st7" width="13.6" height="3.4"/>
		<rect x="329.4" y="65.1" class="st6" width="27.7" height="3.4"/>
		<rect x="309.1" y="65.1" class="st7" width="13" height="3.4"/>
		<rect x="266.9" y="65.1" class="st6" width="34.3" height="3.4"/>
		<rect x="322.1" y="71.9" class="st6" width="63.1" height="3.4"/>
		<rect x="274.1" y="71.9" class="st6" width="41.5" height="3.4"/>
		<rect x="246.5" y="82.9" class="st4" width="26.2" height="3.4"/>
		<rect x="252.9" y="89.7" class="st6" width="27.7" height="3.4"/>
		<rect x="273.8" y="101.6" class="st6" width="47.7" height="3.4"/>
		<rect x="246.5" y="101.6" class="st6" width="20.2" height="3.4"/>
		<rect x="252.9" y="108.3" class="st4" width="47.5" height="3.4"/>
		<rect x="322.8" y="115.1" class="st4" width="19.8" height="3.4"/>
		<rect x="288" y="115.1" class="st6" width="27.6" height="3.4"/>
		<rect x="260.4" y="115.1" class="st6" width="19.6" height="3.4"/>
		<rect x="315.6" y="121.9" class="st6" width="41.6" height="3.4"/>
		<rect x="280.9" y="121.9" class="st6" width="27.6" height="3.4"/>
		<rect x="266.2" y="121.9" class="st7" width="8.1" height="3.4"/>
		<rect x="273.8" y="128.7" class="st6" width="49.6" height="3.4"/>
		<rect x="288.1" y="140.9" class="st6" width="83.2" height="3.4"/>
		<rect x="252.9" y="140.9" class="st8" width="27.1" height="3.4"/>
		<rect x="308.4" y="147.7" class="st6" width="34.4" height="3.4"/>
		<rect x="259.7" y="147.7" class="st4" width="41.4" height="3.4"/>
		<rect x="267.4" y="154.4" class="st6" width="54.7" height="3.4"/>
		<rect x="259.7" y="165.3" class="st6" width="68.8" height="3.4"/>
		<rect x="329.8" y="172.1" class="st4" width="54.7" height="3.4"/>
		<rect x="308.1" y="172.1" class="st7" width="14" height="3.4"/>
		<rect x="267.4" y="172.1" class="st6" width="33.7" height="3.4"/>
		<rect x="315.6" y="178.8" class="st8" width="20.9" height="3.4"/>
		<rect x="274.1" y="178.8" class="st6" width="34" height="3.4"/>
		<g>
			<circle class="st6" cx="391.7" cy="6.6" r="2.6"/>
			<circle class="st6" cx="381.3" cy="6.6" r="2.6"/>
			<circle class="st6" cx="370.9" cy="6.6" r="2.6"/>
		</g>
		<g>
			<g>
				<path class="st4" d="M253.9,20.3l-7.4,7.4l7.4,7.4L256,33l-5.3-5.3l5.3-5.3L253.9,20.3z"/>
				<path class="st4" d="M270.5,22.4l5.3,5.3l-5.3,5.3l2.1,2.1l7.4-7.4l-7.4-7.4L270.5,22.4z"/>
				<path class="st4" d="M258.5,32.5l7-11.7l2.5,1.5L261,34L258.5,32.5z"/>
			</g>
		</g>
	</g>
	<g>
		<path id="_Path_4_1_" class="st9" d="M319.1,46c-4.6,0-8.3,3.7-8.3,8.3l0,0l0,0v207.6c0,4.6,3.7,8.4,8.3,8.4l0,0h321.8
			c4.6,0,8.3-3.7,8.3-8.3l0,0V54.4c0-4.6-3.7-8.3-8.3-8.3l0,0L319.1,46L319.1,46z"/>
		<path id="_Path_5_1_" class="st10" d="M292.4,279.9h375.2c9.9,0,17.8-8,17.9-17.9h-411C274.6,271.9,282.4,279.9,292.4,279.9z"/>
		<path id="_Path_6_1_" class="st4" d="M277.3,271.7c3.3,5.1,8.9,8.3,15.1,8.3h375.2c6.2,0.1,11.9-3.1,15.1-8.3H277.3z"/>
		<g>
			<circle id="_Path_7_1_" class="st9" cx="306.9" cy="266.6" r="1.9"/>
			<circle id="_Path_8_1_" class="st9" cx="301.4" cy="266.6" r="2"/>
			<circle id="_Path_9_1_" class="st9" cx="295.7" cy="266.6" r="2"/>
		</g>
		<rect x="324.7" y="59.4" class="st11" width="310.6" height="193.6"/>
		<rect x="330.6" y="136.4" class="st8" width="72.9" height="110.3"/>
		<rect x="330.6" y="119.6" class="st12" width="299" height="9.9"/>
		<rect x="336.3" y="142.5" class="st13" width="61.2" height="22.4"/>
		<g>
			<rect x="336.3" y="175.3" class="st11" width="56.8" height="6.7"/>
			<rect x="336.3" y="188.9" class="st11" width="61.2" height="6.7"/>
			<rect x="336.3" y="202.7" class="st11" width="50.7" height="6.7"/>
			<rect x="336.3" y="216.8" class="st11" width="56.8" height="6.7"/>
			<rect x="336.3" y="231" class="st11" width="56.8" height="6.7"/>
		</g>
		<rect x="412.6" y="136.4" class="st6" width="48.1" height="48.1"/>
		<rect x="330.6" y="65.2" class="st12" width="48.1" height="48.1"/>
		<rect x="383.2" y="65.2" class="st8" width="246.4" height="48.1"/>
		<rect x="468.5" y="136.4" class="st5" width="48.1" height="48.1"/>
		<rect x="525.1" y="136.4" class="st7" width="48.1" height="48.1"/>
		<rect x="412.6" y="194.1" class="st14" width="160.6" height="52"/>
		<rect x="581.5" y="136.4" class="st4" width="48.1" height="48.1"/>
		<g>
			<circle class="st15" cx="353.5" cy="81.9" r="10.8"/>
			<circle class="st14" cx="363.6" cy="91.4" r="9.2"/>
			<circle class="st7" cx="354.7" cy="100.1" r="7.3"/>
			<path class="st16" d="M355.4,79.1h-12.3c-1.6,5.7,1.8,11.6,7.6,13.2c0.9,0.2,1.9,0.4,2.8,0.4c0.3,0,0.6,0,1-0.1v0.1
				c-4,0.1-7.2,3.4-7.2,7.3c0,0.2,0,0.4,0,0.6h8.1c0.8,0,1.5-0.7,1.5-1.5V80.6C356.9,79.7,356.2,79.1,355.4,79.1z"/>
			<path class="st17" d="M354.3,80.2h-11.4c-1,5.9,3.1,11.4,8.9,12.3c0.6,0.1,1.2,0.2,1.7,0.2c0.3,0,0.6,0,1-0.1v0.1
				c-4,0.1-7.3,3.5-7.2,7.6c0,0.5,0.1,1,0.2,1.5h6.8c0.8,0,1.5-0.7,1.5-1.5V81.7C355.8,80.9,355.2,80.2,354.3,80.2z"/>
			<path class="st17" d="M354.3,80.2h-11.4c-1,5.9,3.1,11.4,8.9,12.3c0.6,0.1,1.2,0.2,1.7,0.2c0.3,0,0.6,0,1-0.1v0.1
				c-3.8,0.1-6.9,3.1-7.2,6.8h7c0.8,0,1.5-0.7,1.5-1.5V81.7C355.8,80.9,355.2,80.2,354.3,80.2z"/>
			<path class="st17" d="M353.2,80.2h-10.3c-1,5.9,3.1,11.4,8.9,12.3c0.6,0.1,1.2,0.2,1.7,0.2c0.3,0,0.6,0,1-0.1v0.1
				c-3.8,0.1-6.9,3.1-7.2,6.8h5.8c0.8,0,1.5-0.7,1.5-1.5V81.7C354.7,80.9,354,80.2,353.2,80.2z"/>
			<path id="Back_Plate" class="st18" d="M338.1,80.2h15.1c0.8,0,1.5,0.7,1.5,1.5v15.1c0,0.8-0.7,1.5-1.5,1.5h-15.1
				c-0.8,0-1.5-0.7-1.5-1.5V81.7C336.5,80.9,337.2,80.2,338.1,80.2L338.1,80.2z"/>
			<path class="st11" d="M343,89.1c-0.4-0.2-0.7-0.6-1-1c-0.2-0.4-0.3-0.9-0.3-1.3c0-0.6,0.2-1.2,0.6-1.8c0.4-0.5,1-0.9,1.6-1.1
				c0.7-0.2,1.4-0.3,2.2-0.3c1-0.1,2,0.1,2.9,0.4v2c-0.4-0.2-0.9-0.4-1.3-0.5c-0.5-0.2-1-0.2-1.5-0.2s-1.1,0.1-1.6,0.3
				c-0.4,0.2-0.6,0.5-0.6,1c0,0.2,0.1,0.5,0.3,0.7c0.2,0.2,0.4,0.4,0.7,0.5c0.3,0.2,0.8,0.3,1.3,0.6c0.1,0,0.2,0.1,0.2,0.1
				c0.6,0.2,1.2,0.5,1.7,0.8c0.4,0.2,0.8,0.6,1,1c0.2,0.5,0.4,1,0.4,1.5c0.1,0.7-0.2,1.3-0.6,1.8s-0.9,0.8-1.5,1
				c-0.7,0.2-1.4,0.3-2.1,0.3s-1.3-0.1-2-0.2c-0.5-0.1-1.1-0.2-1.6-0.5v-2.1c0.5,0.3,1.1,0.6,1.6,0.8c0.6,0.2,1.2,0.3,1.8,0.3
				c0.6,0.1,1.1-0.1,1.6-0.3c0.3-0.2,0.6-0.6,0.5-1c0-0.3-0.1-0.5-0.3-0.7c-0.2-0.2-0.5-0.4-0.8-0.6s-0.9-0.4-1.6-0.7
				C344,89.6,343.4,89.4,343,89.1z"/>
		</g>
		<rect x="581.5" y="194.1" class="st12" width="48.1" height="52"/>
		<g>
			<rect x="588.1" y="202.7" class="st11" width="31.2" height="6.7"/>
			<rect x="588.1" y="216.8" class="st11" width="34.9" height="6.7"/>
			<rect x="588.1" y="231" class="st11" width="34.9" height="6.7"/>
		</g>
		<g>
			<g>
				<path class="st3" d="M596.5,60.9l15.1-15.1c3.9-3.9,4.2-10.2,0.7-14.5L586.8,0.6l-35.6,35.6L582,61.6
					C586.3,65.1,592.6,64.8,596.5,60.9z"/>
				
					<ellipse transform="matrix(0.7071 -0.7071 0.7071 0.7071 154.47 424.0208)" class="st6" cx="589.1" cy="25.5" rx="5.1" ry="5.1"/>
				<path class="st4" d="M588.6,24.5c0.6-0.3,1.3,0,1.6,0.5c0.1,0.2,2.6,5.1,9.5,5c7.7-0.1,17.6-6.7,17.7-14c0-2.6-1.5-4.8-4.2-6.2
					c-4.1-2.2-11-2.4-17.1,2l-1.5-1.8c0,0,0,0,0.1-0.1c6.9-5,14.8-4.7,19.6-2.2c3.5,1.8,5.5,4.9,5.5,8.3c-0.1,3.5-1.8,6.7-4.4,9.3
					c-4.2,4.2-10.7,6.9-15.6,7c-8.5,0.1-11.6-6.1-11.7-6.3C587.8,25.5,588.1,24.8,588.6,24.5z"/>
				
					<ellipse transform="matrix(0.7071 -0.7071 0.7071 0.7071 153.691 407.7905)" class="st4" cx="569.1" cy="18.4" rx="25.1" ry="6.6"/>
			</g>
			<g>
				<path class="st13" d="M543.2,63.3c0,5.1,4.2,9.3,9.3,9.3s9.3-4.2,9.3-9.3c0-4-5.6-11.6-8.1-14.9c-0.6-0.8-1.8-0.8-2.4,0
					C548.8,51.7,543.2,59.3,543.2,63.3z"/>
				<g>
					<path class="st8" d="M552.5,69.3c3.3,0,6-2.7,6-6c0-0.5-0.4-0.9-0.9-0.9s-0.9,0.4-0.9,0.9c0,2.3-1.9,4.1-4.1,4.1
						c-0.5,0-0.9,0.4-0.9,0.9S552,69.3,552.5,69.3z"/>
				</g>
			</g>
		</g>
		<g>
			<line class="st19" x1="436.6" y1="208.7" x2="436.6" y2="231.7"/>
			<line class="st19" x1="425.1" y1="220.2" x2="448.1" y2="220.2"/>
		</g>
	</g>
	<g>
		<circle class="st3" cx="47.5" cy="98.4" r="47.5"/>
		<g>
			<g>
				<g>
					<g>
						<path class="st20" d="M70.1,78.4h-42c-1.9,0-3.5,1.6-3.5,3.5v17.4"/>
						<path class="st20" d="M73.6,100.5H24.7v18.2c0,1.9,1.6,3.5,3.5,3.5h18.1"/>
					</g>
					<g>
						<circle class="st8" cx="24.7" cy="100.5" r="6.7"/>
						<path class="st13" d="M24.7,95.3c2.8,0,5.2,2.3,5.2,5.2s-2.3,5.2-5.2,5.2s-5.2-2.3-5.2-5.2S21.9,95.3,24.7,95.3 M24.7,92.3
							c-4.5,0-8.2,3.7-8.2,8.2s3.7,8.2,8.2,8.2s8.2-3.7,8.2-8.2S29.2,92.3,24.7,92.3L24.7,92.3z"/>
					</g>
					<rect x="40" y="72" class="st4" width="12.8" height="12.8"/>
					<rect x="40" y="94.1" class="st4" width="12.8" height="12.8"/>
					
						<rect x="39.9" y="115.9" transform="matrix(0.7071 -0.7071 0.7071 0.7071 -72.9389 68.5816)" class="st4" width="12.8" height="12.8"/>
					
						<rect x="61" y="72" transform="matrix(0.7071 -0.7071 0.7071 0.7071 -35.7104 70.6026)" class="st4" width="12.8" height="12.8"/>
					<circle class="st4" cx="67.4" cy="100.5" r="8.2"/>
				</g>
			</g>
		</g>
	</g>
	<g>
		<g>
			<rect x="635.3" y="122.5" class="st8" width="47.3" height="35.1"/>
		</g>
		<g>
			<rect x="679.2" y="122.5" class="st13" width="3.4" height="35.1"/>
		</g>
		<g>
			<polygon class="st11" points="660.9,129.9 664.2,136.5 671.6,137.6 666.3,142.8 667.5,150.1 660.9,146.6 654.4,150.1 
				655.6,142.8 650.4,137.6 657.7,136.5 			"/>
		</g>
		<g>
			<path class="st13" d="M644.7,143.8v7.4h-3.5v-7.4H644.7z"/>
			<path class="st13" d="M644.7,128.8v7.4h-3.5v-7.4H644.7z"/>
		</g>
	</g>
	<g>
		<circle class="st3" cx="737.2" cy="232.3" r="47.5"/>
		<g>
			<g>
				<g>
					<g>
						<g>
							<path class="st4" d="M709.7,252c-2,2-2,5.5,0,7.8c1,1,2.5,1.5,3.8,1.5s2.8-0.5,3.8-1.5L735,242l-7.8-7.8L709.7,252z"/>
							<polygon class="st4" points="754.3,219 762,215 766.3,207 762.5,203.3 754.5,207.3 750.5,215 741,224.5 745,228.3 							"/>
							<path class="st4" d="M756,239.5h-0.8c-1.3,0-2.5,0.3-3.8,0.8L729.2,218c0.5-1.3,0.8-2.5,0.8-3.8v-0.8c-0.5-5.8-5-10-10.8-10
								c-1.8,0-3.3,0.5-4.8,1l7.3,7.3c0.5,0.5,0.8,0.8,0.8,1.3c0.5,1.3,0.3,2.8-0.8,3.8c-0.8,0.8-1.8,1-2.5,1c-0.5,0-0.8,0-1.3-0.3
								s-1-0.5-1.3-0.8l-7.3-7.3c-0.8,1.5-1,3-1,4.8c0,5.8,4.5,10.5,10,10.8h0.8c1.3,0,2.5-0.3,3.8-0.8l22.3,22.3
								c-0.5,1.3-0.8,2.5-0.8,3.8v0.8c0.5,5.8,5,10,10.8,10c1.8,0,3.3-0.5,4.8-1l-7.3-7.3c-0.5-0.5-0.8-0.8-0.8-1.3
								c-0.5-1.3-0.3-2.8,0.8-3.8c0.8-0.8,1.8-1,2.5-1c0.5,0,0.8,0,1.3,0.3s1,0.5,1.3,0.8l7.3,7.3c0.8-1.5,1-3,1-4.8
								C766.3,244.5,761.8,240,756,239.5z"/>
						</g>
					</g>
				</g>
			</g>
		</g>
	</g>
	<g>
		<circle class="st3" cx="765.5" cy="63.9" r="30.6"/>
	</g>
	<g>
		<circle class="st8" cx="912.5" cy="140" r="42.9"/>
		<g>
			<g>
				<path class="st12" d="M865,140c0,26.3,21.2,47.5,47.5,47.5S960,166.3,960,140s-21.2-47.5-47.5-47.5
					C886.3,92.5,865.1,113.8,865,140z M873.1,140c0-21.8,17.6-39.4,39.4-39.4s39.4,17.6,39.4,39.4s-17.6,39.4-39.4,39.4
					C890.7,179.4,873.1,161.8,873.1,140z"/>
				<path class="st21" d="M895.4,157.9c4.3,4.5,10.7,7.4,17.4,7.4c7,0,13.4-3,17.7-7.7l5,5c-5.7,6-13.8,9.7-22.8,9.7
					c-8.7,0-16.4-3.5-22.2-9.1L895.4,157.9z"/>
				<path class="st13" d="M912.6,109.5c-17.2,0-31.4,14-31.4,31.4c0,1.2,0.1,2.2,0.1,3.4c1.5-13,12.7-23.2,26.2-23.2
					c12.4,0,22.8,10,25.6,20.1H944v-0.1C943.9,123.5,929.9,109.5,912.6,109.5z"/>
				<g>
					<path class="st11" d="M914.8,144.7l22.8-24.6c1.5-1.6,1.5-4.2-0.1-5.9c-0.7-0.7-1.9-1.3-3-1.3s-2.1,0.4-2.9,1.2L907,136.9
						c-0.8,0.7-1.4,1.9-1.4,3c0,1.3,0.4,2.2,1.3,3.2l1.9,1.9c0.7,0.7,1.9,1.3,3,1.3C912.9,146.2,913.9,145.5,914.8,144.7z"/>
				</g>
				<g>
					<g>
						<path class="st21" d="M912.4,147.3c-4.5,0-8.2-3.7-8.2-8.2s3.7-8.2,8.2-8.2s8.2,3.7,8.2,8.2
							C920.6,143.6,916.9,147.3,912.4,147.3z"/>
						<path class="st11" d="M912.4,132.3c3.7,0,6.7,3,6.7,6.7s-3,6.7-6.7,6.7s-6.7-3-6.7-6.7C905.6,135.3,908.7,132.3,912.4,132.3
							 M912.4,129.3c-5.4,0-9.7,4.4-9.7,9.7c0,5.4,4.4,9.7,9.7,9.7s9.7-4.4,9.7-9.7C922.1,133.7,917.8,129.3,912.4,129.3
							L912.4,129.3z"/>
					</g>
				</g>
			</g>
		</g>
	</g>
	<line class="st22" x1="687.5" y1="140" x2="864" y2="140"/>
	<g>
		<line class="st19" x1="549.1" y1="149.8" x2="549.1" y2="172.8"/>
		<line class="st19" x1="537.6" y1="161.3" x2="560.6" y2="161.3"/>
	</g>
	<g>
		<path class="st12" d="M105.9,143.9h97.7c2.2,0,4,1.8,4,4V276c0,2.2-1.8,4-4,4h-97.7c-2.2,0-4-1.8-4-4V147.9
			C101.9,145.7,103.7,143.9,105.9,143.9z"/>
		<rect x="111.7" y="155" class="st11" width="86" height="113.8"/>
		<polygon class="st8" points="128.8,143.9 128.8,158.2 180.6,158.2 180.6,143.9 164.7,143.9 160.6,135 148.8,135 144.7,143.9 		"/>
		<g>
			<rect x="153.5" y="172.9" class="st23" width="37.4" height="2.3"/>
			<rect x="140.4" y="178.5" class="st23" width="50.5" height="2.3"/>
			<rect x="140.4" y="183.9" class="st23" width="25.3" height="2.3"/>
			<rect x="169.3" y="183.9" class="st23" width="10.4" height="2.3"/>
		</g>
		<g>
			<rect x="140.4" y="198.2" class="st23" width="37.4" height="2.3"/>
			<rect x="140.4" y="203.8" class="st23" width="50.5" height="2.3"/>
			<g>
				<rect x="140.4" y="209.3" class="st23" width="25.3" height="2.3"/>
				<rect x="169.3" y="209.3" class="st23" width="10.4" height="2.3"/>
			</g>
		</g>
		<g>
			<rect x="140.4" y="221.9" class="st23" width="50.5" height="2.3"/>
			<rect x="159.7" y="227.6" class="st23" width="31.3" height="2.3"/>
			<rect x="140.4" y="233" class="st23" width="25.3" height="2.3"/>
			<rect x="140.4" y="227.6" class="st23" width="10.4" height="2.3"/>
		</g>
		<g>
			<rect x="140.5" y="256.3" class="st23" width="37.4" height="2.3"/>
			<rect x="140.5" y="250.7" class="st23" width="50.5" height="2.3"/>
			<rect x="140.5" y="245.3" class="st23" width="25.3" height="2.3"/>
			<rect x="169.4" y="245.3" class="st23" width="10.4" height="2.3"/>
		</g>
		<path class="st8" d="M134.4,181.5v-3.9h-1.5c-0.2-0.6-0.4-1.1-0.7-1.7l1.1-1.1l-2.7-2.7l-1.1,1.1c-0.5-0.3-1.1-0.5-1.7-0.7V171
			H124v1.5c-0.6,0.2-1.1,0.4-1.7,0.7l-1.1-1.1l-2.7,2.7l1.1,1.1c-0.3,0.5-0.5,1.1-0.7,1.7h-1.5v3.9h1.5c0.2,0.6,0.4,1.1,0.7,1.7
			l-1.1,1.1l2.7,2.7l1.1-1.1c0.5,0.3,1.1,0.5,1.7,0.7v1.5h3.8v-1.5c0.6-0.2,1.1-0.4,1.7-0.7l1.1,1.1l2.7-2.7l-1.1-1.1
			c0.3-0.5,0.5-1.1,0.7-1.7H134.4z M125.9,182.1c-1.4,0-2.5-1.1-2.5-2.5s1.1-2.5,2.5-2.5s2.5,1.1,2.5,2.5S127.3,182.1,125.9,182.1z"
			/>
		<path class="st8" d="M134.4,230.6v-3.9h-1.5c-0.2-0.6-0.4-1.1-0.7-1.7l1.1-1.1l-2.7-2.7l-1.1,1.1c-0.5-0.3-1.1-0.5-1.7-0.7v-1.5
			H124v1.5c-0.6,0.2-1.1,0.4-1.7,0.7l-1.1-1.1l-2.7,2.7l1.1,1.1c-0.3,0.5-0.5,1.1-0.7,1.7h-1.5v3.9h1.5c0.2,0.6,0.4,1.1,0.7,1.7
			l-1.1,1.1l2.7,2.7l1.1-1.1c0.5,0.3,1.1,0.5,1.7,0.7v1.5h3.8v-1.5c0.6-0.2,1.1-0.4,1.7-0.7l1.1,1.1l2.7-2.7l-1.1-1.1
			c0.3-0.5,0.5-1.1,0.7-1.7H134.4z M125.9,231.1c-1.4,0-2.5-1.1-2.5-2.5s1.1-2.5,2.5-2.5s2.5,1.1,2.5,2.5S127.3,231.1,125.9,231.1z"
			/>
		<path class="st13" d="M134.4,206.8V203h-1.5c-0.2-0.6-0.4-1.1-0.7-1.7l1.1-1.1l-2.7-2.7l-1.1,1.1c-0.5-0.3-1.1-0.5-1.7-0.7v-1.5
			H124v1.5c-0.6,0.2-1.1,0.4-1.7,0.7l-1.1-1.1l-2.7,2.7l1.1,1.1c-0.3,0.5-0.5,1.1-0.7,1.7h-1.5v3.9h1.5c0.2,0.6,0.4,1.1,0.7,1.7
			l-1.1,1.1l2.7,2.7l1.1-1.1c0.5,0.3,1.1,0.5,1.7,0.7v1.5h3.8V212c0.6-0.2,1.1-0.4,1.7-0.7l1.1,1.1l2.7-2.7l-1.1-1.1
			c0.3-0.5,0.5-1.1,0.7-1.7L134.4,206.8L134.4,206.8z M125.9,207.4c-1.4,0-2.5-1.1-2.5-2.5s1.1-2.5,2.5-2.5s2.5,1.1,2.5,2.5
			S127.3,207.4,125.9,207.4z"/>
		<path class="st13" d="M134.4,253.9V250h-1.5c-0.2-0.6-0.4-1.1-0.7-1.7l1.1-1.1l-2.7-2.7l-1.1,1.1c-0.5-0.3-1.1-0.5-1.7-0.7v-1.5
			H124v1.5c-0.6,0.2-1.1,0.4-1.7,0.7l-1.1-1.1l-2.7,2.7l1.1,1.1c-0.3,0.5-0.5,1.1-0.7,1.7h-1.5v3.9h1.5c0.2,0.6,0.4,1.1,0.7,1.7
			l-1.1,1.1l2.7,2.7l1.1-1.1c0.5,0.3,1.1,0.5,1.7,0.7v1.5h3.8V259c0.6-0.2,1.1-0.4,1.7-0.7l1.1,1.1l2.7-2.7l-1.1-1.1
			c0.3-0.5,0.5-1.1,0.7-1.7L134.4,253.9L134.4,253.9z M125.9,254.5c-1.4,0-2.5-1.1-2.5-2.5s1.1-2.5,2.5-2.5s2.5,1.1,2.5,2.5
			S127.3,254.5,125.9,254.5z"/>
		<rect x="128.8" y="155.2" class="st13" width="51.8" height="3"/>
	</g>
	<line class="st22" x1="104.2" y1="98.4" x2="227.3" y2="98.4"/>
	<line class="st22" x1="660.8" y1="65.9" x2="727" y2="65.9"/>
	<g>
		<path class="st24" d="M761.4,63.9c0-3.5,1.6-6.6,4-8.8c-2-1.7-4.6-2.8-7.5-2.8c-6.4,0-11.6,5.2-11.6,11.6s5.2,11.6,11.6,11.6
			c2.9,0,5.5-1.1,7.5-2.8C763,70.6,761.4,67.4,761.4,63.9z"/>
		<g id="XMLID_1_">
			<g>
				<path class="st8" d="M773,52.4c6.4,0,11.5,5.2,11.5,11.6s-5.2,11.5-11.5,11.5c-2.9,0-5.5-1.1-7.5-2.8c2.5-2.1,4-5.3,4-8.8
					c0-3.5-1.6-6.6-4-8.8C767.5,53.4,770.1,52.4,773,52.4z"/>
			</g>
			<g>
				<path class="st25" d="M773,52.4c-2.9,0-5.5,1.1-7.5,2.8c2.5,2.1,4,5.3,4,8.8s-1.6,6.6-4,8.8c2,1.7,4.6,2.8,7.5,2.8
					c6.4,0,11.5-5.2,11.5-11.5C784.5,57.5,779.4,52.4,773,52.4z"/>
			</g>
		</g>
		<path class="st4" d="M770.9,63.9c0-4.3-2.1-8.1-5.5-10.8c-3.4,2.6-5.5,6.4-5.5,10.8s2.1,8.1,5.5,10.7
			C768.8,72.1,770.9,68.2,770.9,63.9z"/>
	</g>
	<g>
		<g>
			<path class="st26" d="M108.2,62v3.9h-2.9V55.1h3.5c2.9,0,4.4,1.1,4.4,3.2c0,1.2-0.6,2.2-1.8,2.9l3.1,4.7h-3.3L109,62H108.2z
				 M108.2,59.8h0.5c1,0,1.5-0.4,1.5-1.3c0-0.7-0.5-1.1-1.5-1.1h-0.6L108.2,59.8L108.2,59.8z"/>
			<path class="st26" d="M121.8,65.9h-6.4V55.1h6.4v2.3h-3.5v1.7h3.2v2.3h-3.2v2h3.5V65.9z"/>
			<path class="st26" d="M123.7,65.9V55.1h2.9v8.4h4.1v2.3L123.7,65.9L123.7,65.9z"/>
			<path class="st26" d="M132.4,65.9V55.1h2.9v10.7h-2.9V65.9z"/>
			<path class="st26" d="M144.2,65.9l-0.5-2h-3.5l-0.5,2h-3.2l3.5-10.8h3.9l3.5,10.8H144.2z M143.1,61.5l-0.5-1.8
				c-0.1-0.4-0.2-0.9-0.4-1.5s-0.3-1.1-0.3-1.3c0,0.2-0.1,0.7-0.3,1.2s-0.4,1.7-0.9,3.4C140.7,61.5,143.1,61.5,143.1,61.5z"/>
			<path class="st26" d="M148.6,55.1h3.7c1.5,0,2.5,0.2,3.2,0.6c0.7,0.4,1.1,1.1,1.1,2c0,0.6-0.2,1.1-0.5,1.5s-0.7,0.7-1.2,0.8v0.1
				c0.7,0.2,1.1,0.5,1.4,0.9s0.4,0.9,0.4,1.6c0,1-0.4,1.7-1.1,2.3c-0.7,0.6-1.7,0.8-3,0.8h-4.2V55.1H148.6z M151.4,59.3h0.9
				c0.4,0,0.7-0.1,1-0.3c0.2-0.2,0.3-0.4,0.3-0.8c0-0.6-0.5-0.9-1.4-0.9h-0.8V59.3z M151.4,61.4v2.2h1c0.9,0,1.4-0.4,1.4-1.1
				c0-0.4-0.1-0.6-0.4-0.8c-0.2-0.2-0.6-0.3-1.1-0.3C152.3,61.4,151.4,61.4,151.4,61.4z"/>
			<path class="st26" d="M158.7,65.9V55.1h2.9v8.4h4.1v2.3L158.7,65.9L158.7,65.9z"/>
			<path class="st26" d="M173.7,65.9h-6.4V55.1h6.4v2.3h-3.5v1.7h3.2v2.3h-3.2v2h3.5V65.9z"/>
			<path class="st26" d="M111.9,83.9l-0.5-2h-3.5l-0.5,2h-3.2l3.5-10.8h3.9l3.5,10.8H111.9z M110.8,79.5l-0.5-1.8
				c-0.1-0.4-0.2-0.9-0.4-1.5c-0.2-0.6-0.3-1.1-0.3-1.3c0,0.2-0.1,0.7-0.3,1.2s-0.4,1.7-0.9,3.4C108.4,79.5,110.8,79.5,110.8,79.5z"
				/>
			<path class="st26" d="M119.1,80v3.9h-2.9V73.1h3.5c2.9,0,4.4,1.1,4.4,3.2c0,1.2-0.6,2.2-1.8,2.9l3.1,4.7h-3.3l-2.3-3.9
				C119.8,80,119.1,80,119.1,80z M119.1,77.8h0.5c1,0,1.5-0.4,1.5-1.3c0-0.7-0.5-1.1-1.5-1.1H119L119.1,77.8L119.1,77.8z"/>
			<path class="st26" d="M131.1,75.4c-0.7,0-1.2,0.3-1.6,0.8c-0.4,0.6-0.6,1.3-0.6,2.3c0,2.1,0.8,3.1,2.4,3.1c0.5,0,0.9-0.1,1.4-0.2
				s0.9-0.3,1.3-0.5v2.4c-0.9,0.4-1.9,0.6-3,0.6c-1.6,0-2.9-0.5-3.7-1.4c-0.9-0.9-1.3-2.3-1.3-4.1c0-1.1,0.2-2.1,0.6-2.9
				s1-1.5,1.8-1.9c0.8-0.5,1.7-0.7,2.8-0.7c1.2,0,2.3,0.3,3.3,0.8l-0.9,2.3c-0.4-0.2-0.8-0.3-1.2-0.5S131.6,75.4,131.1,75.4z"/>
			<path class="st26" d="M145.3,83.9h-2.9v-4.4H139v4.4h-2.9V73.1h2.9v4h3.4v-4h2.9L145.3,83.9L145.3,83.9z"/>
			<path class="st26" d="M147.6,83.9V73.1h2.9v10.7h-2.9V83.9z"/>
			<path class="st26" d="M157.5,83.9h-2.9v-8.3H152v-2.4h8.1v2.4h-2.6V83.9z"/>
			<path class="st26" d="M168,83.9h-6.4V73.1h6.4v2.3h-3.5v1.7h3.2v2.3h-3.2v2h3.5V83.9z"/>
			<path class="st26" d="M174.7,75.4c-0.7,0-1.2,0.3-1.6,0.8c-0.4,0.6-0.6,1.3-0.6,2.3c0,2.1,0.8,3.1,2.4,3.1c0.5,0,0.9-0.1,1.4-0.2
				s0.9-0.3,1.3-0.5v2.4c-0.9,0.4-1.9,0.6-3,0.6c-1.6,0-2.9-0.5-3.7-1.4c-0.9-0.9-1.3-2.3-1.3-4.1c0-1.1,0.2-2.1,0.6-2.9
				c0.4-0.8,1-1.5,1.8-1.9c0.8-0.5,1.7-0.7,2.8-0.7c1.2,0,2.3,0.3,3.3,0.8l-0.9,2.3c-0.4-0.2-0.8-0.3-1.2-0.5S175.1,75.4,174.7,75.4
				z"/>
			<path class="st26" d="M184.4,83.9h-2.9v-8.3h-2.6v-2.4h8.1v2.4h-2.6V83.9z"/>
			<path class="st26" d="M197.6,73.1v6.4c0,1.4-0.4,2.5-1.2,3.3S194.5,84,193,84s-2.6-0.4-3.4-1.1c-0.8-0.7-1.2-1.8-1.2-3.2v-6.5
				h2.9v6.3c0,0.8,0.1,1.3,0.4,1.6s0.7,0.5,1.3,0.5s1-0.2,1.3-0.5s0.4-0.9,0.4-1.7v-6.3C194.7,73.1,197.6,73.1,197.6,73.1z"/>
			<path class="st26" d="M202.8,80v3.9h-2.9V73.1h3.5c2.9,0,4.4,1.1,4.4,3.2c0,1.2-0.6,2.2-1.8,2.9l3.1,4.7h-3.3l-2.3-3.9
				C203.5,80,202.8,80,202.8,80z M202.8,77.8h0.5c1,0,1.5-0.4,1.5-1.3c0-0.7-0.5-1.1-1.5-1.1h-0.6v2.4H202.8z"/>
			<path class="st26" d="M216.4,83.9H210V73.1h6.4v2.3h-3.5v1.7h3.2v2.3h-3.2v2h3.5V83.9z"/>
		</g>
	</g>
	<g>
		<g>
			<path class="st26" d="M813.7,55.9c0,0.7-0.2,1.3-0.5,1.8s-0.8,0.9-1.5,1.2c-0.6,0.3-1.4,0.4-2.2,0.4c-0.7,0-1.3-0.1-1.8-0.2
				c-0.5-0.1-1-0.3-1.5-0.5V56c0.6,0.3,1.1,0.5,1.7,0.7s1.1,0.2,1.6,0.2c0.4,0,0.7-0.1,0.9-0.2s0.3-0.3,0.3-0.6c0-0.1,0-0.3-0.1-0.4
				c-0.1-0.1-0.2-0.2-0.4-0.3s-0.7-0.3-1.4-0.7c-0.7-0.3-1.2-0.6-1.6-0.9c-0.3-0.3-0.6-0.6-0.8-1s-0.3-0.8-0.3-1.4
				c0-1,0.4-1.8,1.1-2.3s1.7-0.8,3-0.8c1.1,0,2.2,0.3,3.4,0.8l-0.9,2.2c-1-0.5-1.9-0.7-2.6-0.7c-0.4,0-0.6,0.1-0.8,0.2
				s-0.3,0.3-0.3,0.5s0.1,0.4,0.3,0.6c0.2,0.2,0.8,0.5,1.8,0.9c0.9,0.4,1.6,0.9,1.9,1.3C813.5,54.6,813.7,55.2,813.7,55.9z"/>
			<path class="st26" d="M821.7,59.2h-6.4V48.5h6.4v2.3h-3.5v1.7h3.2v2.3h-3.2v2h3.5V59.2z"/>
			<path class="st26" d="M830.2,59.2l-0.5-2h-3.5l-0.5,2h-3.2l3.5-10.8h3.9l3.5,10.8H830.2z M829,54.8l-0.5-1.8
				c-0.1-0.4-0.2-0.9-0.4-1.5s-0.3-1.1-0.3-1.3c0,0.2-0.1,0.7-0.3,1.2c-0.1,0.6-0.4,1.7-0.9,3.4C826.6,54.8,829,54.8,829,54.8z"/>
			<path class="st26" d="M839.2,59.2l-2.2-7.7h-0.1c0.1,1.3,0.2,2.3,0.2,3.1v4.7h-2.6V48.5h3.9l2.2,7.6h0.1l2.2-7.6h3.9v10.7H844
				v-4.7c0-0.2,0-0.5,0-0.8s0-1,0.1-2.2H844l-2.2,7.7H839.2z"/>
			<path class="st26" d="M849,59.2V48.5h2.9v8.4h4.1v2.3H849z"/>
			<path class="st26" d="M864.1,59.2h-6.4V48.5h6.4v2.3h-3.5v1.7h3.2v2.3h-3.2v2h3.5V59.2z"/>
			<path class="st26" d="M873,55.9c0,0.7-0.2,1.3-0.5,1.8s-0.8,0.9-1.5,1.2c-0.6,0.3-1.4,0.4-2.2,0.4c-0.7,0-1.3-0.1-1.8-0.2
				c-0.5-0.1-1-0.3-1.5-0.5V56c0.6,0.3,1.1,0.5,1.7,0.7s1.1,0.2,1.6,0.2c0.4,0,0.7-0.1,0.9-0.2s0.3-0.3,0.3-0.6c0-0.1,0-0.3-0.1-0.4
				c-0.1-0.1-0.2-0.2-0.4-0.3s-0.7-0.3-1.4-0.7c-0.7-0.3-1.2-0.6-1.6-0.9c-0.3-0.3-0.6-0.6-0.8-1s-0.3-0.8-0.3-1.4
				c0-1,0.4-1.8,1.1-2.3s1.7-0.8,3-0.8c1.1,0,2.2,0.3,3.4,0.8l-0.9,2.2c-1-0.5-1.9-0.7-2.6-0.7c-0.4,0-0.6,0.1-0.8,0.2
				s-0.3,0.3-0.3,0.5s0.1,0.4,0.3,0.6c0.2,0.2,0.8,0.5,1.8,0.9c0.9,0.4,1.6,0.9,1.9,1.3C872.8,54.6,873,55.2,873,55.9z"/>
			<path class="st26" d="M881.6,55.9c0,0.7-0.2,1.3-0.5,1.8s-0.8,0.9-1.5,1.2c-0.6,0.3-1.4,0.4-2.2,0.4c-0.7,0-1.3-0.1-1.8-0.2
				c-0.5-0.1-1-0.3-1.5-0.5V56c0.6,0.3,1.1,0.5,1.7,0.7s1.1,0.2,1.6,0.2c0.4,0,0.7-0.1,0.9-0.2s0.3-0.3,0.3-0.6c0-0.1,0-0.3-0.1-0.4
				c-0.1-0.1-0.2-0.2-0.4-0.3s-0.7-0.3-1.4-0.7c-0.7-0.3-1.2-0.6-1.6-0.9c-0.3-0.3-0.6-0.6-0.8-1S874,52,874,51.4
				c0-1,0.4-1.8,1.1-2.3s1.7-0.8,3-0.8c1.1,0,2.2,0.3,3.4,0.8l-0.9,2.2c-1-0.5-1.9-0.7-2.6-0.7c-0.4,0-0.6,0.1-0.8,0.2
				s-0.3,0.3-0.3,0.5s0.1,0.4,0.3,0.6c0.2,0.2,0.8,0.5,1.8,0.9c0.9,0.4,1.6,0.9,1.9,1.3C881.4,54.6,881.6,55.2,881.6,55.9z"/>
			<path class="st26" d="M806.7,77.2V66.5h2.9v10.7H806.7z"/>
			<path class="st26" d="M822.1,77.2h-3.8l-3.9-7.5h-0.1c0.1,1.2,0.1,2.1,0.1,2.7v4.8h-2.6V66.5h3.8l3.9,7.4l0,0
				c-0.1-1.1-0.1-1.9-0.1-2.6v-4.8h2.6L822.1,77.2L822.1,77.2z"/>
			<path class="st26" d="M829.2,77.2h-2.9v-8.3h-2.6v-2.4h8.1v2.4h-2.6V77.2z"/>
			<path class="st26" d="M839.7,77.2h-6.4V66.5h6.4v2.3h-3.5v1.7h3.2v2.3h-3.2v2h3.5V77.2z"/>
			<path class="st26" d="M845.8,70.9h4.6v5.8c-1.3,0.4-2.6,0.6-4.1,0.6c-1.7,0-2.9-0.5-3.8-1.4c-0.9-1-1.4-2.3-1.4-4.1
				c0-1.7,0.5-3.1,1.5-4s2.4-1.4,4.1-1.4c0.7,0,1.3,0.1,1.9,0.2c0.6,0.1,1.1,0.3,1.6,0.5l-0.9,2.3c-0.8-0.4-1.6-0.6-2.5-0.6
				c-0.8,0-1.5,0.3-2,0.8s-0.7,1.3-0.7,2.4c0,1,0.2,1.8,0.6,2.3c0.4,0.5,1,0.8,1.8,0.8c0.4,0,0.8,0,1.2-0.1v-1.7h-1.9L845.8,70.9
				L845.8,70.9z"/>
			<path class="st26" d="M855.5,73.3v3.9h-2.9V66.5h3.5c2.9,0,4.4,1.1,4.4,3.2c0,1.2-0.6,2.2-1.8,2.9l3.1,4.7h-3.3l-2.3-3.9
				L855.5,73.3L855.5,73.3z M855.5,71.1h0.5c1,0,1.5-0.4,1.5-1.3c0-0.7-0.5-1.1-1.5-1.1h-0.6L855.5,71.1L855.5,71.1z"/>
			<path class="st26" d="M869.4,77.2l-0.5-2h-3.5l-0.5,2h-3.2l3.5-10.8h3.9l3.5,10.8H869.4z M868.2,72.8l-0.5-1.8
				c-0.1-0.4-0.2-0.9-0.4-1.5s-0.3-1.1-0.3-1.3c0,0.2-0.1,0.7-0.3,1.2c-0.1,0.6-0.4,1.7-0.9,3.4C865.8,72.8,868.2,72.8,868.2,72.8z"
				/>
			<path class="st26" d="M878.4,77.2h-2.9v-8.3h-2.6v-2.4h8.1v2.4h-2.6V77.2z"/>
			<path class="st26" d="M882.5,77.2V66.5h2.9v10.7H882.5z"/>
			<path class="st26" d="M897.8,71.8c0,1.8-0.4,3.2-1.3,4.1s-2.2,1.4-3.9,1.4s-3-0.5-3.9-1.4s-1.3-2.3-1.3-4.1
				c0-1.8,0.4-3.1,1.3-4.1c0.9-0.9,2.2-1.4,3.9-1.4s3,0.5,3.9,1.4S897.8,70,897.8,71.8z M890.4,71.8c0,2.1,0.7,3.1,2.2,3.1
				c0.7,0,1.3-0.3,1.6-0.8c0.4-0.5,0.5-1.3,0.5-2.4s-0.2-1.9-0.5-2.4c-0.4-0.5-0.9-0.8-1.6-0.8C891.1,68.7,890.4,69.7,890.4,71.8z"
				/>
			<path class="st26" d="M909.9,77.2h-3.8l-3.9-7.5h-0.1c0.1,1.2,0.1,2.1,0.1,2.7v4.8h-2.6V66.5h3.8l3.9,7.4l0,0
				c-0.1-1.1-0.1-1.9-0.1-2.6v-4.8h2.6L909.9,77.2L909.9,77.2z"/>
		</g>
	</g>
	<g>
		<g>
			<path class="st26" d="M797.3,260.6h-2.9v-8.3h-2.6v-2.4h8.1v2.4h-2.6V260.6z"/>
			<path class="st26" d="M801.5,260.6v-10.7h2.9v10.7H801.5z"/>
			<path class="st26" d="M811.4,260.6l-2.2-7.7h-0.1c0.1,1.3,0.2,2.3,0.2,3.1v4.7h-2.6V250h3.9l2.2,7.6h0.1l2.2-7.6h3.9v10.7h-2.7
				V256c0-0.2,0-0.5,0-0.8s0-1,0.1-2.2h-0.1l-2.2,7.7h-2.7V260.6z"/>
			<path class="st26" d="M827.6,260.6h-6.4v-10.7h6.4v2.3h-3.5v1.7h3.2v2.3h-3.2v2h3.5V260.6z"/>
			<path class="st26" d="M829.4,260.6v-10.7h2.9v8.4h4.1v2.3H829.4z"/>
			<path class="st26" d="M842,253.9l1.8-4h3.1l-3.5,6.5v4.2h-2.9v-4.1l-3.5-6.6h3.1L842,253.9z"/>
			<path class="st26" d="M797.3,278.6l-2.2-7.7H795c0.1,1.3,0.2,2.3,0.2,3.1v4.7h-2.6V268h3.9l2.2,7.6h0.1l2.2-7.6h3.9v10.7h-2.7
				V274c0-0.2,0-0.5,0-0.8s0-1,0.1-2.2h-0.1l-2.2,7.7h-2.7V278.6z"/>
			<path class="st26" d="M813.7,278.6l-0.5-2h-3.5l-0.5,2H806l3.5-10.8h3.9l3.5,10.8H813.7z M812.6,274.2l-0.5-1.8
				c-0.1-0.4-0.2-0.9-0.4-1.5s-0.3-1.1-0.3-1.3c0,0.2-0.1,0.7-0.3,1.2c-0.1,0.6-0.4,1.7-0.9,3.4L812.6,274.2L812.6,274.2z"/>
			<path class="st26" d="M818,278.6v-10.7h2.9v10.7H818z"/>
			<path class="st26" d="M833.4,278.6h-3.8l-3.9-7.5h-0.1c0.1,1.2,0.1,2.1,0.1,2.7v4.8h-2.6v-10.7h3.8l3.9,7.4l0,0
				c-0.1-1.1-0.1-1.9-0.1-2.6v-4.8h2.6L833.4,278.6L833.4,278.6z"/>
			<path class="st26" d="M840.5,278.6h-2.9v-8.3H835v-2.4h8.1v2.4h-2.6V278.6z"/>
			<path class="st26" d="M851,278.6h-6.4v-10.7h6.4v2.3h-3.5v1.7h3.2v2.3h-3.2v2h3.5V278.6z"/>
			<path class="st26" d="M863,278.6h-3.8l-3.9-7.5h-0.1c0.1,1.2,0.1,2.1,0.1,2.7v4.8h-2.6v-10.7h3.8l3.9,7.4l0,0
				c-0.1-1.1-0.1-1.9-0.1-2.6v-4.8h2.6L863,278.6L863,278.6z"/>
			<path class="st26" d="M871.9,278.6l-0.5-2h-3.5l-0.5,2h-3.2l3.5-10.8h3.9l3.5,10.8H871.9z M870.8,274.2l-0.5-1.8
				c-0.1-0.4-0.2-0.9-0.4-1.5s-0.3-1.1-0.3-1.3c0,0.2-0.1,0.7-0.3,1.2c-0.1,0.6-0.4,1.7-0.9,3.4L870.8,274.2L870.8,274.2z"/>
			<path class="st26" d="M886.4,278.6h-3.8l-3.9-7.5h-0.1c0.1,1.2,0.1,2.1,0.1,2.7v4.8h-2.6v-10.7h3.8l3.9,7.4l0,0
				c-0.1-1.1-0.1-1.9-0.1-2.6v-4.8h2.6L886.4,278.6L886.4,278.6z"/>
			<path class="st26" d="M893.5,270.1c-0.7,0-1.2,0.3-1.6,0.8c-0.4,0.6-0.6,1.3-0.6,2.3c0,2.1,0.8,3.1,2.4,3.1
				c0.5,0,0.9-0.1,1.4-0.2s0.9-0.3,1.3-0.5v2.4c-0.9,0.4-1.9,0.6-3,0.6c-1.6,0-2.9-0.5-3.7-1.4c-0.9-0.9-1.3-2.3-1.3-4.1
				c0-1.1,0.2-2.1,0.6-2.9c0.4-0.8,1-1.5,1.8-1.9c0.8-0.5,1.7-0.7,2.8-0.7c1.2,0,2.3,0.3,3.3,0.8l-0.9,2.3c-0.4-0.2-0.8-0.3-1.2-0.5
				S894,270.1,893.5,270.1z"/>
			<path class="st26" d="M904.8,278.6h-6.4v-10.7h6.4v2.3h-3.5v1.7h3.2v2.3h-3.2v2h3.5V278.6z"/>
		</g>
	</g>
	<g>
		<g>
			<path class="st26" d="M413.3,13.8c-0.7,0-1.2,0.3-1.6,0.8c-0.4,0.6-0.6,1.3-0.6,2.3c0,2.1,0.8,3.1,2.4,3.1c0.5,0,0.9-0.1,1.4-0.2
				s0.9-0.3,1.3-0.5v2.4c-0.9,0.4-1.9,0.6-3,0.6c-1.6,0-2.9-0.5-3.7-1.4c-0.9-0.9-1.3-2.3-1.3-4.1c0-1.1,0.2-2.1,0.6-2.9
				c0.4-0.8,1-1.5,1.8-1.9c0.8-0.5,1.7-0.7,2.8-0.7c1.2,0,2.3,0.3,3.3,0.8l-0.9,2.3c-0.4-0.2-0.8-0.3-1.2-0.5S413.7,13.8,413.3,13.8
				z"/>
			<path class="st26" d="M427.3,11.5V18c0,1.4-0.4,2.5-1.2,3.3c-0.8,0.8-1.9,1.2-3.4,1.2s-2.6-0.4-3.4-1.1s-1.2-1.8-1.2-3.2v-6.5
				h2.9V18c0,0.8,0.1,1.3,0.4,1.6s0.7,0.5,1.3,0.5c0.6,0,1-0.2,1.3-0.5s0.4-0.9,0.4-1.7v-6.3L427.3,11.5L427.3,11.5z"/>
			<path class="st26" d="M436.6,19c0,0.7-0.2,1.3-0.5,1.8s-0.8,0.9-1.5,1.2c-0.6,0.3-1.4,0.4-2.2,0.4c-0.7,0-1.3-0.1-1.8-0.2
				s-1-0.3-1.5-0.5v-2.6c0.6,0.3,1.1,0.5,1.7,0.7s1.1,0.2,1.6,0.2c0.4,0,0.7-0.1,0.9-0.2s0.3-0.3,0.3-0.6c0-0.1,0-0.3-0.1-0.4
				s-0.2-0.2-0.4-0.3s-0.7-0.3-1.4-0.7c-0.7-0.3-1.2-0.6-1.6-0.9c-0.3-0.3-0.6-0.6-0.8-1c-0.2-0.4-0.3-0.8-0.3-1.4
				c0-1,0.4-1.8,1.1-2.3s1.7-0.8,3-0.8c1.1,0,2.2,0.3,3.4,0.8l-0.9,2.2c-1-0.5-1.9-0.7-2.6-0.7c-0.4,0-0.6,0.1-0.8,0.2
				s-0.3,0.3-0.3,0.5s0.1,0.4,0.3,0.6c0.2,0.2,0.8,0.5,1.8,0.9c0.9,0.4,1.6,0.9,1.9,1.3C436.4,17.7,436.6,18.3,436.6,19z"/>
			<path class="st26" d="M443,22.2h-2.9v-8.3h-2.6v-2.4h8.1v2.4H443V22.2z"/>
			<path class="st26" d="M457.1,16.9c0,1.8-0.4,3.2-1.3,4.1s-2.2,1.4-3.9,1.4c-1.7,0-3-0.5-3.9-1.4s-1.3-2.3-1.3-4.1
				s0.4-3.1,1.3-4.1c0.9-0.9,2.2-1.4,3.9-1.4c1.7,0,3,0.5,3.9,1.4S457.1,15.1,457.1,16.9z M449.8,16.9c0,2.1,0.7,3.1,2.2,3.1
				c0.7,0,1.3-0.3,1.6-0.8s0.5-1.3,0.5-2.4s-0.2-1.9-0.5-2.4c-0.4-0.5-0.9-0.8-1.6-0.8C450.5,13.7,449.8,14.8,449.8,16.9z"/>
			<path class="st26" d="M463.7,22.2l-2.2-7.7h-0.1c0.1,1.3,0.2,2.3,0.2,3.1v4.7H459V11.5h3.9l2.2,7.6h0.1l2.2-7.6h3.9v10.7h-2.7
				v-4.7c0-0.2,0-0.5,0-0.8s0-1,0.1-2.2h-0.1l-2.2,7.7H463.7z"/>
			<path class="st26" d="M417.6,34.7c0,1.8-0.5,3.2-1.5,4.1s-2.4,1.5-4.1,1.5h-3.5V29.5h3.7c1.7,0,3,0.4,4,1.3S417.6,33,417.6,34.7z
				 M414.6,34.8c0-1-0.2-1.7-0.6-2.2s-1-0.7-1.8-0.7h-0.8v6h0.6c0.9,0,1.5-0.3,1.9-0.8C414.4,36.6,414.6,35.8,414.6,34.8z"/>
			<path class="st26" d="M425.9,40.2h-6.4V29.5h6.4v2.3h-3.5v1.7h3.2v2.3h-3.2v2h3.5V40.2z"/>
			<path class="st26" d="M433.8,29.5h3.2l-3.5,10.7h-3.4l-3.5-10.7h3.3l1.5,5.4c0.3,1.2,0.5,2,0.5,2.5c0-0.3,0.1-0.8,0.2-1.3
				s0.2-0.9,0.3-1.2L433.8,29.5z"/>
			<path class="st26" d="M444.5,40.2h-6.4V29.5h6.4v2.3H441v1.7h3.2v2.3H441v2h3.5V40.2z"/>
			<path class="st26" d="M446.4,40.2V29.5h2.9v8.4h4.1v2.3H446.4z"/>
			<path class="st26" d="M465.1,34.9c0,1.8-0.4,3.2-1.3,4.1s-2.2,1.4-3.9,1.4c-1.7,0-3-0.5-3.9-1.4s-1.3-2.3-1.3-4.1
				s0.4-3.1,1.3-4.1c0.9-0.9,2.2-1.4,3.9-1.4c1.7,0,3,0.5,3.9,1.4S465.1,33.1,465.1,34.9z M457.8,34.9c0,2.1,0.7,3.1,2.2,3.1
				c0.7,0,1.3-0.3,1.6-0.8s0.5-1.3,0.5-2.4c0-1.1-0.2-1.9-0.5-2.4c-0.4-0.5-0.9-0.8-1.6-0.8C458.5,31.7,457.8,32.8,457.8,34.9z"/>
			<path class="st26" d="M474.8,32.9c0,1.2-0.4,2.1-1.1,2.8s-1.7,1-3,1H470v3.6h-2.9V29.5h3.7c1.4,0,2.4,0.3,3,0.9
				S474.8,31.9,474.8,32.9z M470,34.3h0.5c0.4,0,0.8-0.1,1-0.4c0.3-0.2,0.4-0.6,0.4-1c0-0.7-0.4-1.1-1.2-1.1H470V34.3z"/>
			<path class="st26" d="M481.2,40.2l-2.2-7.7l0,0c0.1,1.3,0.2,2.3,0.2,3.1v4.7h-2.6V29.5h3.9l2.2,7.6h0.1l2.2-7.6h3.9v10.7h-2.7
				v-4.7c0-0.2,0-0.5,0-0.8s0-1,0.1-2.2h-0.1l-2.2,7.7C484,40.2,481.2,40.2,481.2,40.2z"/>
			<path class="st26" d="M497.4,40.2H491V29.5h6.4v2.3h-3.5v1.7h3.2v2.3h-3.2v2h3.5V40.2z"/>
			<path class="st26" d="M509.5,40.2h-3.8l-3.9-7.5h-0.1c0.1,1.2,0.1,2.1,0.1,2.7v4.8h-2.6V29.5h3.8l4,7.5l0,0
				c-0.1-1.1-0.1-1.9-0.1-2.6v-4.8h2.6V40.2z"/>
			<path class="st26" d="M516.5,40.2h-2.9v-8.3H511v-2.4h8.1v2.4h-2.6V40.2z"/>
		</g>
	</g>
	<g>
		<g>
			<path class="st26" d="M639,2.1v6.4c0,1.4-0.4,2.5-1.2,3.3s-1.9,1.2-3.4,1.2s-2.6-0.4-3.4-1.1c-0.8-0.7-1.2-1.8-1.2-3.2V2.1h2.9
				v6.3c0,0.8,0.1,1.3,0.4,1.6s0.7,0.5,1.3,0.5s1-0.2,1.3-0.5s0.4-0.9,0.4-1.7V2.1H639z"/>
			<path class="st26" d="M651.4,12.9h-3.8l-3.9-7.5h-0.1c0.1,1.2,0.1,2.1,0.1,2.7v4.8h-2.6V2.1h3.8l3.9,7.4l0,0
				c-0.1-1.1-0.1-1.9-0.1-2.6V2.1h2.6L651.4,12.9L651.4,12.9z"/>
			<path class="st26" d="M653.7,12.9V2.1h2.9v10.7h-2.9V12.9z"/>
			<path class="st26" d="M669,7.5c0,2.4-0.8,4.1-2.3,4.9l2.6,3h-3.6l-1.9-2.4l0,0l0,0l0,0c-1.7,0-3-0.5-3.9-1.4s-1.3-2.3-1.3-4.1
				s0.4-3.1,1.3-4.1c0.9-0.9,2.2-1.4,3.9-1.4s3,0.5,3.9,1.4S669,5.7,669,7.5z M661.6,7.5c0,2.1,0.7,3.1,2.2,3.1
				c0.7,0,1.3-0.3,1.6-0.8c0.4-0.5,0.5-1.3,0.5-2.4s-0.2-1.9-0.5-2.4c-0.4-0.5-0.9-0.8-1.6-0.8C662.3,4.4,661.6,5.4,661.6,7.5z"/>
			<path class="st26" d="M680,2.1v6.4c0,1.4-0.4,2.5-1.2,3.3s-1.9,1.2-3.4,1.2s-2.6-0.4-3.4-1.1c-0.8-0.7-1.2-1.8-1.2-3.2V2.1h2.9
				v6.3c0,0.8,0.1,1.3,0.4,1.6s0.7,0.5,1.3,0.5s1-0.2,1.3-0.5s0.4-0.9,0.4-1.7V2.1H680z"/>
			<path class="st26" d="M688.6,12.9h-6.4V2.1h6.4v2.3h-3.5v1.7h3.2v2.3h-3.2v2h3.5V12.9z"/>
			<path class="st26" d="M629.9,20.1h3.7c1.5,0,2.5,0.2,3.2,0.6s1.1,1.1,1.1,2c0,0.6-0.2,1.1-0.5,1.5s-0.7,0.7-1.2,0.8v0.1
				c0.7,0.2,1.1,0.5,1.4,0.9s0.4,0.9,0.4,1.6c0,1-0.4,1.7-1.1,2.3c-0.7,0.6-1.7,0.8-3,0.8h-4.2V20.1H629.9z M632.8,24.3h0.9
				c0.4,0,0.7-0.1,1-0.3c0.2-0.2,0.3-0.4,0.3-0.8c0-0.6-0.5-0.9-1.4-0.9h-0.8V24.3z M632.8,26.4v2.2h1c0.9,0,1.4-0.4,1.4-1.1
				c0-0.4-0.1-0.6-0.4-0.8c-0.2-0.2-0.6-0.3-1.1-0.3C633.7,26.4,632.8,26.4,632.8,26.4z"/>
			<path class="st26" d="M642.9,27v3.9H640V20.1h3.5c2.9,0,4.4,1.1,4.4,3.2c0,1.2-0.6,2.2-1.8,2.9l3.1,4.7h-3.3l-2.3-3.9
				C643.6,27,642.9,27,642.9,27z M642.9,24.8h0.5c1,0,1.5-0.4,1.5-1.3c0-0.7-0.5-1.1-1.5-1.1h-0.6L642.9,24.8L642.9,24.8z"/>
			<path class="st26" d="M656.7,30.9l-0.5-2h-3.5l-0.5,2H649l3.5-10.8h3.9l3.5,10.8C659.9,30.9,656.7,30.9,656.7,30.9z M655.6,26.5
				l-0.5-1.8c-0.1-0.4-0.2-0.9-0.4-1.5s-0.3-1.1-0.3-1.3c0,0.2-0.1,0.7-0.3,1.2c-0.1,0.6-0.4,1.7-0.9,3.4
				C653.2,26.5,655.6,26.5,655.6,26.5z"/>
			<path class="st26" d="M671.2,30.9h-3.8l-3.9-7.5h-0.1c0.1,1.2,0.1,2.1,0.1,2.7v4.8H661V20.1h3.8l3.9,7.4l0,0
				c-0.1-1.1-0.1-1.9-0.1-2.6v-4.8h2.6V30.9z"/>
			<path class="st26" d="M682.6,25.3c0,1.8-0.5,3.2-1.5,4.1c-1,1-2.4,1.5-4.1,1.5h-3.5V20.1h3.7c1.7,0,3,0.4,4,1.3
				S682.6,23.6,682.6,25.3z M679.6,25.4c0-1-0.2-1.7-0.6-2.2c-0.4-0.5-1-0.7-1.8-0.7h-0.8v6h0.6c0.9,0,1.5-0.3,1.9-0.8
				C679.4,27.2,679.6,26.4,679.6,25.4z"/>
			<path class="st26" d="M684.6,30.9V20.1h2.9v10.7h-2.9V30.9z"/>
			<path class="st26" d="M700,30.9h-3.8l-3.9-7.5h-0.1c0.1,1.2,0.1,2.1,0.1,2.7v4.8h-2.6V20.1h3.8l3.9,7.4l0,0
				c-0.1-1.1-0.1-1.9-0.1-2.6v-4.8h2.6L700,30.9L700,30.9z"/>
			<path class="st26" d="M706.6,24.6h4.6v5.8c-1.3,0.4-2.6,0.6-4.1,0.6c-1.7,0-2.9-0.5-3.8-1.4c-0.9-1-1.4-2.3-1.4-4.1
				c0-1.7,0.5-3.1,1.5-4s2.4-1.4,4.1-1.4c0.7,0,1.3,0.1,1.9,0.2c0.6,0.1,1.1,0.3,1.6,0.5l-0.9,2.3c-0.8-0.4-1.6-0.6-2.5-0.6
				c-0.8,0-1.5,0.3-2,0.8s-0.7,1.3-0.7,2.4c0,1,0.2,1.8,0.6,2.3c0.4,0.5,1,0.8,1.8,0.8c0.4,0,0.8,0,1.2-0.1V27h-1.9L706.6,24.6
				L706.6,24.6z"/>
		</g>
	</g>
	<g>
		<path class="st26" d="M476.7,213.6c0,0.7-0.2,1.3-0.5,1.8s-0.8,0.9-1.5,1.2c-0.6,0.3-1.4,0.4-2.2,0.4c-0.7,0-1.3-0.1-1.8-0.2
			s-1-0.3-1.5-0.5v-2.6c0.6,0.3,1.1,0.5,1.7,0.7s1.1,0.2,1.6,0.2c0.4,0,0.7-0.1,0.9-0.2c0.2-0.1,0.3-0.3,0.3-0.6
			c0-0.1,0-0.3-0.1-0.4c-0.1-0.1-0.2-0.2-0.4-0.3s-0.7-0.3-1.4-0.7c-0.7-0.3-1.2-0.6-1.6-0.9c-0.3-0.3-0.6-0.6-0.8-1
			c-0.2-0.4-0.3-0.8-0.3-1.4c0-1,0.4-1.8,1.1-2.3s1.7-0.8,3-0.8c1.1,0,2.2,0.3,3.4,0.8l-0.9,2.2c-1-0.5-1.9-0.7-2.6-0.7
			c-0.4,0-0.6,0.1-0.8,0.2s-0.3,0.3-0.3,0.5s0.1,0.4,0.3,0.6c0.2,0.2,0.8,0.5,1.8,0.9c0.9,0.4,1.6,0.9,1.9,1.3
			C476.5,212.3,476.7,212.9,476.7,213.6z"/>
		<path class="st26" d="M483,216.8l-2.2-7.7h-0.1c0.1,1.3,0.2,2.3,0.2,3.1v4.7h-2.6v-10.7h3.9l2.2,7.6h0.1l2.2-7.6h3.9v10.7h-2.7
			v-4.7c0-0.2,0-0.5,0-0.8s0-1,0.1-2.2h-0.1l-2.2,7.7H483V216.8z"/>
		<path class="st26" d="M499.4,216.8l-0.5-2h-3.5l-0.5,2h-3.2l3.5-10.8h3.9l3.5,10.8H499.4z M498.3,212.5l-0.5-1.8
			c-0.1-0.4-0.2-0.9-0.4-1.5c-0.2-0.6-0.3-1.1-0.3-1.3c0,0.2-0.1,0.7-0.3,1.2s-0.4,1.7-0.9,3.4L498.3,212.5L498.3,212.5z"/>
		<path class="st26" d="M506.6,212.9v3.9h-2.9v-10.7h3.5c2.9,0,4.4,1.1,4.4,3.2c0,1.2-0.6,2.2-1.8,2.9l3.1,4.7h-3.3l-2.3-3.9
			L506.6,212.9L506.6,212.9z M506.6,210.8h0.5c1,0,1.5-0.4,1.5-1.3c0-0.7-0.5-1.1-1.5-1.1h-0.6v2.4H506.6z"/>
		<path class="st26" d="M518.6,216.8h-2.9v-8.3h-2.6v-2.4h8.1v2.4h-2.6V216.8z"/>
		<path class="st26" d="M476.3,234.8l-0.5-2h-3.5l-0.5,2h-3.2l3.5-10.8h3.9l3.5,10.8H476.3z M475.1,230.5l-0.5-1.8
			c-0.1-0.4-0.2-0.9-0.4-1.5c-0.2-0.6-0.3-1.1-0.3-1.3c0,0.2-0.1,0.7-0.3,1.2s-0.4,1.7-0.9,3.4L475.1,230.5L475.1,230.5z"/>
		<path class="st26" d="M489.7,229.3c0,1.8-0.5,3.2-1.5,4.1s-2.4,1.5-4.1,1.5h-3.5v-10.7h3.7c1.7,0,3,0.4,4,1.3
			S489.7,227.6,489.7,229.3z M486.7,229.4c0-1-0.2-1.7-0.6-2.2s-1-0.7-1.8-0.7h-0.8v6h0.6c0.9,0,1.5-0.3,1.9-0.8
			C486.5,231.2,486.7,230.4,486.7,229.4z"/>
		<path class="st26" d="M500.7,229.3c0,1.8-0.5,3.2-1.5,4.1s-2.4,1.5-4.1,1.5h-3.5v-10.7h3.7c1.7,0,3,0.4,4,1.3
			S500.7,227.6,500.7,229.3z M497.7,229.4c0-1-0.2-1.7-0.6-2.2s-1-0.7-1.8-0.7h-0.8v6h0.6c0.9,0,1.5-0.3,1.9-0.8
			C497.5,231.2,497.7,230.4,497.7,229.4z"/>
		<path class="st26" d="M501.8,232v-2.3h4.1v2.3H501.8z"/>
		<path class="st26" d="M507.4,234.8v-10.7h2.9v10.7H507.4z"/>
		<path class="st26" d="M522.8,234.8H519l-3.9-7.5H515c0.1,1.2,0.1,2.1,0.1,2.7v4.8h-2.6v-10.7h3.8l3.9,7.4l0,0
			c-0.1-1.1-0.1-1.9-0.1-2.6v-4.8h2.6L522.8,234.8L522.8,234.8z"/>
		<path class="st26" d="M532.1,231.6c0,0.7-0.2,1.3-0.5,1.8s-0.8,0.9-1.5,1.2c-0.6,0.3-1.4,0.4-2.2,0.4c-0.7,0-1.3-0.1-1.8-0.2
			s-1-0.3-1.5-0.5v-2.6c0.6,0.3,1.1,0.5,1.7,0.7c0.6,0.2,1.1,0.2,1.6,0.2c0.4,0,0.7-0.1,0.9-0.2c0.2-0.1,0.3-0.3,0.3-0.6
			c0-0.1,0-0.3-0.1-0.4c-0.1-0.1-0.2-0.2-0.4-0.3s-0.7-0.3-1.4-0.7c-0.7-0.3-1.2-0.6-1.6-0.9c-0.3-0.3-0.6-0.6-0.8-1
			s-0.3-0.8-0.3-1.4c0-1,0.4-1.8,1.1-2.3s1.7-0.8,3-0.8c1.1,0,2.2,0.3,3.4,0.8l-0.9,2.2c-1-0.5-1.9-0.7-2.6-0.7
			c-0.4,0-0.6,0.1-0.8,0.2s-0.3,0.3-0.3,0.5s0.1,0.4,0.3,0.6c0.2,0.2,0.8,0.5,1.8,0.9c0.9,0.4,1.6,0.9,1.9,1.3
			C531.9,230.3,532.1,230.9,532.1,231.6z"/>
	</g>
</g>
</svg>
