<svg xmlns="http://www.w3.org/2000/svg" viewBox="0 0 960 280"><defs><style>.cls-1,.cls-12,.cls-14,.cls-16,.cls-17,.cls-19,.cls-28{fill:none;stroke-miterlimit:10;}.cls-1{stroke:#eee;}.cls-1,.cls-28{stroke-width:3px;}.cls-2{fill:#eee;}.cls-3{fill:#efbbbb;}.cls-4{fill:#3d4c51;}.cls-5{fill:#2d2d2d;}.cls-6{fill:#efaca8;}.cls-7{fill:#70bef2;}.cls-8{fill:#fff;}.cls-9{fill:#45555b;}.cls-10{fill:#b77b70;}.cls-11{fill:#005eb8;}.cls-12{stroke:#005eb8;}.cls-13{fill:#ed8b00;}.cls-14{stroke:#ed8b00;}.cls-15{fill:#fbb040;}.cls-16{stroke:#fbb040;}.cls-17{stroke:#fcfcfc;stroke-width:2.77px;}.cls-18{fill:#1a9ba1;}.cls-19{stroke:#1a9ba1;}.cls-20{fill:#37c6d0;}.cls-21{fill:#292949;}.cls-22{fill:#f7ddcb;}.cls-23{fill:#d6eefc;}.cls-24{fill:#036c70;}.cls-25{opacity:0.1;}.cls-25,.cls-26{isolation:isolate;}.cls-26{opacity:0.2;}.cls-27{fill:#03787c;}.cls-28{stroke:#d6eefc;}</style></defs><title>sharepoint-integration-services</title><g id="design"><line class="cls-1" x1="484.48" y1="92.34" x2="372.73" y2="64.12"/><line class="cls-1" x1="260.15" y1="72" x2="372.73" y2="64.12"/><line class="cls-1" x1="260.15" y1="72" x2="404.2" y2="173.84"/><line class="cls-1" x1="260.15" y1="72" x2="263.48" y2="187.56"/><line class="cls-1" x1="260.15" y1="72" x2="149.87" y2="157.14"/><line class="cls-1" x1="263.48" y1="187.56" x2="407.41" y2="174.08"/><line class="cls-1" x1="484.48" y1="92.34" x2="407.41" y2="174.08"/><line class="cls-1" x1="643.67" y1="193.83" x2="484.48" y2="92.34"/><line class="cls-1" x1="584.54" y1="31.88" x2="484.48" y2="92.34"/><line class="cls-1" x1="804.64" y1="82.05" x2="484.48" y2="92.34"/><line class="cls-1" x1="804.64" y1="82.05" x2="584.54" y2="31.88"/><line class="cls-1" x1="804.64" y1="82.05" x2="643.67" y2="193.83"/><line class="cls-1" x1="845.29" y1="158.18" x2="799.95" y2="87.82"/><path class="cls-2" d="M281.84,249.44c-37.39.18-71.58,1.74-108.59,2.22-18.63.24-80-.36-91.87,3.84-18.63,6.6,30.75,6.24,25.65,11.22-1,1-4.72,1.68-7,2.52-4.08,1.56-3.06,3.66,1.28,5.16,19,6.66,88.81,4.74,118.16,4.8,169.58.66,339.55,1.44,508.11-.78,36.37-.48,72.48-1.08,108.72-1.62,16.59-.24,37.26-.9,37.39-2.4.13-3.78-31.39.18-20.93-7.32,3.32-2.4,20.67-2.88,11.87-7-9.7-4.56-31.9-8.1-52.57-9.24-21.05-1.2-42.75-1-64.06-1.38-39.3-.66-78.73-.84-118.16-.9q-134.17-.18-268.22.48Q321.78,249.2,281.84,249.44Z"/><polygon class="cls-3" points="544.23 126.26 544.56 121.42 546.61 121.34 547.18 124.62 548.17 124.13 547.43 128.31 545.22 128.64 544.23 126.26"/><polygon class="cls-4" points="571.3 145.46 555.96 144.14 548.42 125.93 544.15 127.33 548.17 152.43 572.21 156.78 571.3 145.46"/><path class="cls-5" d="M389.67,262.61a2,2,0,0,0-1.64-.74,1.85,1.85,0,0,0-1.39,1.07,6.54,6.54,0,0,0-.25,1.23c-.16,2.13-.16,7.06,2.63,7.79a2.05,2.05,0,0,0,2.46-1.56C392,268.76,391.23,264.41,389.67,262.61Z"/><path class="cls-6" d="M390.66,231l-.16,12.8c.16,5.66-.74,11.4-.57,17.06,0,1.31.41,2.71.08,3.94s-1.31,1.48-2.38.82c-1.39-.82-1.15-2.87-1.39-4.35-.66-4-1.39-8-2.05-12.06-.33-2,.33-4.76.16-6.73l-2.05-10.75Z"/><polygon class="cls-5" points="376.06 210.35 381.63 235.04 382.78 258.42 391.64 258.18 394.02 192.87 376.88 193.2 376.06 210.35"/><path class="cls-5" d="M402.31,262.2a1.67,1.67,0,0,0-1.64-.57,1.86,1.86,0,0,0-1.31,1.15,3.19,3.19,0,0,0-.16,1.23c-.08,2.13.16,7.06,3,7.63a2.1,2.1,0,0,0,2.38-1.72C404.85,268.19,403.95,263.84,402.31,262.2Z"/><path class="cls-6" d="M397.63,232.83l.74,12.8c.08,3.53.57,7.06.9,10.58.33,3.28-.16,6.65,1.56,9.68.57.9,1.64,1.56,2.38.41.57-.9.25-2.3.33-3.36.49-4,1.07-8.12,1.48-12.14.25-2-.57-4.68-.49-6.73l1.56-10.83Z"/><polygon class="cls-5" points="408.79 208.87 409.53 232.83 405.75 257.11 396.73 257.36 397.14 231.1 392.38 209.28 390.82 195.09 405.1 193.37 408.79 208.87"/><polygon class="cls-7" points="397.55 144.31 382.21 143.9 373.27 160.47 376.47 175.97 377.04 194.51 398.86 194.76 406.08 193.61 404.2 173.84 405.26 147.34 397.55 144.31"/><polygon class="cls-6" points="377.04 187.21 376.3 189.76 379.91 192.71 382.7 191.4 383.44 188.44 381.23 187.54 381.39 186.89 380.73 186.15 377.04 187.21"/><polygon class="cls-7" points="382.21 144.47 363.42 165.06 360.63 173.35 375.97 189.43 380.57 186.31 370.81 172.86 380.16 165.97 382.21 144.47"/><polygon class="cls-7" points="396.98 154.32 404.93 170.31 413.55 171.95 430.2 157.93 426.43 153.74 411.74 162.03 403.95 147.34 396.98 154.32"/><path class="cls-6" d="M396.57,131.43c-2.3-6.73-11.16-4.18-13,1.8-1.23,3.94,1.8,8.94,5.91,10.09v.41a14.65,14.65,0,0,0,.16,1.89c0,.25,3.61-.41,3.94-.49.16,0,.33-.08.33-.16.16-.25-.08-.9-.08-1.15s-.08-.57-.08-.9a7,7,0,0,0,3.61-5.17A12.71,12.71,0,0,0,396.57,131.43Z"/><path class="cls-5" d="M390.74,125.36a3.64,3.64,0,0,0-.82,1.8,2.82,2.82,0,0,0-.08,1.15c.33,1.56,1.8,1.48,3,2a7.49,7.49,0,0,1,3.53,3c1.23,2.05.66,4.59.16,6.81-.16.82-.57,2,.08,2.63s2.05.57,2.79.25,1.23-1,2-1.07,1.89.25,2.22-.49a3.38,3.38,0,0,1,.25-.66c.41-.66,1.48.08,2.13-.33.41-.25.41-.82.25-1.31a2.8,2.8,0,0,1-.25-1.39,2.7,2.7,0,0,1,.57-1.07,2,2,0,0,0-.33-2.22c-1-1.15-2.87-.9-3.86-2a4.77,4.77,0,0,1-1-2.05,3.71,3.71,0,0,0-1-2.05c-.74-.66-1.72-.49-2.46-1.23a17.18,17.18,0,0,0-1.15-1.39,9,9,0,0,0-2.54-1.15A3.29,3.29,0,0,0,390.74,125.36Z"/><path class="cls-5" d="M385.16,136.1c-.08,2.22,1.07,4.59,0,6.56s-3.61,2.3-5.74,2.46c-.33,0-5,.41-5,.33a15.65,15.65,0,0,0-1.48-4.43,4.75,4.75,0,0,0-3.69-2.54c.41-.08.66-.66.66-1.07s-.33-.9-.41-1.31a3.12,3.12,0,0,1,.82-3.12c1.64-1.56,4.59-.9,6-2.63.9-1.07.74-2.63,1.23-3.94.9-2.54,3.69-3.12,5.74-4.27a10,10,0,0,1,6.81-1.48c3.2.49,5.5,3.77,4.27,6.81-1.56,3.86-7.79,3.53-9,7.47A3.8,3.8,0,0,0,385.16,136.1Z"/><polygon class="cls-8" points="386.72 144.14 391.48 150.87 393.69 150.71 397.47 143.9 386.72 144.14"/><path class="cls-4" d="M559.33,149l4.59-4.43,12.31.82s1.23,8.78,6.81,28.39-2.63,44.55-2.63,44.55-31.75-7.55-38.15-8.78l8-35.85Z"/><polygon class="cls-9" points="569.5 196.24 569.5 203.21 560.15 233.48 562.45 264.99 556.62 266.14 547.35 227.66 547.68 216.34 551.94 193.28 569.5 196.24"/><polygon class="cls-9" points="562.03 204.52 571.47 268.6 575.65 268.6 578.36 233.65 584.18 198.7 562.03 204.52"/><polygon class="cls-5" points="557.44 265.56 552.93 270.24 554.24 272.62 563.43 268.19 561.71 264.74 557.44 265.56"/><polygon class="cls-5" points="571.55 267.69 566.05 271.14 566.71 273.76 576.64 271.8 575.9 268.02 571.55 267.69"/><path class="cls-10" d="M569.5,126.5c2.63,2.79,7.3,2.87,9.52,5.91,1.48,2,1.39,4.84.33,7.14a5.8,5.8,0,0,1-2.22,2.63,6.6,6.6,0,0,1-2.13.74,8.93,8.93,0,0,1-3-.08,15.1,15.1,0,0,0-.25,2.71c-1.72-.66-4-.08-5.74-.82.41-1,1.31-3.28,1.72-4.27a12.93,12.93,0,0,1-1-1.23,9,9,0,0,1-.16-9.19A15,15,0,0,1,569.5,126.5Z"/><polygon class="cls-5" points="569.42 127.98 579.02 134.79 574.67 142.91 578.85 143.24 587.47 131.34 575.49 119.94 567.45 118.22 564.82 121.5 566.63 128.97 569.42 127.98"/><path class="cls-8" d="M563.35,145l16.65.08s2.46,5.74,8,25.35S585.42,215,585.42,215,557,201,550.63,199.77l4.59-29.37Z"/><path class="cls-4" d="M588.29,170.89c-5.58-19.61-8.2-25.76-8.2-25.76l-16.16-.57v.08c.33.82.66,1.56.9,2.38a57.41,57.41,0,0,1,2.38,9.84,100.48,100.48,0,0,1,.82,17.88,106.45,106.45,0,0,1-1.8,17A109.16,109.16,0,0,1,560,213.38C572.86,216,588,219.13,588,219.13S593.87,190.5,588.29,170.89Z"/><path class="cls-11" d="M557.36,175.4c-.66,2.63-1.31,5.58-.74,8.2,0,0,1.72,3.61,1.89,3.45a15.25,15.25,0,0,0,2.54-3,18.07,18.07,0,0,0,1.15-7c.08-8.29-.41-16.57,1-24.69,1.64-.49,3-1.72,2.05-3.36-3.2,1.23-3.53,8.29-4.18,11.24C559.74,165.31,558.51,170.4,557.36,175.4Z"/><polygon class="cls-6" points="428.64 159.16 429.87 156.86 427.08 153.17 424.05 153.82 422.65 156.53 424.62 157.84 424.38 158.5 424.79 159.4 428.64 159.16"/><circle class="cls-11" cx="404.59" cy="174.42" r="27.5"/><circle class="cls-12" cx="404.59" cy="174.42" r="30"/><circle class="cls-13" cx="371.17" cy="63.77" r="27.5"/><circle class="cls-14" cx="371.17" cy="63.77" r="30"/><circle class="cls-15" cx="584.35" cy="33" r="30"/><circle class="cls-16" cx="584.35" cy="33" r="32.5"/><path class="cls-8" d="M593,41.5V40.38a8.54,8.54,0,0,0-8.5-8.5h0a8.54,8.54,0,0,0-8.5,8.5V41.5S583.51,46.83,593,41.5Z"/><path class="cls-8" d="M589.12,26.36a4.59,4.59,0,0,1-4.58,4.58,4.63,4.63,0,1,1,0-9.25,4.61,4.61,0,0,1,4.58,4.67Z"/><path class="cls-17" d="M583.89,51.41a18.56,18.56,0,0,1-17.94-18.5,16.37,16.37,0,0,1,.37-3.74"/><polygon class="cls-8" points="569.87 31.5 568.37 23.93 562.49 28.98 569.87 31.5"/><path class="cls-17" d="M600.9,24.21a18,18,0,0,1,2.15,8.6A18.57,18.57,0,0,1,591,50.2"/><polygon class="cls-8" points="591.18 46.08 585.57 51.41 592.95 53.56 591.18 46.08"/><path class="cls-17" d="M569,22.72a18.62,18.62,0,0,1,27.85-3.64"/><polygon class="cls-8" points="593.05 20.85 600.43 23.37 598.93 15.71 593.05 20.85"/><path class="cls-18" d="M119.72,156.48a32.53,32.53,0,0,1,32.5-32.5c17.93,0,34.18,14.57,34.18,32.5S170.15,189,152.22,189A32.53,32.53,0,0,1,119.72,156.48Z"/><path class="cls-19" d="M117.16,156.48a35,35,0,0,1,35-35c19.31,0,36.81,15.69,36.81,35s-17.5,35-36.81,35A35,35,0,0,1,117.16,156.48Z"/><path class="cls-8" d="M151.87,169.73a5.69,5.69,0,0,0-5.65,5.65h11.3A5.69,5.69,0,0,0,151.87,169.73Z"/><path class="cls-8" d="M137.12,138.91v36.47H139v-1.5a1.3,1.3,0,0,1,1.32-1.32h1a11.13,11.13,0,0,1,1.06-2.56l-.62-.62a1.33,1.33,0,0,1-.35-1,1.85,1.85,0,0,1,.35-1l2.21-2.21a1.28,1.28,0,0,1,1.85,0l.62.62a10.5,10.5,0,0,1,2.56-1.06v-1a1.3,1.3,0,0,1,1.32-1.32h3a1.3,1.3,0,0,1,1.32,1.32v1a11.13,11.13,0,0,1,2.56,1.06l.62-.62a1.36,1.36,0,0,1,1.85,0l2.21,2.21a1.33,1.33,0,0,1,.35,1,1.85,1.85,0,0,1-.35,1l-.62.62a10.5,10.5,0,0,1,1.06,2.56h1a1.25,1.25,0,0,1,1.32,1.32v1.5h1.68V138.91Zm3.62,3.44H149v8.3h-8.3Zm22.34,16.87a1.17,1.17,0,0,1-1.15,1.15H142a1.17,1.17,0,0,1-1.15-1.15h0a1.17,1.17,0,0,1,1.15-1.15h20a1.17,1.17,0,0,1,1.15,1.15Zm0-5.21a1.17,1.17,0,0,1-1.15,1.15H142a1.17,1.17,0,0,1-1.15-1.15h0a1.17,1.17,0,0,1,1.15-1.15h20a1.17,1.17,0,0,1,1.15,1.15Zm0-5.12a1.17,1.17,0,0,1-1.15,1.15h-8.48a1.17,1.17,0,0,1-1.15-1.15h0a1.17,1.17,0,0,1,1.15-1.15h8.48a1.06,1.06,0,0,1,1.15,1.15Zm-1.24-3.8h-8.48a1.15,1.15,0,0,1,0-2.3h8.48a1.17,1.17,0,0,1,1.15,1.15A1.11,1.11,0,0,1,161.85,145.09Z"/><circle class="cls-11" cx="640.48" cy="189.83" r="32.5"/><circle class="cls-12" cx="640.48" cy="189.83" r="35"/><circle class="cls-11" cx="260.82" cy="71.5" r="40"/><circle class="cls-12" cx="260.82" cy="71.5" r="42.5"/><path class="cls-8" d="M239.81,85.28a4.17,4.17,0,0,0,0,5.71,4.06,4.06,0,0,0,5.71,0L258.8,77.72,253.09,72Z"/><polygon class="cls-8" points="272.92 60.74 278.63 57.72 281.66 51.84 278.97 49.15 273.09 52.17 270.06 57.89 263 64.95 265.86 67.8 272.92 60.74"/><path class="cls-8" d="M274.26,76h-.5a8.54,8.54,0,0,0-2.86.5L254.26,59.9a7.85,7.85,0,0,0,.5-2.86v-.5A8.09,8.09,0,0,0,246.7,49a9,9,0,0,0-3.53.84l5.38,5.38a3.52,3.52,0,0,1,.67,1,2.65,2.65,0,0,1-.67,2.86,2.7,2.7,0,0,1-1.85.84,2.13,2.13,0,0,1-1-.17,3.52,3.52,0,0,1-1-.67l-5.38-5.38a7.81,7.81,0,0,0-.84,3.53A8.21,8.21,0,0,0,246,65.28h.5a8.54,8.54,0,0,0,2.86-.5L266,81.42a7.85,7.85,0,0,0-.5,2.86v.5a8.09,8.09,0,0,0,8.07,7.56,9,9,0,0,0,3.53-.84l-5.38-5.38a3.52,3.52,0,0,1-.67-1,2.65,2.65,0,0,1,.67-2.86,2.7,2.7,0,0,1,1.85-.84,2.13,2.13,0,0,1,1,.17,3.52,3.52,0,0,1,1,.67L281,87.63a7.81,7.81,0,0,0,.84-3.53A8.22,8.22,0,0,0,274.26,76Z"/><polygon class="cls-10" points="262.87 116.82 262.13 111.98 260.08 112.07 259.83 115.43 258.77 115.02 259.92 119.12 262.13 119.28 262.87 116.82"/><polygon class="cls-4" points="232.76 140.53 254.91 136.19 258.77 116.82 263.03 117.89 261.8 144.72 239.73 152.1 232.76 140.53"/><polygon class="cls-5" points="239.24 267.78 239.24 270.07 245.07 272.94 247.94 270.07 245.07 267.12 244.66 267.12 244.57 267.78 239.24 267.78"/><polygon class="cls-5" points="239.24 267.78 244.57 267.78 244.66 267.12 239.24 267.12 239.24 267.78"/><path class="cls-4" d="M257.7,200q-.49-5.66-1.23-11.32a137.52,137.52,0,0,0-4.35-22.31c-.82-2.79-1.72-5.5-2.71-8.29-1.15-3.36-2.3-6.65-3.45-10-1.39-4.18-3.86-7.06-8-8.53a11.2,11.2,0,0,0-2.38-.57.3.3,0,0,1-.08.25,2.76,2.76,0,0,1-.41,1.15h2.79s7.79,27.32,8.12,32c.08,1.8.49,5.66.9,9.76.66,6.48,1.39,13.54,1.39,13.54s-3.45.08-8.37.41H241c3.45,0,7.06,1.39,10.34,2.38a2.4,2.4,0,0,0,.74.16,10.43,10.43,0,0,1,3.53,2.13C257.21,201.9,257.95,202.31,257.7,200Z"/><path class="cls-4" d="M231.12,138.65c-6.23.41-12.63,3.69-14.44,9.76a8.71,8.71,0,0,0-.33,1.56c-.25,3.12.74,5.41-.16,8.61-.82,2.71-1.48,5.5-2.05,8.29-.74,4-1.48,8-2,12.06A121,121,0,0,0,211,192.22c0,.49-.08,1.89-.16,3.45-.08,3.45-.08,8,1.39,8.12a2.4,2.4,0,0,0,.74-.16,41.91,41.91,0,0,0,4.92-3.12,12.68,12.68,0,0,1,1.8-1,33.57,33.57,0,0,1,4-1.48c-2.38.16-2.63-.33-2.63-.33s2.13-8.53,3.61-16a65.28,65.28,0,0,0,1.39-9.27c.16-5.74.9-24.86.9-24.86l3.61-7.3h.49A3.67,3.67,0,0,0,231.12,138.65Z"/><path class="cls-9" d="M251.3,198.45c-3.28-1-6.89-2.38-10.34-2.38H239.9c-.33,0-.66.08-.9.08-2.3.16-4.92.41-7.63.74a.74.74,0,0,0-.41.08,50.32,50.32,0,0,1-7.22,1.15,16.83,16.83,0,0,0-4,1.48c-.66.33-1.23.66-1.8,1v3.69l6.65,62.92H230v.66h0l5.82-57.59.08,15.1,3.28,42.41h0v-.66h5.41l6.32-47.25Z"/><polygon class="cls-5" points="224.47 267.12 224.06 267.12 221.19 270.07 224.06 272.94 229.89 270.07 229.89 267.78 224.56 267.78 224.47 267.12"/><polygon class="cls-5" points="224.47 267.12 224.56 267.78 229.89 267.78 229.89 267.12 224.47 267.12"/><path class="cls-8" d="M234.81,140.53a1.14,1.14,0,0,1-.74,0c-.9-.08-1.8-.25-2.71-.33h-.66l-3.61,7.3s-.74,19.12-.9,24.86a77.65,77.65,0,0,1-1.39,9.27l4-.57-.33-1.8,2.13.33-.16-.25.9-35.19-.57-2.3a1,1,0,0,1,1-1.23h3.61a1,1,0,0,1,.82,1.64l-1.48,1.89,3.86,35.44,2.22-.33-.16,1.8,6.4.9c-.41-4.1-.74-8-.9-9.76-.25-4.68-8.12-32-8.12-32h-2.79l-.08.08C235,140.45,234.89,140.53,234.81,140.53Z"/><path class="cls-8" d="M239,196.16c.33,0,.66-.08.9-.08a3.08,3.08,0,0,0-.9.08Z"/><path class="cls-8" d="M239,196.07h.9c4.92-.41,8.37-.41,8.37-.41s-.74-7.06-1.39-13.54l-6.4-.9Z"/><polygon class="cls-8" points="230.54 179.67 228.41 179.42 228.74 181.14 231.2 180.81 230.54 179.67"/><path class="cls-8" d="M228.08,197.22a41,41,0,0,0-4.35.9A41.74,41.74,0,0,0,231,197a.74.74,0,0,0,.41-.08v-.16Z"/><polygon class="cls-8" points="238.09 180.81 240.55 181.14 240.72 179.42 238.5 179.75 238.59 180.32 238.09 180.81"/><path class="cls-8" d="M231.28,196.73l-2.63-15.59-4,.57c-1.48,7.47-3.61,16-3.61,16s.33.41,2.63.33a37.1,37.1,0,0,1,4.35-.9C229.15,197.06,230.22,196.89,231.28,196.73Z"/><path class="cls-8" d="M231.28,196.73v.16c2.71-.33,5.33-.57,7.63-.74v-.08C236.45,196.24,233.83,196.4,231.28,196.73Z"/><path class="cls-8" d="M239,196.07l1.56-14.93-2.46-.33-4.35,4.27-2.54-4.27-2.46.33,2.63,15.59C233.83,196.4,236.45,196.24,239,196.07Z"/><path class="cls-20" d="M238.5,179.75l-3.86-35.44,1.48-1.89a1,1,0,0,0-.82-1.64h-3.61a1,1,0,0,0-1,1.23l.57,2.3-.9,35.19.16.25,4,.57Z"/><polygon class="cls-20" points="234.56 180.32 230.54 179.67 231.2 180.81 234.56 180.32"/><polygon class="cls-20" points="238.09 180.81 238.59 180.32 238.5 179.75 234.56 180.32 238.09 180.81"/><polygon class="cls-20" points="231.2 180.81 233.74 185.08 238.09 180.81 234.56 180.32 231.2 180.81"/><path class="cls-10" d="M235.63,138.89c.33-1.56,2.05-2.22,3-3.61a11.84,11.84,0,0,0,1.8-5.17V130c-.16.08-.25.16-.41.16a5.21,5.21,0,0,1,.33-2.22.7.7,0,0,0,0-.57,18.69,18.69,0,0,1-3.61-1.15c-2.05-.9-5.91-1.8-8-.74-1.64.82-1.15,3.45-1.07,5.09a3.13,3.13,0,0,1-.08,1.23,4.24,4.24,0,0,1-.49,1.07,4.36,4.36,0,0,0,1,1.8c1.31,1.48,2.71,2.22,3,3.94A21,21,0,0,1,235.63,138.89Z"/><path class="cls-10" d="M231.2,140.21h4a2.76,2.76,0,0,0,.41-1.15.3.3,0,0,1,.08-.25,20.55,20.55,0,0,0-4.51-.25A11,11,0,0,1,231.2,140.21Z"/><path class="cls-10" d="M234.07,140.62a2.23,2.23,0,0,0,.74,0,.62.62,0,0,0,.33-.16l.08-.08h-3.86A15.1,15.1,0,0,1,234.07,140.62Z"/><path class="cls-5" d="M245.39,119.29c-.66-.49-1.48-.82-1.89-1.56a17.18,17.18,0,0,1-.66-1.89c-.57-1.07-1.8-1.31-3-1.72-2.71-.9-4.18-1.89-7.06-.74-2.05.82-4.68.9-6.65,2.05a6.4,6.4,0,0,0-2.05,2.13A12,12,0,0,0,223,128a14.69,14.69,0,0,0,1,2c.74,1.23,1.56,2.79,3,3.36,0-.16.08-.25.16-.41a4.24,4.24,0,0,0,.49-1.07,6.21,6.21,0,0,0,.08-1.23c-.08-1.64-.57-4.27,1.07-5.09,2.05-1.07,6-.08,8,.74a18.69,18.69,0,0,0,3.61,1.15,1,1,0,0,0-.08-.49c.08.16.08.33.16.49h-.08V128a5.21,5.21,0,0,0-.33,2.22c.16-.08.33-.08.41-.16a4.31,4.31,0,0,0,1.89-2.54c.41-.08.82-.16,1.15-.25,1.72-.74,3.2-3.86,3.12-5.74A2.69,2.69,0,0,0,245.39,119.29Z"/><path class="cls-21" d="M240.31,126.91c0,.16.08.33.08.49h.08C240.39,127.24,240.39,127.08,240.31,126.91Z"/><polygon class="cls-10" points="235.3 168.02 238.42 167.85 240.14 165.72 240.8 165.88 240.64 166.7 242.6 165.39 244.49 165.56 245.8 167.77 245.39 170.4 243.1 171.38 240.06 171.05 235.79 171.54 235.3 168.02"/><polygon class="cls-4" points="236.94 166.54 219.96 166.95 223.41 140.94 211.84 152.35 210.12 176.38 216.35 179.75 239.49 172.37 236.94 166.54"/><circle class="cls-2" cx="485.74" cy="94.18" r="68.22"/><polygon class="cls-10" points="533.16 136.1 531.35 131.43 533.24 130.53 535.21 133.48 535.95 132.66 537.01 136.84 535.13 137.99 533.16 136.1"/><polygon class="cls-4" points="574.59 151.2 554.08 153.17 537.18 135.28 533.49 137.83 547.02 161.45 574.59 166.05 574.59 151.2"/><path class="cls-7" d="M626.43,4a1.84,1.84,0,0,0-1.61.85,4.08,4.08,0,0,0-.58,2.33q0,3.09,2.35,3.09A4.82,4.82,0,0,0,628,10a13.78,13.78,0,0,0,1.34-.48V12a7.42,7.42,0,0,1-3,.59,4.8,4.8,0,0,1-3.72-1.41,5.8,5.8,0,0,1-1.29-4.06,6.49,6.49,0,0,1,.63-2.92,4.49,4.49,0,0,1,1.8-1.94,5.45,5.45,0,0,1,2.77-.68,7.62,7.62,0,0,1,3.32.75l-.89,2.28a10,10,0,0,0-1.19-.47A4.15,4.15,0,0,0,626.43,4Z"/><path class="cls-7" d="M640.5,1.75V8.19a4.33,4.33,0,0,1-1.19,3.26,4.74,4.74,0,0,1-3.43,1.15,4.69,4.69,0,0,1-3.37-1.12,4.24,4.24,0,0,1-1.18-3.22V1.75h2.91V8a2.57,2.57,0,0,0,.42,1.65,1.83,1.83,0,0,0,2.54,0,2.72,2.72,0,0,0,.4-1.67V1.75Z"/><path class="cls-7" d="M649.75,9.2a3.16,3.16,0,0,1-.5,1.77,3.3,3.3,0,0,1-1.46,1.2,5.39,5.39,0,0,1-2.23.43,9,9,0,0,1-1.79-.15,6.64,6.64,0,0,1-1.51-.52V9.35A8.64,8.64,0,0,0,644,10a6.41,6.41,0,0,0,1.64.24,1.59,1.59,0,0,0,.94-.22.69.69,0,0,0,.3-.58.64.64,0,0,0-.12-.38,1.4,1.4,0,0,0-.39-.33q-.27-.17-1.42-.69a6.8,6.8,0,0,1-1.57-.92,2.83,2.83,0,0,1-.78-1,3.41,3.41,0,0,1-.25-1.37,2.74,2.74,0,0,1,1.08-2.31,4.75,4.75,0,0,1,3-.83,8.3,8.3,0,0,1,3.39.77l-.89,2.23a6.42,6.42,0,0,0-2.59-.69,1.35,1.35,0,0,0-.82.2.6.6,0,0,0-.26.49.7.7,0,0,0,.33.56,12.41,12.41,0,0,0,1.77.91,4.89,4.89,0,0,1,1.92,1.34A2.91,2.91,0,0,1,649.75,9.2Z"/><path class="cls-7" d="M656.13,12.45h-2.89V4.11h-2.61V1.75h8.12V4.11h-2.61Z"/><path class="cls-7" d="M670.29,7.09A5.78,5.78,0,0,1,669,11.19a6,6,0,0,1-7.75,0,5.75,5.75,0,0,1-1.34-4.12A5.72,5.72,0,0,1,661.21,3,6.06,6.06,0,0,1,669,3,5.78,5.78,0,0,1,670.29,7.09Zm-7.37,0q0,3.11,2.16,3.11a1.86,1.86,0,0,0,1.63-.75,4.13,4.13,0,0,0,.53-2.35,4.17,4.17,0,0,0-.54-2.37A1.84,1.84,0,0,0,665.1,4Q662.92,4,662.92,7.09Z"/><path class="cls-7" d="M676.89,12.45,674.7,4.74h-.07q.15,2,.15,3.06v4.65h-2.56V1.75h3.85l2.23,7.6h.06l2.19-7.6h3.86V12.45h-2.66V7.76c0-.24,0-.52,0-.81s0-1,.1-2.19h-.07l-2.16,7.7Z"/><path class="cls-7" d="M693.08,12.45h-6.36V1.75h6.36V4.07h-3.46V5.75h3.21V8.07h-3.21v2h3.46Z"/><path class="cls-7" d="M697.85,8.56v3.9H695V1.75h3.51q4.37,0,4.37,3.16A3.16,3.16,0,0,1,701,7.79l3.12,4.67h-3.28l-2.27-3.9Zm0-2.18h.54q1.52,0,1.52-1.34,0-1.11-1.49-1.11h-.57Z"/><path class="cls-7" d="M711.9,8.56v3.9H709V1.75h3.51q4.37,0,4.37,3.16a3.16,3.16,0,0,1-1.82,2.88l3.12,4.67H714.9l-2.27-3.9Zm0-2.18h.54Q714,6.38,714,5q0-1.11-1.49-1.11h-.57Z"/><path class="cls-7" d="M725.51,12.45h-6.36V1.75h6.36V4.07H722V5.75h3.21V8.07H722v2h3.46Z"/><path class="cls-7" d="M727.39,12.45V1.75h2.89v8.37h4.12v2.34Z"/><path class="cls-7" d="M742.69,12.45l-.53-2h-3.48l-.54,2H735L738.45,1.7h3.86l3.54,10.75Zm-1.13-4.38-.46-1.76q-.16-.59-.39-1.52t-.3-1.33q-.07.37-.26,1.23t-.86,3.38Z"/><path class="cls-7" d="M751.73,12.45h-2.89V4.11h-2.62V1.75h8.12V4.11h-2.61Z"/><path class="cls-7" d="M755.87,12.45V1.75h2.91V12.45Z"/><path class="cls-7" d="M771.11,7.09a5.78,5.78,0,0,1-1.33,4.11,6,6,0,0,1-7.75,0,5.75,5.75,0,0,1-1.34-4.12A5.71,5.71,0,0,1,762,3a6.06,6.06,0,0,1,7.76,0A5.78,5.78,0,0,1,771.11,7.09Zm-7.37,0q0,3.11,2.16,3.11a1.86,1.86,0,0,0,1.63-.75,4.14,4.14,0,0,0,.53-2.35,4.16,4.16,0,0,0-.54-2.37A1.84,1.84,0,0,0,765.92,4Q763.75,4,763.74,7.09Z"/><path class="cls-7" d="M783.24,12.45h-3.79l-3.91-7.54h-.07q.14,1.78.14,2.72v4.83H773V1.75h3.78l3.9,7.44h0q-.1-1.62-.1-2.6V1.75h2.58Z"/><path class="cls-7" d="M792.56,9.2a3.16,3.16,0,0,1-.51,1.77,3.3,3.3,0,0,1-1.46,1.2,5.4,5.4,0,0,1-2.23.43,9,9,0,0,1-1.79-.15,6.63,6.63,0,0,1-1.51-.52V9.35a8.59,8.59,0,0,0,1.72.66,6.41,6.41,0,0,0,1.64.24,1.6,1.6,0,0,0,.95-.22.69.69,0,0,0,.3-.58.64.64,0,0,0-.12-.38,1.45,1.45,0,0,0-.39-.33q-.27-.17-1.42-.69a6.85,6.85,0,0,1-1.57-.92,2.82,2.82,0,0,1-.78-1,3.38,3.38,0,0,1-.25-1.37,2.75,2.75,0,0,1,1.08-2.31,4.75,4.75,0,0,1,3-.83,8.31,8.31,0,0,1,3.39.77l-.89,2.23a6.42,6.42,0,0,0-2.59-.69,1.35,1.35,0,0,0-.82.2.6.6,0,0,0-.26.49.71.71,0,0,0,.33.56,12.36,12.36,0,0,0,1.77.91A4.9,4.9,0,0,1,792,7.4,2.9,2.9,0,0,1,792.56,9.2Z"/><path class="cls-7" d="M803.39,12.45h-2.91V8.09h-3.36v4.37h-2.91V1.75h2.91v4h3.36v-4h2.91Z"/><path class="cls-7" d="M805.71,12.45V1.75h2.91V12.45Z"/><path class="cls-7" d="M818.7,5.15a3.59,3.59,0,0,1-1.06,2.77,4.27,4.27,0,0,1-3,1h-.81v3.55h-2.89V1.75h3.71a4.53,4.53,0,0,1,3,.89A3.16,3.16,0,0,1,818.7,5.15Zm-4.88,1.39h.53a1.44,1.44,0,0,0,1-.37,1.33,1.33,0,0,0,.38-1q0-1.08-1.2-1.08h-.75Z"/><path class="cls-7" d="M626.33,30.45l-2.19-7.71h-.07q.15,2,.15,3.06v4.65h-2.56V19.75h3.85l2.23,7.6h.06l2.19-7.6h3.86V30.45H631.2V25.76q0-.37,0-.81t.1-2.19h-.07l-2.16,7.7Z"/><path class="cls-7" d="M642.73,30.45l-.53-2h-3.48l-.54,2H635L638.5,19.7h3.86l3.54,10.75Zm-1.13-4.38-.46-1.76q-.16-.59-.39-1.52t-.3-1.33c0,.25-.13.66-.26,1.23s-.42,1.7-.86,3.38Z"/><path class="cls-7" d="M657.25,30.45h-3.79l-3.91-7.54h-.07q.14,1.78.14,2.72v4.83h-2.56V19.75h3.78l3.9,7.44h0q-.1-1.62-.1-2.6V19.75h2.58Z"/><path class="cls-7" d="M666.14,30.45l-.53-2h-3.48l-.54,2h-3.18L661.9,19.7h3.86l3.54,10.75ZM665,26.07l-.46-1.76q-.16-.59-.39-1.52t-.3-1.33q-.07.37-.26,1.23t-.86,3.38Z"/><path class="cls-7" d="M674.76,24.19h4.62V30a12.71,12.71,0,0,1-4.14.64,5,5,0,0,1-3.83-1.44,5.75,5.75,0,0,1-1.35-4.09,5.38,5.38,0,0,1,1.48-4,5.69,5.69,0,0,1,4.15-1.44,9.18,9.18,0,0,1,1.91.19,8.07,8.07,0,0,1,1.56.48l-.92,2.27A5.66,5.66,0,0,0,675.7,22a2.42,2.42,0,0,0-2,.82,3.56,3.56,0,0,0-.69,2.35,3.61,3.61,0,0,0,.63,2.29,2.17,2.17,0,0,0,1.81.79,5.3,5.3,0,0,0,1.19-.12V26.42h-1.91Z"/><path class="cls-7" d="M687.92,30.45h-6.36V19.75h6.36v2.32h-3.46v1.68h3.21v2.32h-3.21v2h3.46Z"/><path class="cls-7" d="M694.46,30.45l-2.19-7.71h-.07q.16,2,.15,3.06v4.65h-2.56V19.75h3.85l2.23,7.6h.06l2.19-7.6H702V30.45h-2.66V25.76q0-.37,0-.81t.1-2.19h-.07l-2.16,7.7Z"/><path class="cls-7" d="M710.65,30.45h-6.36V19.75h6.36v2.32h-3.46v1.68h3.21v2.32h-3.21v2h3.46Z"/><path class="cls-7" d="M722.72,30.45h-3.79L715,22.91H715q.14,1.78.14,2.72v4.83h-2.56V19.75h3.78l3.9,7.44h0q-.1-1.62-.1-2.6V19.75h2.58Z"/><path class="cls-7" d="M729.76,30.45h-2.89V22.11h-2.62V19.75h8.12v2.37h-2.61Z"/><path class="cls-7" d="M256,11.14h-5.51V1.86H256v2h-3V5.33h2.78v2H253V9.1h3Z"/><path class="cls-7" d="M266.5,11.14h-3.29L259.82,4.6h-.06q.12,1.54.12,2.35v4.18h-2.22V1.86h3.28l3.38,6.45h0q-.09-1.4-.09-2.25V1.86h2.23Z"/><path class="cls-7" d="M272.6,11.14h-2.51V3.91h-2.27v-2h7v2H272.6Z"/><path class="cls-7" d="M281.7,11.14h-5.51V1.86h5.51v2h-3V5.33h2.78v2H278.7V9.1h3Z"/><path class="cls-7" d="M285.83,7.76v3.38h-2.51V1.86h3q3.78,0,3.78,2.74a2.74,2.74,0,0,1-1.57,2.49l2.7,4h-2.84l-2-3.38Zm0-1.89h.47q1.31,0,1.31-1.16,0-1-1.29-1h-.5Z"/><path class="cls-7" d="M298.86,4.81a3.11,3.11,0,0,1-.92,2.4,3.7,3.7,0,0,1-2.61.85h-.7v3.08h-2.51V1.86h3.21a3.93,3.93,0,0,1,2.64.77A2.74,2.74,0,0,1,298.86,4.81ZM294.63,6h.46a1.25,1.25,0,0,0,.9-.32,1.15,1.15,0,0,0,.33-.88q0-.94-1-.94h-.65Z"/><path class="cls-7" d="M302.84,7.76v3.38h-2.51V1.86h3q3.78,0,3.78,2.74a2.74,2.74,0,0,1-1.57,2.49l2.7,4h-2.84l-2-3.38Zm0-1.89h.47q1.31,0,1.31-1.16,0-1-1.29-1h-.5Z"/><path class="cls-7" d="M309.13,11.14V1.86h2.52v9.28Z"/><path class="cls-7" d="M319.73,8.32a2.74,2.74,0,0,1-.44,1.53,2.87,2.87,0,0,1-1.26,1,4.69,4.69,0,0,1-1.94.37,7.9,7.9,0,0,1-1.56-.13,5.78,5.78,0,0,1-1.31-.45V8.45a7.5,7.5,0,0,0,1.49.57,5.55,5.55,0,0,0,1.42.21A1.38,1.38,0,0,0,317,9a.59.59,0,0,0,.26-.5.54.54,0,0,0-.1-.33,1.19,1.19,0,0,0-.34-.29q-.23-.15-1.23-.6a6,6,0,0,1-1.36-.8,2.47,2.47,0,0,1-.67-.89,3,3,0,0,1-.22-1.19,2.38,2.38,0,0,1,.93-2,4.11,4.11,0,0,1,2.56-.72,7.2,7.2,0,0,1,2.94.67L319,4.33a5.57,5.57,0,0,0-2.25-.6,1.17,1.17,0,0,0-.71.17.52.52,0,0,0-.22.42.62.62,0,0,0,.28.49,10.83,10.83,0,0,0,1.53.79,4.24,4.24,0,0,1,1.67,1.16A2.51,2.51,0,0,1,319.73,8.32Z"/><path class="cls-7" d="M326.67,11.14h-5.51V1.86h5.51v2h-3V5.33h2.78v2h-2.78V9.1h3Z"/><path class="cls-7" d="M334.18,7.76v3.38h-2.51V1.86h3q3.78,0,3.78,2.74a2.74,2.74,0,0,1-1.57,2.49l2.7,4h-2.84l-2-3.38Zm0-1.89h.47q1.31,0,1.31-1.16,0-1-1.29-1h-.5Z"/><path class="cls-7" d="M346,11.14h-5.51V1.86H346v2h-3V5.33h2.78v2H343V9.1h3Z"/><path class="cls-7" d="M353.67,8.32a2.74,2.74,0,0,1-.44,1.53,2.87,2.87,0,0,1-1.26,1,4.69,4.69,0,0,1-1.94.37,7.9,7.9,0,0,1-1.56-.13,5.78,5.78,0,0,1-1.31-.45V8.45a7.5,7.5,0,0,0,1.49.57,5.55,5.55,0,0,0,1.42.21,1.38,1.38,0,0,0,.82-.19.59.59,0,0,0,.26-.5.54.54,0,0,0-.1-.33,1.19,1.19,0,0,0-.34-.29q-.23-.15-1.23-.6a6,6,0,0,1-1.36-.8,2.47,2.47,0,0,1-.67-.89,3,3,0,0,1-.22-1.19,2.38,2.38,0,0,1,.93-2,4.11,4.11,0,0,1,2.56-.72,7.2,7.2,0,0,1,2.94.67l-.77,1.94a5.57,5.57,0,0,0-2.25-.6,1.17,1.17,0,0,0-.71.17.52.52,0,0,0-.22.42.62.62,0,0,0,.28.49,10.83,10.83,0,0,0,1.53.79,4.24,4.24,0,0,1,1.67,1.16A2.51,2.51,0,0,1,353.67,8.32Z"/><path class="cls-7" d="M363.79,6.49A5,5,0,0,1,362.64,10a5.22,5.22,0,0,1-6.71,0,5,5,0,0,1-1.17-3.57,5,5,0,0,1,1.16-3.54,5.25,5.25,0,0,1,6.73,0A5,5,0,0,1,363.79,6.49Zm-6.39,0q0,2.69,1.87,2.69a1.61,1.61,0,0,0,1.41-.65,3.59,3.59,0,0,0,.46-2,3.6,3.6,0,0,0-.47-2.05,1.59,1.59,0,0,0-1.39-.66Q357.41,3.77,357.41,6.49Z"/><path class="cls-7" d="M373.36,1.86V7.45a3.75,3.75,0,0,1-1,2.82,4.89,4.89,0,0,1-5.89,0,3.68,3.68,0,0,1-1-2.79V1.86h2.52V7.31a2.23,2.23,0,0,0,.37,1.43,1.59,1.59,0,0,0,2.2,0,2.37,2.37,0,0,0,.35-1.44V1.86Z"/><path class="cls-7" d="M377.81,7.76v3.38h-2.51V1.86h3q3.78,0,3.78,2.74a2.74,2.74,0,0,1-1.57,2.49l2.7,4h-2.84l-2-3.38Zm0-1.89h.47q1.31,0,1.31-1.16,0-1-1.29-1h-.5Z"/><path class="cls-7" d="M388.24,3.78a1.6,1.6,0,0,0-1.4.73,3.54,3.54,0,0,0-.5,2q0,2.68,2,2.68A4.17,4.17,0,0,0,389.57,9a11.83,11.83,0,0,0,1.16-.41v2.12a6.43,6.43,0,0,1-2.63.51A4.16,4.16,0,0,1,384.88,10a5,5,0,0,1-1.12-3.52A5.61,5.61,0,0,1,384.31,4a3.87,3.87,0,0,1,1.56-1.68,4.71,4.71,0,0,1,2.4-.59,6.59,6.59,0,0,1,2.88.65l-.77,2a8.8,8.8,0,0,0-1-.41A3.61,3.61,0,0,0,388.24,3.78Z"/><path class="cls-7" d="M398.05,11.14h-5.51V1.86h5.51v2h-3V5.33h2.78v2H395V9.1h3Z"/><path class="cls-7" d="M334.52,20.41a3.11,3.11,0,0,1-.92,2.4,3.7,3.7,0,0,1-2.61.85h-.7v3.08h-2.51V17.46H331a3.92,3.92,0,0,1,2.64.77A2.74,2.74,0,0,1,334.52,20.41Zm-4.23,1.21h.46a1.25,1.25,0,0,0,.9-.32,1.15,1.15,0,0,0,.33-.88q0-.94-1-.94h-.65Z"/><path class="cls-7" d="M336,26.74V17.46h2.51v7.26h3.57v2Z"/><path class="cls-7" d="M349.26,26.74,348.8,25h-3l-.47,1.74h-2.75l3-9.32h3.35L352,26.74Zm-1-3.8-.4-1.52q-.14-.51-.34-1.31T347.28,19q-.06.32-.23,1.07t-.75,2.93Z"/><path class="cls-7" d="M361.84,26.74h-3.29l-3.39-6.54h-.06q.12,1.54.12,2.36v4.18H353V17.46h3.28l3.38,6.45h0q-.09-1.4-.09-2.25v-4.2h2.23Z"/><path class="cls-7" d="M372.68,26.74h-3.29L366,20.2h-.06q.12,1.54.12,2.36v4.18h-2.22V17.46h3.28l3.38,6.45h0q-.09-1.4-.09-2.25v-4.2h2.23Z"/><path class="cls-7" d="M374.69,26.74V17.46h2.52v9.28Z"/><path class="cls-7" d="M388,26.74h-3.29l-3.39-6.54h-.06q.12,1.54.12,2.36v4.18h-2.22V17.46h3.28l3.38,6.45h0q-.09-1.4-.09-2.25v-4.2H388Z"/><path class="cls-7" d="M393.78,21.31h4v5a11,11,0,0,1-3.59.56,4.33,4.33,0,0,1-3.32-1.24,5,5,0,0,1-1.17-3.55,4.66,4.66,0,0,1,1.28-3.5,4.93,4.93,0,0,1,3.59-1.25,7.93,7.93,0,0,1,1.65.17,6.9,6.9,0,0,1,1.36.42l-.79,2a4.91,4.91,0,0,0-2.2-.5,2.09,2.09,0,0,0-1.7.71,3.09,3.09,0,0,0-.6,2,3.13,3.13,0,0,0,.54,2,1.88,1.88,0,0,0,1.56.68,4.57,4.57,0,0,0,1-.11V23.24h-1.66Z"/><path class="cls-7" d="M30,142.71H23.66V132H30v2.32H26.56V136h3.21v2.32H26.56v2H30Z"/><path class="cls-7" d="M42.09,142.71H38.3l-3.91-7.54h-.07q.14,1.78.14,2.72v4.83H31.9V132h3.78l3.9,7.44h0q-.1-1.62-.1-2.6V132h2.58Z"/><path class="cls-7" d="M49.13,142.71H46.24v-8.34H43.62V132h8.12v2.37H49.13Z"/><path class="cls-7" d="M59.63,142.71H53.27V132h6.36v2.32H56.16V136h3.21v2.32H56.16v2h3.46Z"/><path class="cls-7" d="M64.39,138.82v3.9H61.5V132H65q4.37,0,4.37,3.16A3.16,3.16,0,0,1,67.56,138l3.12,4.67H67.4l-2.27-3.9Zm0-2.18h.54q1.52,0,1.52-1.34,0-1.11-1.49-1.11h-.57Z"/><path class="cls-7" d="M79.42,135.41a3.59,3.59,0,0,1-1.06,2.77,4.27,4.27,0,0,1-3,1h-.81v3.55H71.65V132h3.71a4.53,4.53,0,0,1,3,.89A3.16,3.16,0,0,1,79.42,135.41Zm-4.88,1.39h.53a1.44,1.44,0,0,0,1-.37,1.33,1.33,0,0,0,.38-1q0-1.08-1.2-1.08h-.75Z"/><path class="cls-7" d="M84,138.82v3.9H81.13V132h3.51Q89,132,89,135.17A3.16,3.16,0,0,1,87.19,138l3.12,4.67H87l-2.27-3.9Zm0-2.18h.54q1.52,0,1.52-1.34,0-1.11-1.49-1.11H84Z"/><path class="cls-7" d="M91.28,142.71V132h2.91v10.71Z"/><path class="cls-7" d="M103.51,139.46a3.16,3.16,0,0,1-.51,1.77,3.3,3.3,0,0,1-1.46,1.2,5.39,5.39,0,0,1-2.23.43,9,9,0,0,1-1.79-.15,6.64,6.64,0,0,1-1.51-.52v-2.58a8.62,8.62,0,0,0,1.72.66,6.41,6.41,0,0,0,1.64.24,1.59,1.59,0,0,0,.94-.22.69.69,0,0,0,.3-.58.64.64,0,0,0-.12-.38,1.43,1.43,0,0,0-.39-.33q-.27-.17-1.42-.69a6.82,6.82,0,0,1-1.57-.92,2.82,2.82,0,0,1-.78-1,3.4,3.4,0,0,1-.25-1.37,2.74,2.74,0,0,1,1.08-2.31,4.75,4.75,0,0,1,3-.83,8.3,8.3,0,0,1,3.39.77l-.89,2.23a6.42,6.42,0,0,0-2.59-.69,1.35,1.35,0,0,0-.82.2.6.6,0,0,0-.26.49.71.71,0,0,0,.33.56,12.39,12.39,0,0,0,1.77.91,4.89,4.89,0,0,1,1.92,1.34A2.9,2.9,0,0,1,103.51,139.46Z"/><path class="cls-7" d="M111.52,142.71h-6.36V132h6.36v2.32h-3.46V136h3.21v2.32h-3.21v2h3.46Z"/><path class="cls-7" d="M45.5,152.22a1.84,1.84,0,0,0-1.61.85,4.08,4.08,0,0,0-.58,2.33q0,3.09,2.35,3.09a4.82,4.82,0,0,0,1.38-.2,13.77,13.77,0,0,0,1.34-.48v2.45a7.42,7.42,0,0,1-3,.59,4.8,4.8,0,0,1-3.72-1.41,5.8,5.8,0,0,1-1.29-4.06,6.49,6.49,0,0,1,.63-2.92,4.49,4.49,0,0,1,1.8-1.94,5.45,5.45,0,0,1,2.77-.68,7.62,7.62,0,0,1,3.32.75L48,152.88a10,10,0,0,0-1.19-.47A4.15,4.15,0,0,0,45.5,152.22Z"/><path class="cls-7" d="M60.48,155.34a5.77,5.77,0,0,1-1.33,4.11,5.08,5.08,0,0,1-3.88,1.41,5.08,5.08,0,0,1-3.86-1.41,6.94,6.94,0,0,1,0-8.2,5.1,5.1,0,0,1,3.89-1.41,5.07,5.07,0,0,1,3.87,1.4A5.78,5.78,0,0,1,60.48,155.34Zm-7.37,0q0,3.11,2.16,3.11a1.86,1.86,0,0,0,1.63-.75,5.48,5.48,0,0,0,0-4.72,1.84,1.84,0,0,0-1.61-.76Q53.12,152.21,53.12,155.34Z"/><path class="cls-7" d="M72.61,160.71H68.82l-3.91-7.54h-.07q.14,1.78.14,2.72v4.83H62.42V150H66.2l3.9,7.44h0q-.1-1.62-.1-2.6V150h2.58Z"/><path class="cls-7" d="M79.65,160.71H76.76v-8.34H74.14V150h8.12v2.37H79.65Z"/><path class="cls-7" d="M90.15,160.71H83.79V150h6.36v2.32H86.68V154h3.21v2.32H86.68v2h3.46Z"/><path class="cls-7" d="M102.22,160.71H98.42l-3.91-7.54h-.07q.14,1.78.14,2.72v4.83H92V150H95.8l3.9,7.44h0q-.1-1.62-.1-2.6V150h2.58Z"/><path class="cls-7" d="M109.26,160.71h-2.89v-8.34h-2.61V150h8.12v2.37h-2.61Z"/><path class="cls-7" d="M5.82,178.71,3.63,171H3.57q.15,2,.15,3.06v4.65H1.16V168H5l2.23,7.6H7.3L9.49,168h3.86v10.71H10.69V174q0-.37,0-.81t.1-2.19h-.07l-2.16,7.7Z"/><path class="cls-7" d="M22.23,178.71l-.53-2H18.22l-.54,2H14.5L18,168h3.86l3.54,10.75Zm-1.13-4.38-.46-1.76q-.16-.59-.39-1.52t-.3-1.33q-.07.37-.26,1.23t-.86,3.38Z"/><path class="cls-7" d="M36.75,178.71H33L29,171.17H29q.14,1.78.14,2.72v4.83H26.55V168h3.78l3.9,7.44h0q-.1-1.62-.1-2.6V168h2.58Z"/><path class="cls-7" d="M45.63,178.71l-.53-2H41.62l-.54,2H37.9L41.4,168h3.86l3.54,10.75Zm-1.13-4.38L44,172.57q-.16-.59-.39-1.52t-.3-1.33q-.07.37-.26,1.23t-.86,3.38Z"/><path class="cls-7" d="M54.25,172.44h4.62v5.77a12.7,12.7,0,0,1-4.14.64,5,5,0,0,1-3.83-1.44,5.74,5.74,0,0,1-1.35-4.09,5.38,5.38,0,0,1,1.48-4,5.69,5.69,0,0,1,4.15-1.44,9.18,9.18,0,0,1,1.91.19,8.07,8.07,0,0,1,1.56.48l-.92,2.27a5.66,5.66,0,0,0-2.54-.57,2.42,2.42,0,0,0-2,.82,3.57,3.57,0,0,0-.69,2.36,3.61,3.61,0,0,0,.63,2.29,2.17,2.17,0,0,0,1.81.79,5.3,5.3,0,0,0,1.19-.12v-1.68H54.25Z"/><path class="cls-7" d="M67.41,178.71H61.05V168h6.36v2.32H63.95V172h3.21v2.32H63.95v2h3.46Z"/><path class="cls-7" d="M74,178.71,71.76,171H71.7q.15,2,.15,3.06v4.65H69.29V168h3.85l2.23,7.6h.06l2.19-7.6h3.86v10.71H78.82V174q0-.37,0-.81t.1-2.19h-.07l-2.16,7.7Z"/><path class="cls-7" d="M90.15,178.71H83.79V168h6.36v2.32H86.68V172h3.21v2.32H86.68v2h3.46Z"/><path class="cls-7" d="M102.22,178.71H98.42l-3.91-7.54h-.07q.14,1.78.14,2.72v4.83H92V168H95.8l3.9,7.44h0q-.1-1.62-.1-2.6V168h2.58Z"/><path class="cls-7" d="M109.26,178.71h-2.89v-8.34h-2.61V168h8.12v2.37h-2.61Z"/><path class="cls-7" d="M431.53,206.06a4.79,4.79,0,0,1-1.28,3.58,4.91,4.91,0,0,1-3.6,1.26h-3v-9.28h3.21a4.85,4.85,0,0,1,3.45,1.14A4.31,4.31,0,0,1,431.53,206.06Zm-2.6.09a3,3,0,0,0-.5-1.89,1.87,1.87,0,0,0-1.53-.62h-.73v5.2h.56a2,2,0,0,0,1.68-.66A3.21,3.21,0,0,0,428.93,206.15Z"/><path class="cls-7" d="M441.88,206.25a5,5,0,0,1-1.15,3.56,5.22,5.22,0,0,1-6.71,0,6,6,0,0,1,0-7.11,5.26,5.26,0,0,1,6.73,0A5,5,0,0,1,441.88,206.25Zm-6.39,0q0,2.69,1.87,2.69a1.61,1.61,0,0,0,1.41-.65,4.75,4.75,0,0,0,0-4.09,1.59,1.59,0,0,0-1.39-.66Q435.5,203.53,435.5,206.25Z"/><path class="cls-7" d="M447.69,203.54a1.6,1.6,0,0,0-1.4.73,3.54,3.54,0,0,0-.5,2q0,2.68,2,2.68a4.17,4.17,0,0,0,1.19-.17,12.08,12.08,0,0,0,1.16-.41v2.12a6.43,6.43,0,0,1-2.63.51,4.16,4.16,0,0,1-3.22-1.22,5,5,0,0,1-1.12-3.52,5.62,5.62,0,0,1,.54-2.53,3.88,3.88,0,0,1,1.56-1.68,4.71,4.71,0,0,1,2.4-.59,6.61,6.61,0,0,1,2.88.65l-.77,2a8.47,8.47,0,0,0-1-.41A3.58,3.58,0,0,0,447.69,203.54Z"/><path class="cls-7" d="M459.88,201.62v5.59a3.74,3.74,0,0,1-1,2.82,4.89,4.89,0,0,1-5.89,0,3.68,3.68,0,0,1-1-2.79v-5.64h2.52v5.45a2.23,2.23,0,0,0,.37,1.43,1.59,1.59,0,0,0,2.2,0,2.36,2.36,0,0,0,.35-1.44v-5.43Z"/><path class="cls-7" d="M465.88,210.9l-1.9-6.68h-.06q.13,1.71.13,2.65v4h-2.22v-9.28h3.34l1.94,6.59h.05l1.9-6.59h3.35v9.28h-2.3v-4.07c0-.21,0-.45,0-.71s0-.89.09-1.9h-.06l-1.87,6.67Z"/><path class="cls-7" d="M479.91,210.9H474.4v-9.28h5.51v2h-3v1.46h2.78v2h-2.78v1.75h3Z"/><path class="cls-7" d="M490.37,210.9h-3.29l-3.39-6.54h-.06q.12,1.54.12,2.36v4.18h-2.22v-9.28h3.28l3.38,6.45h0q-.09-1.4-.09-2.25v-4.2h2.23Z"/><path class="cls-7" d="M496.47,210.9H494v-7.23H491.7v-2.05h7v2.05h-2.26Z"/><path class="cls-7" d="M427.7,226.5l-1.9-6.68h-.06q.13,1.71.13,2.65v4h-2.22v-9.28H427l1.94,6.59H429l1.9-6.59h3.35v9.28h-2.3v-4.07c0-.21,0-.45,0-.7s0-.89.09-1.9H432l-1.87,6.67Z"/><path class="cls-7" d="M441.92,226.5l-.46-1.74h-3L438,226.5h-2.75l3-9.32h3.35l3.07,9.32Zm-1-3.8-.4-1.52q-.14-.51-.34-1.31t-.26-1.16q-.06.32-.23,1.07T439,222.7Z"/><path class="cls-7" d="M454.5,226.5h-3.29L447.82,220h-.06q.12,1.54.12,2.35v4.18h-2.22v-9.28h3.28l3.38,6.45h0q-.09-1.4-.09-2.25v-4.2h2.23Z"/><path class="cls-7" d="M462.2,226.5l-.46-1.74h-3l-.47,1.74H455.5l3-9.32h3.35l3.07,9.32Zm-1-3.8-.4-1.52q-.14-.51-.34-1.31t-.26-1.16q-.06.32-.23,1.07t-.75,2.93Z"/><path class="cls-7" d="M469.67,221.06h4v5a11,11,0,0,1-3.59.56,4.34,4.34,0,0,1-3.32-1.24,5,5,0,0,1-1.17-3.55,4.66,4.66,0,0,1,1.28-3.5,4.93,4.93,0,0,1,3.59-1.25,8,8,0,0,1,1.65.17,7,7,0,0,1,1.36.42l-.79,2a4.91,4.91,0,0,0-2.2-.5,2.1,2.1,0,0,0-1.7.71,3.09,3.09,0,0,0-.6,2,3.13,3.13,0,0,0,.54,2,1.88,1.88,0,0,0,1.56.68,4.63,4.63,0,0,0,1-.11V223h-1.66Z"/><path class="cls-7" d="M481.08,226.5h-5.51v-9.28h5.51v2h-3v1.46h2.78v2h-2.78v1.75h3Z"/><path class="cls-7" d="M486.75,226.5l-1.9-6.68h-.06q.13,1.71.13,2.65v4H482.7v-9.28H486l1.94,6.59H488l1.9-6.59h3.35v9.28H491v-4.07c0-.21,0-.45,0-.7s0-.89.09-1.9H491l-1.87,6.67Z"/><path class="cls-7" d="M500.78,226.5h-5.51v-9.28h5.51v2h-3v1.46h2.78v2h-2.78v1.75h3Z"/><path class="cls-7" d="M511.24,226.5H508L504.56,220h-.06q.12,1.54.12,2.35v4.18h-2.22v-9.28h3.28l3.38,6.45h0q-.09-1.4-.09-2.25v-4.2h2.23Z"/><path class="cls-7" d="M517.34,226.5h-2.51v-7.23h-2.27v-2h7v2h-2.26Z"/><path class="cls-7" d="M429.73,239.28a2.74,2.74,0,0,1-.44,1.53,2.87,2.87,0,0,1-1.26,1,4.69,4.69,0,0,1-1.94.37,7.82,7.82,0,0,1-1.56-.13,5.78,5.78,0,0,1-1.31-.45v-2.23a7.38,7.38,0,0,0,1.49.57,5.55,5.55,0,0,0,1.42.21A1.37,1.37,0,0,0,427,240a.59.59,0,0,0,.26-.5.54.54,0,0,0-.1-.33,1.21,1.21,0,0,0-.34-.29q-.23-.15-1.23-.6a5.89,5.89,0,0,1-1.36-.8,2.46,2.46,0,0,1-.67-.89,3,3,0,0,1-.22-1.19,2.38,2.38,0,0,1,.93-2,4.12,4.12,0,0,1,2.56-.72,7.2,7.2,0,0,1,2.94.67l-.77,1.94a5.56,5.56,0,0,0-2.25-.6,1.17,1.17,0,0,0-.71.17.52.52,0,0,0-.22.43.61.61,0,0,0,.28.49,10.72,10.72,0,0,0,1.53.79,4.25,4.25,0,0,1,1.67,1.16A2.52,2.52,0,0,1,429.73,239.28Z"/><path class="cls-7" d="M434.47,236.26l1.6-3.44h2.72l-3.05,5.66v3.62h-2.53v-3.55l-3.05-5.73h2.73Z"/><path class="cls-7" d="M445.86,239.28a2.74,2.74,0,0,1-.44,1.53,2.87,2.87,0,0,1-1.26,1,4.69,4.69,0,0,1-1.94.37,7.82,7.82,0,0,1-1.56-.13,5.78,5.78,0,0,1-1.31-.45v-2.23a7.38,7.38,0,0,0,1.49.57,5.55,5.55,0,0,0,1.42.21,1.37,1.37,0,0,0,.82-.19.59.59,0,0,0,.26-.5.54.54,0,0,0-.1-.33,1.21,1.21,0,0,0-.34-.29q-.23-.15-1.23-.6a5.89,5.89,0,0,1-1.36-.8,2.46,2.46,0,0,1-.67-.89,3,3,0,0,1-.22-1.19,2.38,2.38,0,0,1,.93-2,4.12,4.12,0,0,1,2.56-.72,7.2,7.2,0,0,1,2.94.67l-.77,1.94a5.56,5.56,0,0,0-2.25-.6,1.17,1.17,0,0,0-.71.17.52.52,0,0,0-.22.43.61.61,0,0,0,.28.49,10.72,10.72,0,0,0,1.53.79,4.25,4.25,0,0,1,1.67,1.16A2.52,2.52,0,0,1,445.86,239.28Z"/><path class="cls-7" d="M451.39,242.1h-2.51v-7.23h-2.27v-2.05h7v2.05h-2.26Z"/><path class="cls-7" d="M460.49,242.1H455v-9.28h5.51v2h-3v1.46h2.78v2h-2.78v1.75h3Z"/><path class="cls-7" d="M466.15,242.1l-1.9-6.68h-.06q.13,1.71.13,2.65v4h-2.22v-9.28h3.34l1.94,6.59h.05l1.9-6.59h3.35v9.28h-2.3V238c0-.21,0-.45,0-.71s0-.89.09-1.9h-.06l-1.87,6.67Z"/><path class="cls-7" d="M615.71,109.49a3.11,3.11,0,0,1-.92,2.4,3.7,3.7,0,0,1-2.61.85h-.7v3.08H609v-9.28h3.21a3.93,3.93,0,0,1,2.64.77A2.74,2.74,0,0,1,615.71,109.49Zm-4.23,1.21h.46a1.25,1.25,0,0,0,.9-.32,1.15,1.15,0,0,0,.33-.88q0-.94-1-.94h-.65Z"/><path class="cls-7" d="M619.7,112.44v3.38h-2.51v-9.28h3q3.78,0,3.78,2.74a2.74,2.74,0,0,1-1.57,2.49l2.7,4H622.3l-2-3.38Zm0-1.89h.47q1.31,0,1.31-1.16,0-1-1.29-1h-.5Z"/><path class="cls-7" d="M634.67,111.17a5,5,0,0,1-1.15,3.56,5.22,5.22,0,0,1-6.71,0,6,6,0,0,1,0-7.11,5.25,5.25,0,0,1,6.73,0A5,5,0,0,1,634.67,111.17Zm-6.39,0q0,2.69,1.87,2.69a1.61,1.61,0,0,0,1.41-.65,4.75,4.75,0,0,0,0-4.09,1.59,1.59,0,0,0-1.39-.66Q628.29,108.45,628.29,111.17Z"/><path class="cls-7" d="M635.62,118.73a6.14,6.14,0,0,1-1.3-.13v-1.95l.43.09a2.39,2.39,0,0,0,.5,0,1,1,0,0,0,.89-.37,2.3,2.3,0,0,0,.27-1.28v-8.59h2.52v8.37a4.29,4.29,0,0,1-.83,2.85A3.07,3.07,0,0,1,635.62,118.73Z"/><path class="cls-7" d="M646.44,115.82h-5.51v-9.28h5.51v2h-3V110h2.78v2h-2.78v1.75h3Z"/><path class="cls-7" d="M652.19,108.46a1.6,1.6,0,0,0-1.4.73,3.55,3.55,0,0,0-.5,2q0,2.68,2,2.68a4.17,4.17,0,0,0,1.19-.17,12,12,0,0,0,1.16-.41v2.12a6.43,6.43,0,0,1-2.63.51,4.16,4.16,0,0,1-3.22-1.22,5,5,0,0,1-1.12-3.52,5.62,5.62,0,0,1,.54-2.53,3.87,3.87,0,0,1,1.56-1.68,4.71,4.71,0,0,1,2.4-.59,6.6,6.6,0,0,1,2.88.65l-.77,2a8.64,8.64,0,0,0-1-.41A3.6,3.6,0,0,0,652.19,108.46Z"/><path class="cls-7" d="M660.59,115.82h-2.51v-7.23h-2.27v-2.05h7v2.05h-2.26Z"/><path class="cls-7" d="M613,131.42l-1.9-6.68h-.06q.13,1.71.13,2.65v4H609v-9.28h3.34l1.94,6.59h.05l1.9-6.59h3.35v9.28h-2.3v-4.07q0-.32,0-.7t.09-1.9h-.06l-1.87,6.67Z"/><path class="cls-7" d="M627.24,131.42l-.46-1.74h-3l-.47,1.74h-2.75l3-9.32h3.35l3.07,9.32Zm-1-3.8-.4-1.52q-.14-.51-.34-1.31t-.26-1.16q-.06.32-.23,1.07t-.75,2.93Z"/><path class="cls-7" d="M639.82,131.42h-3.29l-3.39-6.54h-.06q.12,1.54.12,2.35v4.18H631v-9.28h3.28l3.38,6.45h0q-.09-1.4-.09-2.25v-4.2h2.23Z"/><path class="cls-7" d="M647.52,131.42l-.46-1.74h-3l-.47,1.74h-2.75l3-9.32h3.35l3.07,9.32Zm-1-3.8-.4-1.52c-.09-.34-.21-.78-.34-1.31s-.22-.92-.26-1.16q-.06.32-.22,1.07t-.75,2.93Z"/><path class="cls-7" d="M655,126h4v5a11,11,0,0,1-3.59.56,4.34,4.34,0,0,1-3.32-1.24,5,5,0,0,1-1.17-3.55,4.66,4.66,0,0,1,1.28-3.5A4.93,4.93,0,0,1,655.8,122a8,8,0,0,1,1.65.17,7,7,0,0,1,1.36.42l-.79,2a4.91,4.91,0,0,0-2.2-.5,2.1,2.1,0,0,0-1.7.71,3.09,3.09,0,0,0-.6,2,3.13,3.13,0,0,0,.54,2,1.88,1.88,0,0,0,1.56.68,4.59,4.59,0,0,0,1-.11v-1.45H655Z"/><path class="cls-7" d="M666.4,131.42h-5.51v-9.28h5.51v2h-3v1.46h2.78v2H663.4v1.75h3Z"/><path class="cls-7" d="M672.07,131.42l-1.9-6.68h-.06q.13,1.71.13,2.65v4H668v-9.28h3.34l1.94,6.59h.05l1.9-6.59h3.35v9.28h-2.3v-4.07q0-.32,0-.7t.09-1.9h-.06l-1.87,6.67Z"/><path class="cls-7" d="M686.1,131.42h-5.51v-9.28h5.51v2h-3v1.46h2.78v2H683.1v1.75h3Z"/><path class="cls-7" d="M696.56,131.42h-3.29l-3.39-6.54h-.06q.12,1.54.12,2.35v4.18h-2.22v-9.28H691l3.38,6.45h0q-.09-1.4-.09-2.25v-4.2h2.23Z"/><path class="cls-7" d="M702.66,131.42h-2.51v-7.23h-2.27v-2.05h7v2.05h-2.26Z"/><path class="cls-7" d="M615,144.2a2.74,2.74,0,0,1-.44,1.53,2.87,2.87,0,0,1-1.26,1,4.69,4.69,0,0,1-1.94.37,7.82,7.82,0,0,1-1.56-.13,5.78,5.78,0,0,1-1.31-.45v-2.23a7.38,7.38,0,0,0,1.49.57,5.55,5.55,0,0,0,1.42.21,1.37,1.37,0,0,0,.82-.19.59.59,0,0,0,.26-.5.54.54,0,0,0-.1-.33,1.21,1.21,0,0,0-.34-.29q-.23-.15-1.23-.6a5.89,5.89,0,0,1-1.36-.8,2.46,2.46,0,0,1-.67-.89,3,3,0,0,1-.22-1.19,2.38,2.38,0,0,1,.93-2,4.11,4.11,0,0,1,2.56-.72,7.2,7.2,0,0,1,2.94.67l-.77,1.94a5.56,5.56,0,0,0-2.25-.6,1.17,1.17,0,0,0-.71.17.52.52,0,0,0-.22.43.61.61,0,0,0,.28.49,10.78,10.78,0,0,0,1.53.79,4.25,4.25,0,0,1,1.67,1.16A2.52,2.52,0,0,1,615,144.2Z"/><path class="cls-7" d="M619.8,141.18l1.6-3.44h2.72l-3.05,5.66V147h-2.53v-3.55l-3.05-5.73h2.73Z"/><path class="cls-7" d="M631.18,144.2a2.74,2.74,0,0,1-.44,1.53,2.87,2.87,0,0,1-1.26,1,4.69,4.69,0,0,1-1.94.37A7.82,7.82,0,0,1,626,147a5.78,5.78,0,0,1-1.31-.45v-2.23a7.38,7.38,0,0,0,1.49.57,5.55,5.55,0,0,0,1.42.21,1.37,1.37,0,0,0,.82-.19.59.59,0,0,0,.26-.5.54.54,0,0,0-.1-.33,1.21,1.21,0,0,0-.34-.29q-.23-.15-1.23-.6a5.89,5.89,0,0,1-1.36-.8,2.46,2.46,0,0,1-.67-.89,3,3,0,0,1-.22-1.19,2.38,2.38,0,0,1,.93-2,4.11,4.11,0,0,1,2.56-.72,7.2,7.2,0,0,1,2.94.67l-.77,1.94a5.56,5.56,0,0,0-2.25-.6,1.17,1.17,0,0,0-.71.17.52.52,0,0,0-.22.43.61.61,0,0,0,.28.49,10.78,10.78,0,0,0,1.53.79,4.25,4.25,0,0,1,1.67,1.16A2.52,2.52,0,0,1,631.18,144.2Z"/><path class="cls-7" d="M636.71,147h-2.51v-7.23h-2.27v-2.05h7v2.05h-2.26Z"/><path class="cls-7" d="M645.81,147H640.3v-9.28h5.51v2h-3v1.46h2.78v2h-2.78V145h3Z"/><path class="cls-7" d="M651.48,147l-1.9-6.68h-.06q.13,1.71.13,2.65v4h-2.22v-9.28h3.34l1.94,6.59h.05l1.9-6.59H658V147h-2.3V143c0-.21,0-.45,0-.71s0-.89.09-1.9h-.06L653.86,147Z"/><path class="cls-5" d="M753.1,133.48c-1.23,2-.66,4.43-.08,6.56.25.9.57,2.13-.25,2.79s-2.46,0-3-.9a4.72,4.72,0,0,1-.41-2.13c0-3.2-.08-7.71,1.15-10.67,1-2.38,5.33-5.82,8-3.28a3.38,3.38,0,0,1,.82,1.72,2.73,2.73,0,0,1,.08,1.15c-.33,1.48-1.8,1.39-3,1.89A7.64,7.64,0,0,0,753.1,133.48Z"/><path class="cls-22" d="M755.89,142.75a6.58,6.58,0,0,1-3.61-4.92,11.83,11.83,0,0,1,.66-6.07c2.13-6.48,10.91-4.1,12.8,1.64C767.38,138.32,761.72,145.37,755.89,142.75Z"/><path class="cls-5" d="M764.42,136.27c-.16.82,0,1.8-.16,2.63-.25,1.56-1.23,3.36-1.07,4.92a9.45,9.45,0,0,0,5.17-.82c1.48-.74,1.8-2.38,2.54-3.86a20.8,20.8,0,0,0,1.8-4.18c2.05-8.12-4.51-15-12.72-13.62-3.12.49-5.33,3.61-4.1,6.56,1.31,3.12,6,3.45,7.88,6A5.08,5.08,0,0,1,764.42,136.27Z"/><path class="cls-22" d="M755.89,142.17a13.42,13.42,0,0,0-.16,1.8,7.18,7.18,0,0,0-.16,1.31.33.33,0,0,0,.33.16c.41.08,3.86.74,3.94.41a18.67,18.67,0,0,0,.16-2.13,8.76,8.76,0,0,0,.08-2.05,6.43,6.43,0,0,1-2.13.33,18.54,18.54,0,0,1-2.13-.08C755.89,142.09,755.89,142.09,755.89,142.17Z"/><polygon class="cls-22" points="730.13 193.61 727.67 193.2 725.29 196.65 726.69 199.11 729.48 199.52 730.54 196.07 730.13 193.61"/><polygon class="cls-23" points="752.94 150.3 741.86 150.21 738.34 174.99 727.67 192.55 730.62 195.99 744.73 181.8 752.94 150.3"/><path class="cls-5" d="M749.25,265a2.09,2.09,0,0,1,3.53-.33,5.66,5.66,0,0,1,.57,1.23c.74,2.3,1.89,7.71-1.07,9.19a2.41,2.41,0,0,1-3.12-1.15C748.18,272.29,747.93,267.28,749.25,265Z"/><path class="cls-22" d="M754.66,230.12l-.41,14.36c.08,6.4-1,12.8-.9,19.2,0,1.48.41,3,0,4.43s-1.56,1.64-2.79.9c-1.64-1-1.31-3.2-1.56-4.92-.66-4.51-1.48-9-2.22-13.54-.33-2.22.49-5.33.33-7.55l-2.22-12.06Z"/><path class="cls-5" d="M759.42,265.56a2.22,2.22,0,0,1,1.89-.9,2.27,2.27,0,0,1,1.64,1.07,3.86,3.86,0,0,1,.33,1.31c.33,2.38.57,8-2.63,8.86a2.36,2.36,0,0,1-2.87-1.64C757.12,272.53,757.7,267.61,759.42,265.56Z"/><path class="cls-22" d="M756.63,230.12l.82,14.36c.08,6.4,1.39,12.72,1.48,19.12,0,1.48-.33,3,.16,4.43s1.64,1.64,2.79.82c1.56-1.07,1.23-3.28,1.39-4.92.57-4.51,1.23-9.11,1.8-13.62.25-2.22-.66-5.25-.57-7.55l1.8-12.14Z"/><path class="cls-7" d="M763.93,144.8l-13,.74-7.06,5.33s.74,22.07.49,30.27S743.59,196,742.93,208c-.82,13.21,2.54,29,2.54,29l27.32-.41s5.58-29.94,2.71-37.74-2.13-14.77-2.22-21.17-1.8-28.39-1.8-28.39Z"/><path class="cls-23" d="M770.08,146.44l6.65,5.5s-2.79,24.45-3,28.55,2.13,16.08,2.13,16.08l-9.6-.9a37.83,37.83,0,0,1-5.5-15.1c-1.07-8.61,4.76-36.1,4.76-36.1Z"/><path class="cls-23" d="M746.46,146.85l-4.92,3.45s2.3,26.58,2.46,30.68-3.12,17-3.12,17l10.58-2a39.73,39.73,0,0,0,4.68-15.18c.74-8.61-5.5-35.93-5.5-35.93Z"/><polygon class="cls-22" points="789.77 125.85 792.64 126.75 796.17 122.73 794.86 119.45 791.5 118.38 789.61 122.73 789.77 125.85"/><polygon class="cls-23" points="765.65 157.68 784.93 151.53 794.7 125.68 788.95 124.21 777.47 143.81 765.74 146.36 765.65 157.68"/><circle class="cls-24" cx="482.57" cy="73.92" r="29.79"/><circle class="cls-18" cx="510.38" cy="100.1" r="25.41"/><circle class="cls-20" cx="485.74" cy="123.97" r="20.26"/><path class="cls-25" d="M487.8,66H454a29.74,29.74,0,0,0,28.76,37.52,13.87,13.87,0,0,0,2.66-.17v.17a20.25,20.25,0,0,0-19.75,20.26v1.55h22.41a4.21,4.21,0,0,0,4.21-4.21V70.23A4.69,4.69,0,0,0,487.8,66Z"/><path class="cls-26" d="M484.63,69.11H453.21a29.54,29.54,0,0,0,24.64,34,29.11,29.11,0,0,0,4.64.43,13.87,13.87,0,0,0,2.66-.17v.17a20.24,20.24,0,0,0-19.75,20.95,21.64,21.64,0,0,0,.52,4.12h18.72a4.21,4.21,0,0,0,4.21-4.21v-51A4.13,4.13,0,0,0,484.63,69.11Z"/><path class="cls-26" d="M484.63,69.11H453.21a29.54,29.54,0,0,0,24.64,34,29.11,29.11,0,0,0,4.64.43,13.87,13.87,0,0,0,2.66-.17v.17a20.35,20.35,0,0,0-19.75,18.72h19.23a4.21,4.21,0,0,0,4.21-4.21V73.23A4.09,4.09,0,0,0,484.63,69.11Z"/><path class="cls-26" d="M481.54,69.11H453.21a29.54,29.54,0,0,0,24.64,34,29.11,29.11,0,0,0,4.64.43,13.87,13.87,0,0,0,2.66-.17v.17a20.35,20.35,0,0,0-19.75,18.72h16.05a4.21,4.21,0,0,0,4.21-4.21V73.23A4.07,4.07,0,0,0,481.54,69.11Z"/><path id="Back_Plate" data-name="Back Plate" class="cls-27" d="M439.9,69.11h41.72a4.21,4.21,0,0,1,4.21,4.21V115a4.21,4.21,0,0,1-4.21,4.21H439.9a4.21,4.21,0,0,1-4.21-4.21V73.41a4.18,4.18,0,0,1,4.21-4.29Z"/><path class="cls-8" d="M453.46,93.67a8.17,8.17,0,0,1-2.66-2.75,7.18,7.18,0,0,1-.94-3.69,7.58,7.58,0,0,1,1.72-4.89A10.39,10.39,0,0,1,456,79.41a18.12,18.12,0,0,1,6.1-.94,23.46,23.46,0,0,1,8.07,1v5.75a11.35,11.35,0,0,0-3.52-1.46,13.47,13.47,0,0,0-4.21-.52,9.83,9.83,0,0,0-4.38.94,2.84,2.84,0,0,0-1.72,2.66,2.47,2.47,0,0,0,.77,1.8,9.07,9.07,0,0,0,2,1.46,37.36,37.36,0,0,0,3.69,1.55,1,1,0,0,1,.52.26c1.55.69,3.18,1.46,4.64,2.23a6.52,6.52,0,0,1,2.75,2.75,9,9,0,0,1,1,4.21,7.48,7.48,0,0,1-1.55,5,8.42,8.42,0,0,1-4.21,2.75,17.81,17.81,0,0,1-5.92.94,39.3,39.3,0,0,1-5.41-.43,19.7,19.7,0,0,1-4.38-1.29v-5.92a14.31,14.31,0,0,0,4.46,2.15,15.37,15.37,0,0,0,4.89.77,8.25,8.25,0,0,0,4.46-.94,2.8,2.8,0,0,0,1.46-2.66,2.72,2.72,0,0,0-.77-2A7.47,7.47,0,0,0,462.56,98a39.69,39.69,0,0,0-4.38-2A20.16,20.16,0,0,1,453.46,93.67Z"/><path class="cls-7" d="M137.78,41.35V30.65h2.91V41.35Z"/><path class="cls-7" d="M147.73,41.35h-2.89V33h-2.61V30.65h8.12V33h-2.61Z"/><path class="cls-7" d="M162.77,38.1a3.16,3.16,0,0,1-.51,1.77,3.3,3.3,0,0,1-1.46,1.2,5.39,5.39,0,0,1-2.23.43,9,9,0,0,1-1.79-.15,6.64,6.64,0,0,1-1.51-.52V38.25a8.62,8.62,0,0,0,1.72.66,6.41,6.41,0,0,0,1.64.24,1.59,1.59,0,0,0,.94-.22.69.69,0,0,0,.3-.58.64.64,0,0,0-.12-.38,1.43,1.43,0,0,0-.39-.33q-.27-.17-1.42-.69a6.82,6.82,0,0,1-1.57-.92,2.82,2.82,0,0,1-.78-1,3.4,3.4,0,0,1-.25-1.37,2.74,2.74,0,0,1,1.08-2.31,4.75,4.75,0,0,1,3-.83,8.3,8.3,0,0,1,3.39.77l-.89,2.23a6.42,6.42,0,0,0-2.59-.69,1.35,1.35,0,0,0-.82.2.6.6,0,0,0-.26.49.71.71,0,0,0,.33.56,12.39,12.39,0,0,0,1.77.91,4.89,4.89,0,0,1,1.92,1.34A2.9,2.9,0,0,1,162.77,38.1Z"/><path class="cls-7" d="M170.78,41.35h-6.36V30.65h6.36V33h-3.46v1.68h3.21V37h-3.21v2h3.46Z"/><path class="cls-7" d="M175.55,37.46v3.9h-2.89V30.65h3.51q4.37,0,4.37,3.16a3.16,3.16,0,0,1-1.82,2.88l3.12,4.67h-3.28l-2.27-3.9Zm0-2.18h.54q1.52,0,1.52-1.34,0-1.11-1.49-1.11h-.57Z"/><path class="cls-7" d="M188.82,30.65h3.24l-3.51,10.71h-3.41l-3.49-10.71h3.25l1.46,5.43a16.56,16.56,0,0,1,.5,2.52q.05-.51.21-1.28t.27-1.21Z"/><path class="cls-7" d="M193.21,41.35V30.65h2.91V41.35Z"/><path class="cls-7" d="M203.2,32.87a1.84,1.84,0,0,0-1.61.85A4.08,4.08,0,0,0,201,36q0,3.09,2.35,3.09a4.82,4.82,0,0,0,1.38-.2,13.78,13.78,0,0,0,1.34-.48v2.45a7.42,7.42,0,0,1-3,.59,4.8,4.8,0,0,1-3.72-1.41A5.8,5.8,0,0,1,198,36a6.49,6.49,0,0,1,.63-2.92,4.49,4.49,0,0,1,1.8-1.94,5.45,5.45,0,0,1,2.77-.68,7.62,7.62,0,0,1,3.32.75l-.89,2.28a10,10,0,0,0-1.19-.47A4.15,4.15,0,0,0,203.2,32.87Z"/><path class="cls-7" d="M214.53,41.35h-6.36V30.65h6.36V33h-3.46v1.68h3.21V37h-3.21v2h3.46Z"/><path class="cls-7" d="M108.83,59.35l-2.19-7.71h-.07q.15,2,.15,3.06v4.65h-2.56V48.65H108l2.23,7.6h.06l2.19-7.6h3.86V59.35H113.7V54.66q0-.37,0-.81t.1-2.19h-.07l-2.16,7.7Z"/><path class="cls-7" d="M125.24,59.35l-.53-2h-3.48l-.54,2h-3.18L121,48.6h3.86l3.54,10.75ZM124.11,55l-.46-1.76q-.16-.59-.39-1.52t-.3-1.33q-.07.37-.26,1.23T121.83,55Z"/><path class="cls-7" d="M139.75,59.35H136L132,51.81H132q.14,1.78.14,2.72v4.83h-2.56V48.65h3.78l3.9,7.44h0q-.1-1.62-.1-2.6V48.65h2.58Z"/><path class="cls-7" d="M148.64,59.35l-.53-2h-3.48l-.54,2h-3.18l3.49-10.75h3.86l3.54,10.75ZM147.51,55,147,53.22q-.16-.59-.39-1.52t-.3-1.33q-.07.37-.26,1.23T145.23,55Z"/><path class="cls-7" d="M157.26,53.08h4.62v5.77a12.7,12.7,0,0,1-4.14.64,5,5,0,0,1-3.83-1.44A5.75,5.75,0,0,1,152.57,54a5.38,5.38,0,0,1,1.48-4,5.69,5.69,0,0,1,4.15-1.44,9.18,9.18,0,0,1,1.91.19,8.07,8.07,0,0,1,1.56.48l-.92,2.27a5.66,5.66,0,0,0-2.54-.57,2.42,2.42,0,0,0-2,.82,3.56,3.56,0,0,0-.69,2.35,3.61,3.61,0,0,0,.63,2.29,2.17,2.17,0,0,0,1.81.79,5.3,5.3,0,0,0,1.19-.12V55.32h-1.91Z"/><path class="cls-7" d="M170.42,59.35h-6.36V48.65h6.36V51H167v1.68h3.21V55H167v2h3.46Z"/><path class="cls-7" d="M177,59.35l-2.19-7.71h-.07q.15,2,.15,3.06v4.65H172.3V48.65h3.85l2.23,7.6h.06l2.19-7.6h3.86V59.35h-2.66V54.66q0-.37,0-.81t.1-2.19h-.07l-2.16,7.7Z"/><path class="cls-7" d="M193.16,59.35H186.8V48.65h6.36V51h-3.46v1.68h3.21V55h-3.21v2h3.46Z"/><path class="cls-7" d="M205.23,59.35h-3.79l-3.91-7.54h-.07q.14,1.78.14,2.72v4.83H195V48.65h3.78l3.9,7.44h0q-.1-1.62-.1-2.6V48.65h2.58Z"/><path class="cls-7" d="M212.26,59.35h-2.89V51h-2.61V48.65h8.12V51h-2.61Z"/><path class="cls-7" d="M283.59,222.33h-5.51v-9.28h5.51v2h-3v1.46h2.78v2h-2.78v1.75h3Z"/><path class="cls-7" d="M289.26,222.33l-1.9-6.68h-.06q.13,1.71.13,2.65v4h-2.22v-9.28h3.34l1.94,6.59h.05l1.9-6.59h3.35v9.28h-2.3v-4.07c0-.21,0-.45,0-.7s0-.89.09-1.9h-.06l-1.87,6.67Z"/><path class="cls-7" d="M303.48,222.33l-.46-1.74h-3l-.47,1.74h-2.75l3-9.32h3.35l3.07,9.32Zm-1-3.8-.4-1.52q-.14-.51-.34-1.31t-.26-1.16q-.06.32-.23,1.07t-.75,2.93Z"/><path class="cls-7" d="M307.23,222.33v-9.28h2.52v9.28Z"/><path class="cls-7" d="M311.75,222.33v-9.28h2.51v7.25h3.57v2Z"/><path class="cls-7" d="M857.68,195.46v-9.28h2.51v7.25h3.57v2Z"/><path class="cls-7" d="M870.76,195.46h-5.51v-9.28h5.51v2h-3v1.46h2.78v2h-2.78v1.75h3Z"/><path class="cls-7" d="M878.08,195.46l-.46-1.74h-3l-.47,1.74h-2.75l3-9.32h3.34l3.07,9.32Zm-1-3.8-.4-1.52q-.14-.51-.34-1.31t-.26-1.16q-.06.32-.23,1.07t-.75,2.93Z"/><path class="cls-7" d="M884.33,192.08v3.38h-2.51v-9.28h3q3.78,0,3.78,2.74a2.74,2.74,0,0,1-1.57,2.49l2.7,4h-2.84l-2-3.38Zm0-1.89h.47q1.31,0,1.31-1.16,0-1-1.29-1h-.5Z"/><path class="cls-7" d="M899.46,195.46h-3.29l-3.39-6.54h-.06q.12,1.54.12,2.35v4.18h-2.22v-9.28h3.28l3.38,6.45h0q-.09-1.4-.09-2.25v-4.2h2.23Z"/><path class="cls-7" d="M901.46,195.46v-9.28H904v9.28Z"/><path class="cls-7" d="M914.83,195.46h-3.29l-3.39-6.54h-.06q.12,1.54.12,2.35v4.18H906v-9.28h3.28l3.38,6.45h0q-.09-1.4-.09-2.25v-4.2h2.23Z"/><path class="cls-7" d="M920.56,190h4v5a11,11,0,0,1-3.59.56,4.34,4.34,0,0,1-3.32-1.24,5,5,0,0,1-1.17-3.55,4.66,4.66,0,0,1,1.28-3.5,4.93,4.93,0,0,1,3.59-1.25,8,8,0,0,1,1.65.17,7,7,0,0,1,1.36.42l-.79,2a4.91,4.91,0,0,0-2.2-.5,2.1,2.1,0,0,0-1.7.71,3.09,3.09,0,0,0-.6,2,3.13,3.13,0,0,0,.54,2,1.88,1.88,0,0,0,1.56.68,4.62,4.62,0,0,0,1-.11V192h-1.66Z"/><path class="cls-7" d="M861.73,211.06l-1.9-6.68h-.06q.13,1.71.13,2.65v4h-2.22v-9.28H861l1.94,6.59H863l1.9-6.59h3.35v9.28h-2.3V207c0-.21,0-.45,0-.71s0-.89.09-1.9H866l-1.87,6.67Z"/><path class="cls-7" d="M875.95,211.06l-.46-1.74h-3l-.47,1.74h-2.75l3-9.32h3.34l3.07,9.32Zm-1-3.8-.4-1.52q-.14-.51-.34-1.31t-.26-1.16q-.06.32-.23,1.07t-.75,2.93Z"/><path class="cls-7" d="M888.53,211.06h-3.29l-3.39-6.54h-.06q.12,1.54.12,2.36v4.18h-2.22v-9.28H883l3.38,6.45h0q-.09-1.4-.09-2.25v-4.2h2.23Z"/><path class="cls-7" d="M896.23,211.06l-.46-1.74h-3l-.47,1.74h-2.75l3-9.32h3.35l3.07,9.32Zm-1-3.8-.4-1.52c-.09-.34-.21-.78-.34-1.31s-.22-.92-.26-1.16q-.06.32-.22,1.07t-.75,2.93Z"/><path class="cls-7" d="M903.7,205.63h4v5a11,11,0,0,1-3.59.56,4.33,4.33,0,0,1-3.32-1.24,5,5,0,0,1-1.17-3.55,4.66,4.66,0,0,1,1.28-3.5,4.93,4.93,0,0,1,3.59-1.25,7.92,7.92,0,0,1,1.65.17,6.89,6.89,0,0,1,1.36.42l-.79,2a4.91,4.91,0,0,0-2.2-.5,2.1,2.1,0,0,0-1.7.71,3.09,3.09,0,0,0-.6,2,3.13,3.13,0,0,0,.54,2,1.88,1.88,0,0,0,1.56.68,4.56,4.56,0,0,0,1-.11v-1.45H903.7Z"/><path class="cls-7" d="M915.11,211.06H909.6v-9.28h5.51v2h-3v1.46h2.78v2H912.1V209h3Z"/><path class="cls-7" d="M920.77,211.06l-1.9-6.68h-.06q.13,1.71.13,2.65v4h-2.22v-9.28h3.34l1.94,6.59h.05l1.9-6.59h3.35v9.28H925V207c0-.21,0-.45,0-.71s0-.89.09-1.9H925l-1.87,6.67Z"/><path class="cls-7" d="M934.81,211.06H929.3v-9.28h5.51v2h-3v1.46h2.78v2h-2.78V209h3Z"/><path class="cls-7" d="M945.27,211.06H942l-3.39-6.54h-.06q.12,1.54.12,2.36v4.18h-2.22v-9.28h3.28l3.38,6.45h0q-.09-1.4-.09-2.25v-4.2h2.23Z"/><path class="cls-7" d="M951.37,211.06h-2.51v-7.23H946.6v-2.05h7v2.05h-2.26Z"/><path class="cls-7" d="M863.75,223.84a2.74,2.74,0,0,1-.44,1.53,2.87,2.87,0,0,1-1.26,1,4.69,4.69,0,0,1-1.94.37,7.9,7.9,0,0,1-1.56-.13,5.79,5.79,0,0,1-1.31-.45V224a7.5,7.5,0,0,0,1.49.57,5.55,5.55,0,0,0,1.42.21,1.38,1.38,0,0,0,.82-.19.59.59,0,0,0,.26-.5.54.54,0,0,0-.11-.33,1.19,1.19,0,0,0-.34-.29q-.23-.15-1.23-.6a6,6,0,0,1-1.36-.8,2.48,2.48,0,0,1-.67-.89,3,3,0,0,1-.22-1.19,2.38,2.38,0,0,1,.93-2,4.11,4.11,0,0,1,2.56-.72,7.19,7.19,0,0,1,2.94.67l-.77,1.94a5.58,5.58,0,0,0-2.25-.6,1.17,1.17,0,0,0-.71.17.52.52,0,0,0-.22.42.62.62,0,0,0,.28.49,10.86,10.86,0,0,0,1.53.79,4.24,4.24,0,0,1,1.67,1.16A2.51,2.51,0,0,1,863.75,223.84Z"/><path class="cls-7" d="M868.5,220.82l1.6-3.44h2.72L869.76,223v3.63h-2.53v-3.55l-3.05-5.73h2.73Z"/><path class="cls-7" d="M879.89,223.84a2.74,2.74,0,0,1-.44,1.53,2.87,2.87,0,0,1-1.26,1,4.69,4.69,0,0,1-1.94.37,7.9,7.9,0,0,1-1.56-.13,5.79,5.79,0,0,1-1.31-.45V224a7.5,7.5,0,0,0,1.49.57,5.55,5.55,0,0,0,1.42.21,1.38,1.38,0,0,0,.82-.19.59.59,0,0,0,.26-.5.54.54,0,0,0-.11-.33,1.19,1.19,0,0,0-.34-.29q-.23-.15-1.23-.6a6,6,0,0,1-1.36-.8,2.48,2.48,0,0,1-.67-.89,3,3,0,0,1-.22-1.19,2.38,2.38,0,0,1,.93-2,4.11,4.11,0,0,1,2.56-.72,7.19,7.19,0,0,1,2.94.67l-.77,1.94a5.58,5.58,0,0,0-2.25-.6,1.17,1.17,0,0,0-.71.17.52.52,0,0,0-.22.42.62.62,0,0,0,.28.49,10.86,10.86,0,0,0,1.53.79,4.24,4.24,0,0,1,1.67,1.16A2.51,2.51,0,0,1,879.89,223.84Z"/><path class="cls-7" d="M885.42,226.66h-2.51v-7.23h-2.27v-2h7v2h-2.26Z"/><path class="cls-7" d="M894.51,226.66H889v-9.28h5.51v2h-3v1.46h2.78v2h-2.78v1.75h3Z"/><path class="cls-7" d="M900.18,226.66l-1.9-6.68h-.06q.13,1.71.13,2.65v4h-2.22v-9.28h3.34l1.94,6.59h.05l1.9-6.59h3.35v9.28h-2.3v-4.07c0-.21,0-.45,0-.7s0-.89.09-1.9h-.06l-1.87,6.67Z"/><circle class="cls-8" cx="640.48" cy="193.83" r="3.2"/><path class="cls-8" d="M655.27,179.44h-6.8v-3.2a3.2,3.2,0,0,0-3.2-3.2h-9.6a3.2,3.2,0,0,0-3.2,3.2v3.2h-6.8a4.4,4.4,0,0,0-4.4,4.4v18.39a4.4,4.4,0,0,0,4.4,4.4h29.59a4.4,4.4,0,0,0,4.4-4.4V183.83A4.4,4.4,0,0,0,655.27,179.44Zm-19.59-3.2h9.6v3.2h-9.6Zm10.79,17.59a6.08,6.08,0,0,1-.08.75l1.44,1.09a.8.8,0,0,1,.21,1l-1.29,2.24a.8.8,0,0,1-1,.34l-1.66-.7a5.94,5.94,0,0,1-1.31.78l-.22,1.76a.8.8,0,0,1-.79.7h-2.59a.8.8,0,0,1-.79-.7l-.22-1.76a6,6,0,0,1-1.31-.78l-1.66.7a.8.8,0,0,1-1-.34l-1.29-2.24a.8.8,0,0,1,.21-1l1.44-1.09a5.78,5.78,0,0,1-.08-.75,6.08,6.08,0,0,1,.08-.75L633.11,192a.8.8,0,0,1-.21-1l1.29-2.24a.8.8,0,0,1,1-.34l1.66.7a5.94,5.94,0,0,1,1.31-.78l.22-1.76a.8.8,0,0,1,.79-.7h2.59a.8.8,0,0,1,.79.7l.22,1.76a6,6,0,0,1,1.31.78l1.66-.7a.8.8,0,0,1,1,.34L648,191a.8.8,0,0,1-.21,1l-1.44,1.09a5.73,5.73,0,0,1,.08.75Z"/><ellipse class="cls-15" cx="262.87" cy="185.08" rx="22.22" ry="22.27"/><ellipse class="cls-16" cx="262.87" cy="185.08" rx="24.45" ry="24.5"/><path class="cls-8" d="M274.08,190.47a2.46,2.46,0,0,1-.36,1.28l-6.85-7.64,6.78-5.92a2.57,2.57,0,0,1,.43,1.43v10.85Zm-11.25-5.32,9.42-8.21a2.46,2.46,0,0,0-1.28-.36h-16.2a2.46,2.46,0,0,0-1.28.36Zm2.64.3-2.14,1.93a.52.52,0,0,1-.43.14,1,1,0,0,1-.43-.14l-2.14-1.93-6.92,7.71a2.57,2.57,0,0,0,1.43.43H271a2.57,2.57,0,0,0,1.43-.43Zm-13.39-7.18a2.57,2.57,0,0,0-.43,1.43v10.78a2.46,2.46,0,0,0,.36,1.28l6.85-7.64Z"/><ellipse class="cls-15" cx="843.74" cy="157.43" rx="22.22" ry="22.27"/><ellipse class="cls-16" cx="843.74" cy="157.43" rx="24.45" ry="24.5"/><path class="cls-8" d="M409.06,175.31h-2.68a.89.89,0,0,1-.89-.89v-2.68h-5.36v12.51h8.93Zm-2.68,7.15H402.8a.89.89,0,1,1,0-1.79h3.57a.89.89,0,1,1,0,1.79Zm0-3.57H402.8a.89.89,0,1,1,0-1.79h3.57a.89.89,0,1,1,0,1.79Z"/><path class="cls-8" d="M407.27,173v.52h.52Z"/><path class="cls-8" d="M401.23,166.87l-2.51-5.56a2.67,2.67,0,0,0-2.23-1.19H392a2.68,2.68,0,0,0-2.68,2.68V186a2.68,2.68,0,0,0,2.68,2.68h25.13a2.68,2.68,0,0,0,2.68-2.68V167.27H402A.89.89,0,0,1,401.23,166.87Zm5.78,3.34,3.57,3.57a1.11,1.11,0,0,1,.26.63v10.72a.89.89,0,0,1-.89.89H399.23a.89.89,0,0,1-.89-.89V170.84a.89.89,0,0,1,.89-.89h7.15A1.07,1.07,0,0,1,407,170.21Z"/><path class="cls-8" d="M417.16,161.91H400.95l1.62,3.57h17.27v-.89A2.68,2.68,0,0,0,417.16,161.91Z"/><path class="cls-8" d="M381.24,47.11H361.1a3.82,3.82,0,0,0-3.82,3.82V76.62a3.82,3.82,0,0,0,3.82,3.82h20.14a3.82,3.82,0,0,0,3.82-3.82V50.93A3.82,3.82,0,0,0,381.24,47.11ZM368.73,74.37a1.31,1.31,0,1,1-1.85,1.85L365.62,75l-1.26,1.26a1.31,1.31,0,0,1-1.85-1.86l1.26-1.26-1.26-1.26A1.31,1.31,0,0,1,364.36,70l1.26,1.26L366.88,70a1.31,1.31,0,1,1,1.86,1.86l-1.26,1.26Zm-.93-9.28h-.87V66a1.31,1.31,0,1,1-2.62,0v-.87h-.87a1.31,1.31,0,1,1,0-2.63h.88v-.87a1.31,1.31,0,0,1,2.63,0v.88h.88a1.31,1.31,0,0,1,0,2.63Zm11.42,10.8h-5c-.83,0-1.5-.47-1.5-1s.67-1,1.5-1h5c.83,0,1.5.47,1.5,1S380.06,75.88,379.23,75.88Zm0-3.47h-5c-.83,0-1.5-.47-1.5-1s.67-1,1.5-1h5c.83,0,1.5.47,1.5,1S380.06,72.41,379.23,72.41Zm0-7.25h-5c-.83,0-1.5-.47-1.5-1s.67-1,1.5-1h5c.83,0,1.5.47,1.5,1S380.06,65.16,379.23,65.16Zm1.67-9.37a2.43,2.43,0,0,1-2.43,2.43H363.88a2.43,2.43,0,0,1-2.43-2.43V53.7a2.43,2.43,0,0,1,2.43-2.43h14.58a2.43,2.43,0,0,1,2.43,2.43Z"/><path class="cls-8" d="M856.21,146h-3.28a.48.48,0,0,0-.48.49v1.4h4.23v-1.4A.48.48,0,0,0,856.21,146Z"/><path class="cls-8" d="M850.26,148.31H847a.48.48,0,0,0-.48.49v2.45h4.23v-2.45A.48.48,0,0,0,850.26,148.31Z"/><path class="cls-8" d="M852.45,149.63h4.23v17.1h-4.23Z"/><path class="cls-8" d="M846.51,153h4.23v17.34h-4.23Z"/><path class="cls-8" d="M852.45,168.48h4.23v1.85h-4.23Z"/><path class="cls-8" d="M835.72,149.39h-4.45a.48.48,0,0,0-.48.49v1.84h5.4v-1.84A.48.48,0,0,0,835.72,149.39Z"/><path class="cls-8" d="M830.79,153.47h5.4v16.86h-5.4Z"/><path class="cls-8" d="M837.91,166.27h6.88v4.07h-6.88Z"/><path class="cls-8" d="M837.91,150.38h6.88v14.13h-6.88Z"/><path class="cls-8" d="M844.31,144.53h-5.93a.48.48,0,0,0-.48.49v3.6h6.88V145A.48.48,0,0,0,844.31,144.53Z"/><line class="cls-1" x1="535.79" x2="535.79" y2="12.6"/><line class="cls-1" x1="529.49" y1="6.3" x2="542.09" y2="6.3"/><line class="cls-28" x1="66.54" y1="68.39" x2="66.54" y2="80.99"/><line class="cls-28" x1="60.24" y1="74.69" x2="72.84" y2="74.69"/><line class="cls-1" x1="53.94" y1="43.9" x2="53.94" y2="56.5"/><line class="cls-1" x1="47.64" y1="50.2" x2="60.24" y2="50.2"/><line class="cls-1" x1="700.89" y1="212.01" x2="700.89" y2="224.61"/><line class="cls-1" x1="694.59" y1="218.31" x2="707.19" y2="218.31"/><line class="cls-1" x1="953.7" y1="149.98" x2="953.7" y2="162.58"/><line class="cls-1" x1="947.4" y1="156.28" x2="960" y2="156.28"/><line class="cls-28" x1="110.25" y1="195.62" x2="110.25" y2="208.22"/><line class="cls-28" x1="103.95" y1="201.92" x2="116.55" y2="201.92"/><line class="cls-28" x1="754.43" y1="35.05" x2="754.43" y2="47.65"/><line class="cls-28" x1="748.13" y1="41.35" x2="760.73" y2="41.35"/><line class="cls-28" x1="417.53" y1="26.7" x2="417.53" y2="39.3"/><line class="cls-28" x1="411.23" y1="33" x2="423.83" y2="33"/><circle class="cls-18" cx="803.74" cy="78.73" r="40"/><circle class="cls-19" cx="803.74" cy="78.73" r="42.5"/><path class="cls-8" d="M780.26,97.42h47V60h-47Zm3.12-34.36h40.71V94.39H783.38Z"/><path class="cls-8" d="M796.28,67.69a8.36,8.36,0,1,0,8.36,8.36,8.34,8.34,0,0,0-8.36-8.36Zm.71,8.36a.87.87,0,0,1-.81-.81V70a.87.87,0,0,1,.3-.6.74.74,0,0,1,.6-.2A6.84,6.84,0,0,1,803,75.15c0,.2,0,.5-.2.6a.87.87,0,0,1-.6.3Z"/><rect class="cls-8" x="808.98" y="68" width="11.59" height="2.92"/><rect class="cls-8" x="808.98" y="74.24" width="11.59" height="2.92"/><rect class="cls-8" x="808.98" y="80.59" width="11.59" height="2.92"/><rect class="cls-8" x="788.02" y="86.94" width="32.54" height="2.92"/><path class="cls-7" d="M853.83,53.25h3.74a6.34,6.34,0,0,1,3.24.65,2.2,2.2,0,0,1,1.06,2,2.56,2.56,0,0,1-.46,1.54,2.06,2.06,0,0,1-1.22.82v.07a2.49,2.49,0,0,1,1.44.88,2.65,2.65,0,0,1,.45,1.6,2.73,2.73,0,0,1-1.1,2.3,4.79,4.79,0,0,1-3,.84h-4.17Zm2.89,4.11h.87a1.58,1.58,0,0,0,1-.26.89.89,0,0,0,.34-.76q0-.9-1.36-.9h-.81Zm0,2.12v2.25h1q1.35,0,1.35-1.14a1,1,0,0,0-.36-.82,1.67,1.67,0,0,0-1.05-.29Z"/><path class="cls-7" d="M873,53.25v6.45A4.33,4.33,0,0,1,871.86,63a4.74,4.74,0,0,1-3.43,1.15A4.69,4.69,0,0,1,865.06,63a4.24,4.24,0,0,1-1.18-3.22V53.25h2.91v6.28a2.57,2.57,0,0,0,.42,1.65,1.83,1.83,0,0,0,2.54,0,2.73,2.73,0,0,0,.4-1.67V53.25Z"/><path class="cls-7" d="M882.3,60.71a3.16,3.16,0,0,1-.51,1.77,3.3,3.3,0,0,1-1.46,1.2,5.4,5.4,0,0,1-2.23.43,9,9,0,0,1-1.79-.15,6.63,6.63,0,0,1-1.51-.52V60.85a8.59,8.59,0,0,0,1.72.66,6.41,6.41,0,0,0,1.64.24,1.6,1.6,0,0,0,.95-.22.69.69,0,0,0,.3-.58.64.64,0,0,0-.12-.38,1.45,1.45,0,0,0-.39-.33q-.27-.17-1.42-.69a6.85,6.85,0,0,1-1.57-.92,2.82,2.82,0,0,1-.78-1,3.38,3.38,0,0,1-.25-1.37,2.75,2.75,0,0,1,1.08-2.31,4.75,4.75,0,0,1,3-.83,8.31,8.31,0,0,1,3.39.77l-.89,2.23a6.42,6.42,0,0,0-2.59-.69,1.35,1.35,0,0,0-.82.2.6.6,0,0,0-.26.49.71.71,0,0,0,.33.56,12.36,12.36,0,0,0,1.77.91,4.9,4.9,0,0,1,1.92,1.34A2.9,2.9,0,0,1,882.3,60.71Z"/><path class="cls-7" d="M884,64V53.25h2.91V64Z"/><path class="cls-7" d="M899.37,64h-3.79l-3.91-7.54h-.07q.14,1.78.14,2.72V64h-2.56V53.25H893l3.9,7.44h0q-.1-1.62-.1-2.6V53.25h2.58Z"/><path class="cls-7" d="M908,64h-6.36V53.25H908v2.32h-3.46v1.68h3.21v2.32h-3.21v2H908Z"/><path class="cls-7" d="M916.92,60.71a3.15,3.15,0,0,1-.51,1.77,3.3,3.3,0,0,1-1.46,1.2,5.39,5.39,0,0,1-2.23.43,9,9,0,0,1-1.79-.15,6.64,6.64,0,0,1-1.51-.52V60.85a8.61,8.61,0,0,0,1.72.66,6.41,6.41,0,0,0,1.64.24,1.6,1.6,0,0,0,.95-.22A.69.69,0,0,0,914,61a.64.64,0,0,0-.12-.38,1.43,1.43,0,0,0-.39-.33q-.27-.17-1.42-.69a6.8,6.8,0,0,1-1.57-.92,2.82,2.82,0,0,1-.78-1,3.4,3.4,0,0,1-.25-1.37,2.74,2.74,0,0,1,1.08-2.31,4.74,4.74,0,0,1,3-.83,8.3,8.3,0,0,1,3.39.77L916,56.1a6.42,6.42,0,0,0-2.59-.69,1.35,1.35,0,0,0-.82.2.6.6,0,0,0-.26.49.71.71,0,0,0,.33.56,12.39,12.39,0,0,0,1.77.91,4.89,4.89,0,0,1,1.92,1.34A2.9,2.9,0,0,1,916.92,60.71Z"/><path class="cls-7" d="M925.58,60.71a3.16,3.16,0,0,1-.5,1.77,3.31,3.31,0,0,1-1.46,1.2,5.4,5.4,0,0,1-2.23.43,9,9,0,0,1-1.79-.15,6.64,6.64,0,0,1-1.51-.52V60.85a8.62,8.62,0,0,0,1.72.66,6.41,6.41,0,0,0,1.64.24,1.59,1.59,0,0,0,.94-.22.69.69,0,0,0,.3-.58.64.64,0,0,0-.12-.38,1.42,1.42,0,0,0-.39-.33q-.27-.17-1.42-.69a6.84,6.84,0,0,1-1.57-.92,2.82,2.82,0,0,1-.78-1,3.4,3.4,0,0,1-.25-1.37,2.75,2.75,0,0,1,1.08-2.31,4.75,4.75,0,0,1,3-.83,8.3,8.3,0,0,1,3.39.77l-.89,2.23a6.43,6.43,0,0,0-2.59-.69,1.36,1.36,0,0,0-.82.2.6.6,0,0,0-.26.49.71.71,0,0,0,.33.56,12.39,12.39,0,0,0,1.77.91A4.89,4.89,0,0,1,925,58.91,2.9,2.9,0,0,1,925.58,60.71Z"/><path class="cls-7" d="M853.83,82V71.25h2.91V82Z"/><path class="cls-7" d="M869.25,82h-3.79l-3.91-7.54h-.07q.14,1.78.14,2.72V82h-2.56V71.25h3.78l3.9,7.44h0q-.1-1.62-.1-2.6V71.25h2.58Z"/><path class="cls-7" d="M876.29,82H873.4V73.61h-2.61V71.25h8.12v2.37h-2.61Z"/><path class="cls-7" d="M886.79,82h-6.36V71.25h6.36v2.32h-3.46v1.68h3.21v2.32h-3.21v2h3.46Z"/><path class="cls-7" d="M888.66,82V71.25h2.89v8.37h4.12V82Z"/><path class="cls-7" d="M897.39,82V71.25h2.89v8.37h4.12V82Z"/><path class="cls-7" d="M906.12,82V71.25H909V82Z"/><path class="cls-7" d="M915.64,75.69h4.62v5.77a12.71,12.71,0,0,1-4.14.64,5,5,0,0,1-3.83-1.44,5.74,5.74,0,0,1-1.35-4.09,5.38,5.38,0,0,1,1.48-4,5.69,5.69,0,0,1,4.15-1.44,9.19,9.19,0,0,1,1.91.19,8,8,0,0,1,1.56.48L919.13,74a5.66,5.66,0,0,0-2.54-.57,2.42,2.42,0,0,0-2,.82,3.57,3.57,0,0,0-.69,2.35,3.62,3.62,0,0,0,.63,2.29,2.17,2.17,0,0,0,1.81.79,5.29,5.29,0,0,0,1.19-.12V77.92h-1.91Z"/><path class="cls-7" d="M928.81,82h-6.36V71.25h6.36v2.32h-3.46v1.68h3.21v2.32h-3.21v2h3.46Z"/><path class="cls-7" d="M940.88,82h-3.79l-3.91-7.54h-.07q.14,1.78.14,2.72V82h-2.56V71.25h3.78l3.9,7.44h0q-.1-1.62-.1-2.6V71.25h2.58Z"/><path class="cls-7" d="M948,73.47a1.84,1.84,0,0,0-1.61.85,4.08,4.08,0,0,0-.58,2.33q0,3.09,2.35,3.09a4.82,4.82,0,0,0,1.38-.2,13.77,13.77,0,0,0,1.34-.48v2.45a7.41,7.41,0,0,1-3,.59,4.79,4.79,0,0,1-3.72-1.41,5.79,5.79,0,0,1-1.29-4.06,6.5,6.5,0,0,1,.63-2.92,4.49,4.49,0,0,1,1.8-1.94A5.44,5.44,0,0,1,948,71.1a7.61,7.61,0,0,1,3.32.75l-.89,2.28a10,10,0,0,0-1.19-.47A4.15,4.15,0,0,0,948,73.47Z"/><path class="cls-7" d="M959.28,82h-6.36V71.25h6.36v2.32h-3.46v1.68H959v2.32h-3.21v2h3.46Z"/><path class="cls-7" d="M860.84,96.71a3.16,3.16,0,0,1-.5,1.77,3.3,3.3,0,0,1-1.46,1.2,5.39,5.39,0,0,1-2.23.43,9,9,0,0,1-1.79-.15,6.64,6.64,0,0,1-1.51-.52V96.85a8.64,8.64,0,0,0,1.72.66,6.41,6.41,0,0,0,1.64.24,1.59,1.59,0,0,0,.94-.22.69.69,0,0,0,.3-.58.64.64,0,0,0-.12-.38,1.4,1.4,0,0,0-.39-.33q-.27-.17-1.42-.69a6.8,6.8,0,0,1-1.57-.92,2.83,2.83,0,0,1-.78-1,3.41,3.41,0,0,1-.25-1.37,2.74,2.74,0,0,1,1.08-2.31,4.75,4.75,0,0,1,3-.83,8.3,8.3,0,0,1,3.39.77L860,92.1a6.42,6.42,0,0,0-2.59-.69,1.35,1.35,0,0,0-.82.2.6.6,0,0,0-.26.49.7.7,0,0,0,.33.56,12.41,12.41,0,0,0,1.77.91,4.89,4.89,0,0,1,1.92,1.34A2.91,2.91,0,0,1,860.84,96.71Z"/><path class="cls-7" d="M872.51,94.59a5.78,5.78,0,0,1-1.33,4.11,6,6,0,0,1-7.75,0,6.94,6.94,0,0,1,0-8.2,6.06,6.06,0,0,1,7.76,0A5.78,5.78,0,0,1,872.51,94.59Zm-7.37,0q0,3.11,2.16,3.11a1.86,1.86,0,0,0,1.63-.75,5.47,5.47,0,0,0,0-4.72,1.84,1.84,0,0,0-1.61-.77Q865.14,91.45,865.14,94.59Z"/><path class="cls-7" d="M874.45,100V89.25h2.89v8.37h4.12V100Z"/><path class="cls-7" d="M892.28,89.25v6.45A4.33,4.33,0,0,1,891.09,99a4.74,4.74,0,0,1-3.43,1.15A4.69,4.69,0,0,1,884.29,99a4.24,4.24,0,0,1-1.18-3.22V89.25H886v6.28a2.57,2.57,0,0,0,.42,1.65,1.83,1.83,0,0,0,2.54,0,2.72,2.72,0,0,0,.4-1.67V89.25Z"/><path class="cls-7" d="M899.25,100h-2.89V91.61h-2.62V89.25h8.12v2.37h-2.61Z"/><path class="cls-7" d="M903.39,100V89.25h2.91V100Z"/><path class="cls-7" d="M918.63,94.59a5.78,5.78,0,0,1-1.33,4.11,6,6,0,0,1-7.75,0,6.94,6.94,0,0,1,0-8.2,6.06,6.06,0,0,1,7.76,0A5.78,5.78,0,0,1,918.63,94.59Zm-7.37,0q0,3.11,2.16,3.11a1.86,1.86,0,0,0,1.63-.75,5.48,5.48,0,0,0,0-4.72,1.84,1.84,0,0,0-1.61-.77Q911.26,91.45,911.26,94.59Z"/><path class="cls-7" d="M930.76,100H927l-3.91-7.54H923q.14,1.78.14,2.72V100h-2.56V89.25h3.78l3.9,7.44h0q-.1-1.62-.1-2.6V89.25h2.58Z"/></g></svg>